<svg width="256" height="256" viewBox="0 0 256 256" fill="none" xmlns="http://www.w3.org/2000/svg">
<g clip-path="url(#clip0_26_878)">
<path d="M128 0.000100881C57.3013 0.000100881 0 57.3121 0 128C0 198.699 57.3013 256 128 256C198.688 256 256 198.699 256 128C256.005 115.936 254.307 103.931 250.955 92.3414C250.326 90.8153 249.133 89.5909 247.623 88.9239C246.114 88.2569 244.405 88.1988 242.853 88.7618C241.302 89.3248 240.028 90.4654 239.298 91.9454C238.567 93.4253 238.437 95.1302 238.933 96.7041H238.912C241.739 106.763 243.2 117.269 243.2 128C243.242 143.135 240.281 158.127 234.49 172.11C228.699 186.093 220.192 198.788 209.461 209.461C198.789 220.192 186.093 228.7 172.11 234.491C158.127 240.282 143.135 243.242 128 243.2C112.865 243.242 97.8729 240.281 83.89 234.49C69.9072 228.699 57.2118 220.192 46.5387 209.461C35.8073 198.789 27.2998 186.094 21.5085 172.111C15.7172 158.128 12.7572 143.135 12.8 128C12.7584 112.866 15.7189 97.8729 21.5101 83.8901C27.3013 69.9073 35.8083 57.2119 46.5387 46.5388C57.2111 35.8074 69.9064 27.2999 83.8894 21.5086C97.8723 15.7173 112.865 12.7573 128 12.8001C155.477 12.8001 181.472 22.3574 202.219 39.8934C200.907 43.2215 200.777 46.8986 201.849 50.3114C202.921 53.7241 205.13 56.6662 208.109 58.6469C211.088 60.6276 214.655 61.5272 218.217 61.1956C221.779 60.864 225.119 59.3213 227.681 56.8248C230.243 54.3283 231.871 51.029 232.295 47.477C232.718 43.9251 231.911 40.3353 230.008 37.3064C228.105 34.2775 225.221 31.9927 221.837 30.8329C218.453 29.6732 214.774 29.7086 211.413 30.9334C188.225 10.9416 158.617 -0.0383949 128 0.000100881V0.000100881ZM112.64 62.7201L67.84 179.008H95.8933L103.221 159.296H145.557L137.888 137.515H110.016L128.149 87.4774L160.405 178.997H188.469L143.68 62.7201H112.64Z" fill="#3F20BA"/>
</g>
<defs>
<clipPath id="clip0_26_878">
<rect width="256" height="256" fill="white"/>
</clipPath>
</defs>
</svg>
