<svg width="186" height="186" viewBox="0 0 186 186" fill="none" xmlns="http://www.w3.org/2000/svg">
<path fill-rule="evenodd" clip-rule="evenodd" d="M3.99051 88.8593C15.2943 102.882 34.5584 111.529 56.0631 115.159C88.1947 120.578 125.309 114.816 148.057 99.4197C148.522 99.0964 148.674 98.4432 148.397 97.9651C148.114 97.4745 147.513 97.3419 147.039 97.6624C124.643 112.817 88.0896 118.423 56.4487 113.078C35.4308 109.535 16.5645 101.167 5.5207 87.4538C5.17163 87.0171 4.54979 86.9842 4.12373 87.3725C3.70967 87.754 3.64144 88.4226 3.99051 88.8593Z" fill="white"/>
<path fill-rule="evenodd" clip-rule="evenodd" d="M178.526 89.7886C164.946 98.0101 152.294 103.802 141.705 117.467C141.354 117.932 141.397 118.592 141.821 118.946C142.233 119.306 142.861 119.224 143.209 118.769C154.863 103.735 169.083 98.4281 184.238 88.6238C185.054 88.0907 184.87 87.3759 184.813 87.2097C184.731 86.9617 184.527 86.6014 183.992 86.5424C183.887 86.5311 183.676 86.5406 183.382 86.5982C182.82 86.7219 181.694 87.0745 181.178 87.1803C179.685 87.4727 178.195 87.7236 176.703 88.0161C172.435 88.8523 168.173 89.6374 163.875 90.0928C147.796 91.8236 134.655 93.3472 121.909 82.4935C121.487 82.13 120.869 82.2149 120.509 82.6767C120.161 83.1317 120.213 83.795 120.628 84.146C133.81 95.3784 147.369 93.973 163.998 92.1892C168.35 91.7186 172.672 90.9309 176.982 90.0865C177.498 89.9807 178.012 89.8847 178.526 89.7886Z" fill="white"/>
</svg>
