<svg width="158" height="137" viewBox="0 0 158 137" fill="none" xmlns="http://www.w3.org/2000/svg">
<g clip-path="url(#clip0_283_637)">
<path fill-rule="evenodd" clip-rule="evenodd" d="M66.0594 64.1139C66.7222 64.1942 67.3884 64.3829 68.0533 64.5717C71.6344 65.396 75.8086 66.3038 78.9394 68.1249C83.0465 70.5558 84.7163 73.4166 84.8072 76.3451C84.9313 80.4668 81.5574 84.8463 76.7977 87.6563C72.0824 90.4645 66.0848 91.8074 61.1469 90.3894C57.7641 89.448 54.8151 87.1848 53.0868 83.1316C51.0968 78.5466 52.3715 74.0393 55.361 70.0016C56.4806 68.4333 57.8504 67.0716 59.3647 65.7036C57.285 65.4667 55.185 65.2303 53.0558 64.9955C46.0934 64.4243 38.805 64.5185 31.8377 65.1422C22.617 65.8623 13.8526 67.8667 5.44781 71.2671C4.66829 71.5176 3.75146 71.2308 3.39901 70.5942C3.04782 69.9576 3.3908 69.1831 4.16568 68.8241C12.9019 65.301 22.0091 63.1731 31.5925 62.4375C38.7673 61.9136 46.2616 61.7026 53.4303 62.3735C56.4011 62.681 59.3173 62.9905 62.2052 63.41C65.8574 60.7559 69.95 58.6258 73.4498 57.2815C96.8789 48.6774 129.287 57.1745 151.229 66.0109C151.996 66.3039 152.315 67.0512 151.944 67.7187C151.573 68.3862 150.647 68.643 149.88 68.3499C128.644 59.8092 97.322 51.3734 74.647 59.7281C71.9804 60.7109 68.9375 62.2531 66.0594 64.1139ZM63.0735 66.3055C64.4397 66.4643 65.8016 66.7313 67.1644 67.1074C70.45 67.9444 74.2991 68.6485 77.1645 70.2636C80.2648 72.086 81.6473 74.1999 81.7146 76.3691C81.8211 79.84 78.9039 83.2225 75.0518 85.4507C71.1613 87.7891 66.2441 89.0857 62.1651 87.8482C59.541 87.0915 57.3279 85.3394 55.9901 82.247C54.3483 78.4074 55.4995 74.6662 57.966 71.4112C59.3342 69.5064 61.1086 67.8014 63.0735 66.3055Z" fill="white"/>
<path fill-rule="evenodd" clip-rule="evenodd" d="M151.519 67.2999C151.048 66.777 150.355 66.2635 149.661 65.7502C148.325 64.7212 146.917 63.8038 146.159 62.9673C141.501 57.9534 135.988 51.8902 133.398 45.8103C133.108 45.1711 133.521 44.3932 134.323 44.1417C135.124 43.8902 136.009 44.178 136.304 44.9256C138.786 50.6842 144.12 56.4302 148.595 61.3433C149.411 62.1773 151.11 63.2987 152.478 64.3263C153.641 65.254 154.577 66.1917 154.943 67.1535C155.194 67.6857 154.983 68.6723 153.582 69.3838C151.596 70.3376 146.008 71.3374 145.468 71.469C140.003 72.7888 135.2 74.08 131.896 78.3483C131.419 78.9117 130.456 79.0613 129.753 78.7655C129.046 78.3613 128.857 77.5003 129.336 76.9368C133.103 72.1057 138.47 70.3559 144.701 68.8948C145.102 68.8777 148.443 68.3004 150.75 67.5502C150.997 67.431 151.275 67.4189 151.519 67.2999Z" fill="white"/>
</g>
<defs>
<clipPath id="clip0_283_637">
<rect width="130" height="152.072" fill="white" transform="matrix(-0.0427167 -0.999087 -0.999087 0.0427167 157.709 129.916)"/>
</clipPath>
</defs>
</svg>
