<svg width="256" height="256" viewBox="0 0 256 256" fill="none" xmlns="http://www.w3.org/2000/svg">
<path d="M209.432 158.213C218.443 157.116 238.315 154.754 241.853 159.31C245.39 163.784 237.896 182.605 234.527 190.959C233.516 193.492 235.706 194.504 237.979 192.563C252.8 180.072 256.674 153.992 253.643 150.195C250.61 146.483 224.59 143.275 208.758 154.416C206.315 156.187 206.737 158.551 209.432 158.213V158.213Z" fill="#FF9900"/>
<path d="M127.747 203.872C162.359 203.872 202.61 192.983 230.316 172.476C234.863 169.1 230.905 163.953 226.273 166.062C195.2 179.227 161.432 185.643 130.695 185.643C85.1372 185.643 41.0949 173.068 5.39145 152.306C2.27337 150.449 -0.0835377 153.656 2.52596 156.02C35.538 185.895 79.2423 203.872 127.747 203.872V203.872Z" fill="#FF9900"/>
<path d="M72.7584 107.238C72.7584 110.362 73.0946 112.893 73.6834 114.749C74.432 116.838 75.3333 118.869 76.3799 120.825C76.7998 121.501 76.9687 122.177 76.9687 122.767C76.9687 123.612 76.4635 124.457 75.3679 125.3L70.0636 128.845C69.3058 129.35 68.5463 129.604 67.8739 129.604C67.0308 129.604 66.1894 129.181 65.348 128.422C64.2127 127.199 63.1971 125.871 62.3153 124.455C61.3738 122.833 60.5026 121.172 59.7041 119.475C53.1368 127.241 44.8834 131.123 34.9472 131.123C27.873 131.123 22.2325 129.097 18.1058 125.047C13.9791 120.996 11.873 115.593 11.873 108.843C11.873 101.668 14.3989 95.8447 19.536 91.4568C24.673 87.0673 31.4946 84.8742 40.1696 84.8742C43.0317 84.8742 45.9791 85.1268 49.0954 85.5484C52.2101 85.9716 55.4101 86.6458 58.7791 87.4052V81.2442C58.7791 74.8305 57.4308 70.3573 54.8196 67.741C52.1265 65.1247 47.5782 63.86 41.0946 63.86C38.1472 63.86 35.1161 64.1963 31.9998 64.9557C28.9038 65.6953 25.8645 66.6546 22.9049 67.8263C21.9474 68.2558 20.9628 68.6224 19.9575 68.9237C19.3687 69.091 18.9472 69.1763 18.6093 69.1763C17.4317 69.1763 16.8412 68.3332 16.8412 66.56V62.4247C16.8412 61.0748 17.0118 60.061 17.4317 59.4722C17.8515 58.88 18.6093 58.2895 19.7886 57.6973C22.736 56.1783 26.2739 54.9137 30.3989 53.8999C34.5256 52.8043 38.9066 52.2957 43.5368 52.2957C53.5584 52.2957 60.8834 54.5758 65.5989 59.1326C70.2308 63.6894 72.5894 70.6116 72.5894 79.8942V107.238H72.7584V107.238ZM38.5687 120.067C41.3472 120.067 44.211 119.561 47.242 118.548C50.273 117.535 52.9679 115.678 55.2412 113.147C56.5894 111.543 57.5998 109.771 58.1049 107.745C58.6101 105.719 58.9463 103.272 58.9463 100.403V96.8584C56.393 96.236 53.8067 95.7573 51.1998 95.4248C48.5745 95.0901 45.9308 94.9202 43.2842 94.9163C37.642 94.9163 33.5153 96.0136 30.7368 98.292C27.9584 100.572 26.6101 103.779 26.6101 107.998C26.6101 111.964 27.6205 114.918 29.7265 116.944C31.7472 119.054 34.6946 120.067 38.567 120.067H38.5687ZM106.189 129.181C104.673 129.181 103.663 128.928 102.989 128.338C102.316 127.831 101.726 126.648 101.22 125.046L81.4317 59.8084C80.9265 58.1188 80.6739 57.0231 80.6739 56.4326C80.6739 55.0827 81.3463 54.3232 82.6946 54.3232H90.9463C92.5472 54.3232 93.6429 54.5758 94.2317 55.1663C94.9058 55.6732 95.4093 56.8559 95.9161 58.4584L110.064 114.328L123.201 58.4584C123.62 56.7688 124.126 55.6732 124.8 55.1663C125.474 54.6594 126.651 54.3232 128.169 54.3232H134.905C136.506 54.3232 137.6 54.5758 138.274 55.1663C138.948 55.6732 139.537 56.8559 139.873 58.4584L153.178 115.004L167.748 58.4584C168.251 56.7688 168.84 55.6732 169.431 55.1663C170.105 54.6594 171.199 54.3232 172.716 54.3232H180.546C181.895 54.3232 182.652 54.9973 182.652 56.4326C182.652 56.8542 182.569 57.2757 182.483 57.7826C182.352 58.5022 182.155 59.2083 181.895 59.892L161.601 125.133C161.094 126.821 160.505 127.916 159.831 128.423C159.158 128.93 158.063 129.268 156.631 129.268H149.389C147.789 129.268 146.693 129.014 146.02 128.423C145.348 127.833 144.758 126.735 144.421 125.047L131.369 70.6133L118.4 124.964C117.978 126.652 117.473 127.749 116.799 128.34C116.126 128.93 114.947 129.183 113.432 129.183H106.189V129.181ZM214.4 131.461C210.02 131.461 205.641 130.954 201.431 129.942C197.22 128.928 193.937 127.831 191.747 126.565C190.399 125.805 189.474 124.96 189.136 124.203C188.808 123.457 188.636 122.653 188.631 121.839V117.535C188.631 115.763 189.305 114.918 190.568 114.918C191.073 114.918 191.578 115.004 192.083 115.171C192.589 115.342 193.346 115.678 194.189 116.016C197.164 117.326 200.269 118.316 203.453 118.968C206.82 119.644 210.106 119.982 213.473 119.982C218.779 119.982 222.906 119.054 225.768 117.197C228.632 115.34 230.147 112.64 230.147 109.179C230.147 106.817 229.389 104.876 227.874 103.272C226.358 101.668 223.495 100.234 219.368 98.8843L207.158 95.0852C201.011 93.1447 196.463 90.2758 193.684 86.4768C190.906 82.7631 189.474 78.6278 189.474 74.24C189.474 70.6952 190.232 67.572 191.747 64.8721C193.263 62.1722 195.283 59.8084 197.811 57.9516C200.337 56.0111 203.199 54.5758 206.568 53.5637C209.937 52.55 213.473 52.1284 217.178 52.1284C219.032 52.1284 220.969 52.2138 222.82 52.4663C224.758 52.7189 226.526 53.0568 228.294 53.3948C229.978 53.8163 231.579 54.2379 233.095 54.743C234.61 55.2516 235.789 55.7568 236.631 56.2637C237.81 56.9395 238.653 57.6136 239.158 58.3731C239.664 59.049 239.916 59.9774 239.916 61.1584V65.1264C239.916 66.8996 239.242 67.828 237.979 67.828C237.305 67.828 236.211 67.4901 234.779 66.8143C229.978 64.6212 224.589 63.5238 218.61 63.5238C213.811 63.5238 210.02 64.2833 207.411 65.8859C204.8 67.4901 203.453 69.9375 203.453 73.3986C203.453 75.7606 204.295 77.7847 205.979 79.389C207.664 80.9933 210.778 82.5975 215.241 84.0311L227.2 87.8302C233.264 89.7707 237.641 92.4723 240.252 95.9317C242.864 99.3911 244.126 103.357 244.126 107.747C244.126 111.375 243.369 114.668 241.937 117.536C240.421 120.405 238.401 122.938 235.789 124.964C233.178 127.073 230.064 128.592 226.442 129.69C222.653 130.871 218.694 131.463 214.4 131.463V131.461Z" fill="white"/>
</svg>
