<svg width="1479" height="982" viewBox="0 0 1479 982" fill="none" xmlns="http://www.w3.org/2000/svg">
<path d="M422.994 718.5C422.867 717.672 422.745 716.839 422.617 716.01C422.333 715.208 421.962 714.436 421.51 713.706C420.982 712.986 420.286 712.276 419.678 711.607C419.515 711.432 419.359 711.257 419.196 711.082C418.396 710.537 417.602 709.987 416.802 709.441C415.862 709.087 414.917 708.737 413.978 708.382C412.406 707.945 410.835 707.883 409.264 708.197C408.197 708.197 407.2 708.438 406.278 708.912C405.274 709.159 404.405 709.611 403.668 710.259C402.781 710.727 402.074 711.355 401.546 712.142C400.815 712.795 400.305 713.567 400.027 714.457C399.285 715.707 398.948 717.055 399.006 718.5C399.146 719.431 399.29 720.357 399.43 721.288C399.83 722.121 400.224 722.96 400.624 723.793C401.239 724.503 401.859 725.208 402.474 725.918L404.869 727.559C405.808 727.913 406.753 728.263 407.692 728.618C409.264 729.055 410.835 729.117 412.406 728.803C413.473 728.803 414.471 728.562 415.393 728.088C416.86 727.667 418.129 726.941 419.196 725.918C419.359 725.743 419.515 725.568 419.678 725.393C420.292 724.719 421.162 723.881 421.51 723.294C421.748 722.919 421.939 722.523 422.084 722.106C422.745 720.99 423.046 719.786 422.994 718.5V718.5Z" fill="#F4F4F4"/>
<path d="M1083.24 19.6101C1082.06 18.6236 1080.63 18 1079 18C1077.46 18 1075.85 18.6134 1074.76 19.6101C1073.72 20.566 1072.94 22.1301 1073 23.5C1073.07 24.921 1073.58 26.3982 1074.76 27.3899C1075.94 28.3764 1077.37 29 1079 29C1080.54 29 1082.15 28.3866 1083.24 27.3899C1084.33 26.3931 1085.06 24.8699 1085 23.5C1084.93 22.079 1084.42 20.6018 1083.24 19.6101Z" fill="#F4F4F4"/>
<path d="M1380 524C1372.01 524 1371.99 534 1380 534C1388 534 1388 524 1380 524Z" fill="#F4F4F4"/>
<path d="M1405.29 958.565C1402.43 957.19 1398.79 956.64 1395.71 955.732C1394.06 955.244 1392.41 954.756 1390.78 954.205C1390.08 953.969 1389.42 953.696 1388.73 953.476C1388.26 950.511 1387.63 947.064 1386.23 944.173C1385.95 941.502 1385.94 938.837 1386 936.166C1386.08 935.641 1386.16 935.117 1386.22 934.592C1386.24 934.424 1386.17 934.288 1386.06 934.188C1386.06 934.067 1386.07 933.941 1386.08 933.821C1386.12 932.693 1384.32 932.761 1384.18 933.821C1384.06 934.713 1383.93 935.594 1383.81 936.481C1382.07 940.306 1381.95 944.619 1381.62 948.701C1381.61 948.906 1381.58 949.105 1381.56 949.304C1381.49 949.661 1381.41 950.018 1381.33 950.375C1381.04 951.634 1380.47 953.009 1380.04 954.373C1378.97 954.677 1377.9 954.856 1376.84 954.971C1375.68 955.003 1374.5 955.065 1373.32 955.16C1371.66 955.191 1369.98 955.191 1368.24 955.354C1367.91 955.386 1367.64 955.574 1367.48 955.811C1367 955.879 1366.51 955.952 1366.04 956.026C1365.99 956.031 1365.95 956.052 1365.92 956.078C1365.62 956.052 1365.32 956.041 1365.02 956.062C1364.19 956.11 1363.62 957.054 1364.3 957.631C1365.48 958.628 1366.83 958.922 1368.32 959.531C1370.01 960.223 1371.65 961.015 1373.31 961.787C1375 962.574 1376.73 963.419 1378.54 963.964C1378.91 965.355 1379.49 966.782 1379.78 967.821C1380.62 970.78 1381.35 973.797 1382.39 976.698C1382.46 976.877 1382.55 977.029 1382.66 977.165C1382.83 977.758 1383 978.357 1383.16 978.949C1383.26 979.332 1383.49 979.584 1383.75 979.731C1383.74 980.34 1383.75 980.933 1383.83 981.51C1383.9 981.951 1384.56 982.223 1384.84 981.757C1386.65 978.808 1386.93 974.673 1387.72 971.394C1388.41 968.487 1389.17 965.58 1389.84 962.663C1393.83 962.521 1397.96 961.734 1401.75 960.722C1402.7 960.937 1403.65 961.063 1404.54 961.026C1405.93 960.973 1406.62 959.211 1405.28 958.565H1405.29Z" fill="#F4F4F4"/>
<path d="M1242.08 444.235C1241.94 444.118 1241.79 444.002 1241.65 443.88C1239.32 441.929 1235 443.481 1235 446.001C1235 448.521 1239.32 450.068 1241.65 448.122C1241.79 448.005 1241.94 447.889 1242.08 447.767C1243.3 446.745 1243.31 445.257 1242.08 444.23V444.235Z" fill="#F0903F"/>
<path d="M882.193 152.647C882.072 152.491 881.944 152.336 881.823 152.173C879.777 149.572 876 151.642 876 155.001C876 158.361 879.782 160.424 881.823 157.829C881.944 157.674 882.072 157.518 882.193 157.356C883.266 155.994 883.272 154.009 882.193 152.64V152.647Z" fill="#F0903F"/>
<path d="M1393.97 205.644C1393.53 205.221 1392.99 204.898 1392.49 204.545C1391.81 204.182 1391.09 204 1390.31 204C1389.53 204 1388.8 204.187 1388.14 204.545C1386.83 205.256 1386 206.588 1386 208C1386 209.412 1386.83 210.744 1388.14 211.455C1388.81 211.818 1389.53 212 1390.31 212C1391.09 212 1391.82 211.813 1392.49 211.455C1392.99 211.102 1393.53 210.774 1393.97 210.356C1395.34 209.059 1395.34 206.956 1393.97 205.654V205.644Z" fill="#F0903F"/>
<path d="M1213.64 81.978C1213.13 81.3921 1212.6 80.801 1212.09 80.2151C1211.47 79.511 1210.45 78.961 1209.27 79.0022C1208.41 79.033 1207.58 79.2489 1206.96 79.7217C1206.37 80.1637 1206 80.8267 1206 81.4538C1206 82.3532 1206.64 83.0881 1207.62 83.5661C1208.4 83.9516 1209.19 84.3422 1209.97 84.7277C1210.92 85.1954 1212.45 85.0412 1213.21 84.4142C1213.99 83.782 1214.3 82.7438 1213.63 81.9831L1213.64 81.978Z" fill="#F0903F"/>
<path d="M131.801 348.388C131.708 348.311 131.615 348.233 131.522 348.156C129.955 346.842 127.215 346.533 125.509 347.832C125.288 347.888 125.08 347.96 124.871 348.043C123.309 348.336 121.922 349.424 122.003 350.969C122.085 352.535 123.205 353.55 124.784 353.875C125.01 353.973 125.248 354.055 125.497 354.122C126.258 354.668 127.448 355.029 128.33 354.998C129.555 354.952 130.611 354.571 131.522 353.823L131.801 353.597C133.42 352.278 133.379 349.712 131.801 348.388V348.388Z" fill="#F0903F"/>
<path d="M979.708 181.147C979.35 180.739 978.986 180.439 978.381 180.297C978.249 180.267 978.112 180.245 977.981 180.22C977.696 180.164 977.412 180.112 977.122 180.056C975.569 179.76 974 180.662 974 181.998C974 182.513 974.274 183.054 974.721 183.419C975.364 183.943 976.254 184.102 977.122 183.939C977.407 183.883 977.691 183.831 977.981 183.775C978.112 183.75 978.249 183.728 978.381 183.698C978.992 183.552 979.35 183.256 979.708 182.848C980.097 182.401 980.097 181.594 979.708 181.152V181.147Z" fill="#F0903F"/>
<path d="M625.966 25.8901C625.757 24.3937 625.584 23.1308 624.185 22.1491C622.889 21.2417 621.257 21.332 619.913 20.6315C618.485 19.8939 617.296 18.2755 616.184 17.2089C614.971 16.0415 613.752 14.8794 612.539 13.712C607.682 9.05298 602.859 4.35152 597.936 -0.254422C588.082 -9.461 578.307 -18.7419 568.43 -27.9272C568.197 -28.1448 567.856 -27.8264 568.065 -27.6035C577.178 -17.9937 586.445 -8.50054 595.54 1.12524C600.015 5.86384 604.646 10.5016 609.211 15.1712C611.428 17.4424 613.681 19.687 615.85 21.9953C616.28 22.4887 616.728 22.961 617.206 23.4227C617.164 23.7198 617.117 24.0117 617.075 24.3088C617.236 24.9244 617.284 25.4975 617.547 26.0971C618.294 27.8111 619.542 28.5274 621.484 28.9254C623.48 29.334 626.277 28.0286 625.978 25.8848L625.966 25.8901Z" fill="#F0903F"/>
<path d="M1456.9 82.3382C1455.53 78.3685 1450.95 75.2088 1448.06 72.0917C1444.77 68.5483 1441.55 64.9623 1438.25 61.4349C1431.33 54.0497 1425.42 45.7535 1419.41 37.7609C1407.72 22.2339 1396.62 6.32865 1385.94 -9.77907C1385.6 -10.2853 1384.75 -9.83236 1385.07 -9.31551C1395.42 7.18119 1406.53 23.241 1418.26 38.9491C1424.02 46.6486 1430.25 54.0924 1435.78 61.9198C1438.54 65.8255 1441.33 69.7045 1444.22 73.5356C1445.66 75.4485 1447.08 77.3721 1448.47 79.317C1449.94 81.3791 1451.14 83.4145 1453.5 84.7199C1455.2 85.6524 1457.5 84.1019 1456.9 82.3435L1456.9 82.3382Z" fill="#F4F4F4"/>
<path d="M1397.19 644.242C1396.83 644.442 1396.46 644.641 1396.1 644.841C1395.71 645.054 1395.34 645.207 1395.1 645.62C1394.97 645.833 1394.97 646.167 1395.1 646.38C1395.35 646.793 1395.71 646.946 1396.1 647.159C1396.46 647.359 1396.83 647.558 1397.19 647.758C1398.43 648.444 1400 647.612 1400 646C1400 644.388 1398.43 643.556 1397.19 644.242V644.242Z" fill="#F4F4F4"/>
<path d="M1471 473C1469.67 473 1469.66 475 1471 475C1472.33 475 1472.33 473 1471 473Z" fill="#F0903F"/>
<path d="M1468.98 903.022C1468.32 902.414 1467.45 901.959 1466.53 902.003L1465.6 902.129C1465.01 902.293 1464.5 902.595 1464.07 903.027C1463.71 903.312 1463.33 903.586 1462.99 903.887C1462.65 904.189 1462.35 904.556 1462.05 904.895C1461.41 905.602 1461 906.473 1461 907.437C1461 908.319 1461.39 909.376 1462.05 909.979C1463.54 911.349 1465.64 911.332 1467.12 909.979C1467.46 909.672 1467.83 909.382 1468.13 909.037C1468.43 908.692 1468.7 908.314 1468.98 907.952C1469.58 907.202 1470 906.489 1470 905.487C1470 904.632 1469.62 903.608 1468.98 903.022V903.022Z" fill="#F0903F"/>
<path d="M1212.5 957C1207.84 957 1207.83 962 1212.5 962C1217.17 962 1217.17 957 1212.5 957Z" fill="#F4F4F4"/>
<path d="M1074 472C1070 472 1070 478 1074 478C1078 478 1078 472 1074 472Z" fill="#F4F4F4"/>
<path d="M1293.5 754C1290.17 754 1290.16 758 1293.5 758C1296.83 758 1296.83 754 1293.5 754Z" fill="#F0903F"/>
<path d="M622.999 178C619.004 178 618.997 182 622.999 182C627 182 627 178 622.999 178Z" fill="#F0903F"/>
<path d="M818.999 10C815.004 10 814.997 15 818.999 15C823 15 823 10 818.999 10Z" fill="#F0903F"/>
<path d="M703.499 870C698.836 870 698.831 876 703.499 876C708.167 876 708.167 870 703.499 870Z" fill="#F4F4F4"/>
<path d="M498.99 881.831C498.848 880.756 498.259 880.153 497.172 880.012C496.571 879.932 495.957 880.27 495.404 880.59C494.649 880.725 494.053 881.21 493.415 881.684C492.61 882.28 491.953 883.073 492.003 884.148C492.039 884.904 492.291 885.623 492.838 886.164C493.353 886.68 494.121 887 494.851 887C495.938 887 496.7 886.422 497.313 885.586C497.78 884.953 498.265 884.351 498.406 883.595C498.732 883.036 499.063 882.421 498.99 881.819V881.831Z" fill="#F4F4F4"/>
<path d="M489.499 290C486.17 290 486.164 294 489.499 294C492.834 294 492.834 290 489.499 290Z" fill="#F0903F"/>
<path d="M983.07 952.462C982.304 952.241 981.445 952.115 980.632 952.029C979.797 951.943 978.897 952.07 978.061 952.124C976.471 952.227 974.922 953.143 975.003 954.5C975.084 955.875 976.349 956.768 978.061 956.876C978.903 956.93 979.797 957.057 980.632 956.971C981.439 956.885 982.304 956.764 983.07 956.538C985.641 955.79 985.646 953.21 983.07 952.457V952.462Z" fill="#F0903F"/>
<path d="M798.499 949C795.17 949 795.164 954 798.499 954C801.834 954 801.834 949 798.499 949Z" fill="#F0903F"/>
<path d="M302.876 960.045C301.834 960.456 300.901 961.112 299.936 961.728C298.839 962.436 298.701 964.324 299.55 965.344C300.394 966.357 301.971 966.192 302.561 964.88C303.08 963.721 303.62 962.602 303.962 961.35C304.166 960.595 303.505 959.8 302.876 960.045V960.045Z" fill="#F0903F"/>
<path d="M564.992 866.389L564.805 864.448C564.738 863.79 564.533 863.201 563.984 862.717C563.495 862.291 562.699 861.975 561.999 862.002C560.375 862.065 559.325 863.08 559.193 864.448L559.006 866.389C558.945 867.02 559.386 867.799 559.881 868.235C560.375 868.672 561.25 869.03 561.999 868.998C563.507 868.94 565.13 867.846 564.992 866.389V866.389Z" fill="#F0903F"/>
<path d="M826.932 672.291C825.391 671.025 823.178 670.642 821.218 671.357C820.36 671.674 819.695 672.109 819.125 672.752C818.442 673.515 817.95 674.5 818.004 675.496C818.088 677.073 818.987 678.587 820.594 679.401C822.639 680.438 825.247 680.081 826.932 678.696C828.017 677.804 829 676.917 829 675.496C829 674.075 828.011 673.183 826.932 672.296V672.291Z" fill="#F4F4F4"/>
<path d="M92.5955 961.129C92.1494 960.572 91.7034 960.014 91.2574 959.457C90.5883 958.621 89.5943 957.952 88.3581 958.003C87.466 958.036 86.6249 958.304 85.9813 958.861C85.3696 959.396 85 960.187 85 960.939C85 962.043 85.6691 962.867 86.6631 963.475C87.3003 963.865 87.9375 964.255 88.5747 964.645C88.8105 964.734 89.0463 964.818 89.2757 964.907C89.6644 965.013 90.0594 965.029 90.4481 964.951C91.0662 964.879 91.7034 964.656 92.1367 964.244C92.4808 963.915 92.7357 963.53 92.895 963.107C93.1053 962.539 92.9969 961.625 92.5955 961.123V961.129Z" fill="#F0903F"/>
<path d="M874.499 404C871.17 404 871.164 408 874.499 408C877.834 408 877.834 404 874.499 404Z" fill="#F0903F"/>
<path d="M883.836 827.855L883.104 825.88C882.722 824.846 881.734 823.948 880.5 824.002C879.249 824.056 878.307 824.771 877.895 825.88L877.164 827.855C876.41 829.89 878.375 832 880.5 832C882.625 832 884.59 829.884 883.836 827.855V827.855Z" fill="#F0903F"/>
<path d="M1088.87 709.908C1088.14 709.368 1087.17 708.964 1086.14 709.003L1085.12 709.115C1084.46 709.261 1083.89 709.528 1083.41 709.913C1083.01 710.166 1082.58 710.41 1082.21 710.678C1081.83 710.945 1081.5 711.272 1081.17 711.574C1080.46 712.202 1080 712.976 1080 713.833C1080 714.617 1080.44 715.557 1081.17 716.092C1082.82 717.31 1085.15 717.295 1086.8 716.092C1087.18 715.82 1087.58 715.562 1087.92 715.255C1088.26 714.948 1088.56 714.612 1088.87 714.291C1089.53 713.624 1090 712.991 1090 712.1C1090 711.34 1089.58 710.429 1088.87 709.908V709.908Z" fill="#F0903F"/>
<path d="M1129.98 671.908C1129.32 671.368 1128.45 670.964 1127.53 671.003L1126.6 671.115C1126.01 671.261 1125.5 671.528 1125.07 671.913C1124.71 672.166 1124.33 672.41 1123.99 672.678C1123.65 672.945 1123.35 673.272 1123.05 673.574C1122.41 674.202 1122 674.976 1122 675.833C1122 676.617 1122.39 677.557 1123.05 678.092C1124.54 679.31 1126.64 679.295 1128.12 678.092C1128.46 677.82 1128.83 677.562 1129.13 677.255C1129.43 676.948 1129.7 676.612 1129.98 676.291C1130.58 675.624 1131 674.991 1131 674.1C1131 673.34 1130.62 672.429 1129.98 671.908V671.908Z" fill="#F0903F"/>
<path d="M111.078 261.235C110.939 261.118 110.794 261.002 110.655 260.88C108.316 258.929 104 260.481 104 263.001C104 265.521 108.323 267.068 110.655 265.122C110.794 265.005 110.939 264.889 111.078 264.767C112.304 263.745 112.31 262.257 111.078 261.23V261.235Z" fill="#F0903F"/>
<path d="M266.191 462.242C265.831 462.442 265.464 462.641 265.104 462.841C264.713 463.054 264.34 463.207 264.096 463.62C263.968 463.833 263.968 464.167 264.096 464.38C264.347 464.793 264.713 464.946 265.104 465.159C265.464 465.359 265.831 465.558 266.191 465.758C267.431 466.444 269 465.612 269 464C269 462.388 267.431 461.556 266.191 462.242V462.242Z" fill="#F4F4F4"/>
<path d="M339.999 290C338.669 290 338.665 292 339.999 292C341.334 292 341.334 290 339.999 290Z" fill="#F0903F"/>
<path d="M52.9842 719.022C52.3234 718.414 51.4496 717.959 50.5267 718.003L49.6038 718.129C49.014 718.293 48.5006 718.595 48.0692 719.027C47.7087 719.312 47.3265 719.586 46.9879 719.887C46.6493 720.189 46.3544 720.556 46.0485 720.895C45.4096 721.602 45 722.473 45 723.437C45 724.319 45.3932 725.376 46.0485 725.979C47.5394 727.349 49.6365 727.332 51.122 725.979C51.4606 725.672 51.8265 725.382 52.1268 725.037C52.4326 724.692 52.7002 724.314 52.9842 723.952C53.5795 723.202 54 722.489 54 721.487C54 720.632 53.6232 719.608 52.9842 719.022V719.022Z" fill="#F0903F"/>
<path d="M1134.22 213.6C1133.84 213.279 1133.48 213.047 1133.03 212.842C1132.76 212.72 1132.5 212.598 1132.23 212.476C1131.69 212.161 1131.1 212 1130.48 212C1129.85 212 1129.26 212.161 1128.72 212.476C1127.67 213.102 1127 214.265 1127 215.5C1127 216.735 1127.67 217.903 1128.72 218.524C1129.27 218.839 1129.85 219 1130.48 219C1131.1 219 1131.69 218.839 1132.23 218.524C1132.5 218.402 1132.76 218.28 1133.03 218.158C1133.5 217.948 1133.81 217.743 1134.22 217.4C1135.26 216.525 1135.26 214.475 1134.22 213.6V213.6Z" fill="#F0903F"/>
<path d="M567.499 739C564.17 739 564.164 744 567.499 744C570.834 744 570.834 739 567.499 739Z" fill="#F0903F"/>
<path d="M218.82 800.625C218.38 799.7 217.462 799.264 216.641 798.753C215.863 798.269 215.085 797.79 214.307 797.305C213.175 796.604 211.683 797.175 211.184 798.372C210.631 799.7 211.388 800.886 212.611 801.386C213.448 801.729 214.286 802.072 215.123 802.415C216.083 802.807 216.84 803.144 217.897 802.937C218.954 802.73 219.223 801.468 218.825 800.625H218.82Z" fill="#F0903F"/>
<path d="M270.995 -3.40725L270.868 -5.73814C270.818 -6.60355 270.579 -7.41213 270.028 -8.04382C269.534 -8.60602 268.717 -9.03557 268 -8.99767C266.366 -8.91555 265.232 -7.56372 265.132 -5.73814L265.005 -3.40725C264.905 -1.62589 266.45 0.0733578 268 -0.00244469C269.539 -0.0782472 271.095 -1.49955 270.995 -3.40725V-3.40725Z" fill="#F0903F"/>
<path d="M522.998 648C521.653 648 520.767 649.112 521.054 650.218C521.219 650.866 521.389 651.493 521.63 652.12C522.082 653.293 523.92 653.293 524.372 652.12C524.613 651.493 524.783 650.866 524.947 650.218C525.229 649.112 524.354 648 523.004 648H522.998Z" fill="#F0903F"/>
<path d="M766.999 294C763.003 294 762.997 300 766.999 300C771 300 771 294 766.999 294Z" fill="#F0903F"/>
<path d="M12.1472 824.768C11.5559 824.296 10.8247 824 10.0045 824C9.22885 824 8.40868 824.291 7.86189 824.768C7.05443 825.464 6.87007 826.375 7.07988 827.313C7.23883 828.004 7.39778 828.7 7.55673 829.392C7.76654 830.291 8.95545 831.037 9.99816 830.999C11.0599 830.96 12.2171 830.357 12.4396 829.392C12.5986 828.7 12.7575 828.004 12.9165 827.313C13.1263 826.413 12.9674 825.426 12.1345 824.768H12.1472Z" fill="#F0903F"/>
<path d="M714.876 519.038C713.834 519.38 712.901 519.926 711.936 520.44C710.839 521.03 710.701 522.603 711.55 523.453C712.394 524.298 713.971 524.16 714.561 523.067C715.08 522.101 715.62 521.168 715.962 520.125C716.166 519.496 715.505 518.834 714.876 519.038V519.038Z" fill="#F0903F"/>
<path d="M23.9942 340C23.8667 339.132 23.745 338.259 23.6174 337.392C23.3333 336.551 22.9622 335.743 22.5099 334.978C21.9822 334.223 21.2864 333.479 20.6776 332.779C20.5152 332.596 20.3587 332.412 20.1963 332.229C19.3962 331.658 18.6018 331.081 17.8016 330.51C16.8623 330.138 15.9171 329.772 14.9778 329.4C13.4065 328.942 11.8351 328.877 10.2637 329.206C9.19684 329.206 8.1995 329.459 7.27756 329.955C6.27445 330.214 5.40469 330.688 4.6683 331.367C3.78115 331.857 3.07373 332.515 2.54608 333.339C1.81548 334.024 1.30523 334.832 1.02691 335.764C0.284718 337.074 -0.0515931 338.486 0.00639057 340C0.145551 340.975 0.290499 341.945 0.42966 342.921C0.829747 343.794 1.22407 344.672 1.62416 345.545C2.23878 346.289 2.85918 347.027 3.4738 347.771L5.86853 349.49C6.80787 349.862 7.753 350.228 8.69233 350.6C10.2637 351.058 11.835 351.123 13.4064 350.794C14.4733 350.794 15.4706 350.541 16.3926 350.045C17.8596 349.603 19.1294 348.843 20.1963 347.771C20.3587 347.588 20.5152 347.404 20.6776 347.221C21.2922 346.515 22.162 345.637 22.5099 345.022C22.7476 344.629 22.939 344.214 23.0839 343.778C23.7449 342.608 24.0464 341.347 23.9942 340V340Z" fill="#F4F4F4"/>
<path d="M172.499 223C169.17 223 169.164 227 172.499 227C175.834 227 175.834 223 172.499 223Z" fill="#F0903F"/>
<path d="M206.497 581C204.816 581 203.708 582.112 204.068 583.218C204.273 583.866 204.486 584.493 204.787 585.12C205.352 586.293 207.65 586.293 208.215 585.12C208.516 584.493 208.728 583.866 208.934 583.218C209.286 582.112 208.193 581 206.505 581H206.497Z" fill="#F0903F"/>
<path d="M397.876 452.038C396.834 452.38 395.901 452.926 394.936 453.44C393.839 454.03 393.701 455.603 394.55 456.453C395.394 457.298 396.971 457.16 397.561 456.067C398.08 455.101 398.62 454.168 398.962 453.125C399.166 452.496 398.505 451.834 397.876 452.038V452.038Z" fill="#F0903F"/>
<path d="M395.709 616.739C395.315 616.251 394.921 615.763 394.527 615.276C393.936 614.544 393.058 613.958 391.966 614.002C391.178 614.032 390.435 614.266 389.867 614.754C389.326 615.222 389 615.915 389 616.573C389 617.539 389.591 618.261 390.469 618.793C391.032 619.134 391.594 619.476 392.157 619.817C392.366 619.895 392.574 619.968 392.776 620.046C393.12 620.139 393.469 620.154 393.812 620.085C394.358 620.022 394.921 619.827 395.303 619.466C395.607 619.178 395.832 618.841 395.973 618.471C396.159 617.973 396.063 617.173 395.709 616.734V616.739Z" fill="#F0903F"/>
<path d="M562.019 155.177C561.687 155.323 561.349 155.47 561.017 155.616C560.657 155.772 560.314 155.884 560.089 156.187C559.97 156.343 559.97 156.587 560.089 156.743C560.319 157.045 560.657 157.158 561.017 157.314C561.349 157.46 561.687 157.606 562.019 157.753C563.161 158.255 564.608 157.645 564.608 156.465C564.608 155.284 563.161 154.675 562.019 155.177V155.177Z" fill="#F4F4F4"/>
<path d="M306.228 179.91C305.547 179.368 304.647 178.964 303.695 179.003L302.744 179.115C302.137 179.261 301.608 179.529 301.163 179.915C300.791 180.168 300.398 180.412 300.049 180.681C299.7 180.949 299.396 181.276 299.081 181.578C298.422 182.208 298 182.983 298 183.842C298 184.627 298.405 185.569 299.081 186.105C300.617 187.325 302.778 187.31 304.309 186.105C304.658 185.832 305.035 185.573 305.344 185.266C305.66 184.959 305.935 184.622 306.228 184.3C306.842 183.632 307.275 182.998 307.275 182.105C307.275 181.344 306.887 180.432 306.228 179.91V179.91Z" fill="#F0903F"/>
<path d="M517.201 468.25C516.74 467.42 515.778 467.03 514.916 466.571C514.1 466.137 513.284 465.708 512.468 465.274C511.281 464.645 509.716 465.157 509.193 466.23C508.613 467.42 509.407 468.484 510.69 468.932C511.568 469.24 512.446 469.547 513.324 469.854C514.331 470.206 515.125 470.508 516.233 470.323C517.342 470.137 517.623 469.006 517.207 468.25H517.201Z" fill="#F0903F"/>
<path d="M636.955 303.033C635.891 303.336 634.94 303.819 633.955 304.272C632.836 304.794 632.695 306.185 633.561 306.936C634.423 307.682 636.032 307.56 636.634 306.594C637.163 305.741 637.715 304.916 638.064 303.994C638.272 303.438 637.597 302.853 636.955 303.033V303.033Z" fill="#F0903F"/>
<path d="M1039.71 757.739C1039.31 757.251 1038.92 756.763 1038.53 756.276C1037.94 755.544 1037.06 754.958 1035.97 755.002C1035.18 755.032 1034.44 755.266 1033.87 755.754C1033.33 756.222 1033 756.915 1033 757.573C1033 758.539 1033.59 759.261 1034.47 759.793C1035.03 760.134 1035.59 760.476 1036.16 760.817C1036.37 760.895 1036.57 760.968 1036.78 761.046C1037.12 761.139 1037.47 761.154 1037.81 761.085C1038.36 761.022 1038.92 760.827 1039.3 760.466C1039.61 760.178 1039.83 759.841 1039.97 759.471C1040.16 758.973 1040.06 758.173 1039.71 757.734V757.739Z" fill="#F0903F"/>
<path d="M1206.02 296.177C1205.69 296.323 1205.35 296.47 1205.02 296.616C1204.66 296.772 1204.31 296.884 1204.09 297.187C1203.97 297.343 1203.97 297.587 1204.09 297.743C1204.32 298.045 1204.66 298.158 1205.02 298.314C1205.35 298.46 1205.69 298.606 1206.02 298.753C1207.16 299.255 1208.61 298.645 1208.61 297.465C1208.61 296.284 1207.16 295.675 1206.02 296.177V296.177Z" fill="#F4F4F4"/>
<path d="M950.228 320.91C949.547 320.368 948.647 319.964 947.695 320.003L946.744 320.115C946.137 320.261 945.608 320.529 945.163 320.915C944.791 321.168 944.398 321.412 944.049 321.681C943.7 321.949 943.396 322.276 943.081 322.578C942.422 323.208 942 323.983 942 324.842C942 325.627 942.405 326.569 943.081 327.105C944.617 328.325 946.778 328.31 948.309 327.105C948.658 326.832 949.035 326.573 949.344 326.266C949.66 325.959 949.935 325.622 950.228 325.3C950.842 324.632 951.275 323.998 951.275 323.105C951.275 322.344 950.887 321.432 950.228 320.91V320.91Z" fill="#F0903F"/>
<path d="M1161.2 609.25C1160.74 608.42 1159.78 608.03 1158.92 607.571C1158.1 607.137 1157.28 606.708 1156.47 606.274C1155.28 605.645 1153.72 606.157 1153.19 607.23C1152.61 608.42 1153.41 609.484 1154.69 609.932C1155.57 610.24 1156.45 610.547 1157.32 610.854C1158.33 611.206 1159.12 611.508 1160.23 611.323C1161.34 611.137 1161.62 610.006 1161.21 609.25H1161.2Z" fill="#F0903F"/>
<path d="M1280.96 444.033C1279.89 444.336 1278.94 444.819 1277.96 445.272C1276.84 445.794 1276.69 447.185 1277.56 447.936C1278.42 448.682 1280.03 448.56 1280.63 447.594C1281.16 446.741 1281.71 445.916 1282.06 444.994C1282.27 444.438 1281.6 443.853 1280.96 444.033V444.033Z" fill="#F0903F"/>
</svg>
