<svg width="256" height="256" viewBox="0 0 256 256" fill="none" xmlns="http://www.w3.org/2000/svg">
<path d="M100.272 29.864V128H88.856V220.424L128 240L151.648 128L128 16L100.272 29.864Z" fill="#9D5025"/>
<path d="M128 16V128V240L155.728 226.136V128H167.144V35.576L128 16Z" fill="#F58536"/>
<path d="M208.736 99.4559L159.264 104.08L142.952 102.176L194.6 49.4399L208.736 99.4559Z" fill="#6B3A19"/>
<path d="M194.6 49.4399L208.736 56.5039V99.4559L194.6 96.4639V49.4399Z" fill="#F58536"/>
<path d="M142.952 102.176L194.6 96.4639V49.4399L142.952 63.3039V102.176Z" fill="#9D5025"/>
<path d="M47.2642 156.544L96.7362 151.92L113.048 153.824L61.4002 206.56L47.2642 156.544Z" fill="#FBBF93"/>
<path d="M61.4002 206.56L47.2642 199.496V156.544L61.4002 159.536V206.56Z" fill="#9D5025"/>
<path d="M113.048 153.824L61.3999 159.536V206.56L113.048 192.696V153.824Z" fill="#F58536"/>
</svg>
