<svg width="70" height="87" viewBox="0 0 70 87" fill="none" xmlns="http://www.w3.org/2000/svg">
<path d="M69.0143 84.5438C67.703 80.9095 63.302 78.0168 60.5274 75.163C57.3757 71.9191 54.2803 68.6361 51.1118 65.4067C44.4764 58.6456 38.8035 51.0503 33.0292 43.733C21.8127 29.518 11.159 14.9567 0.90486 0.20995C0.584067 -0.253476 -0.237638 0.161166 0.0718997 0.634349C10.0052 15.7372 20.6702 30.44 31.9318 44.8209C37.4528 51.8698 43.4353 58.6846 48.7425 65.8506C51.3932 69.4263 54.0721 72.9776 56.8467 76.485C58.2312 78.2363 59.5875 79.9973 60.9213 81.7779C62.3339 83.6657 63.4877 85.5291 65.7558 86.7243C67.3822 87.578 69.594 86.1584 69.02 84.5486L69.0143 84.5438Z" fill="#F4F4F4"/>
</svg>
