<svg width="256" height="256" viewBox="0 0 256 256" fill="none" xmlns="http://www.w3.org/2000/svg">
<path d="M91.9767 177.851C78.4186 165.09 70.4432 147.544 70.4432 127.606C70.4432 107.667 78.4186 90.1216 91.1792 77.361C102.345 66.1955 102.345 48.6497 91.1792 37.4842C80.0137 26.3187 62.4679 26.3187 51.3024 37.4842C28.9714 60.6128 14.6157 92.5142 14.6157 127.606C14.6157 162.697 28.9714 194.599 52.0999 217.727C63.2654 228.893 80.8112 228.893 91.9767 217.727C102.345 206.562 102.345 189.016 91.9767 177.851Z" fill="#FAE501"/>
<path d="M91.9765 77.361C104.737 63.8029 122.283 55.8275 142.221 55.8275C162.16 55.8275 179.705 63.8029 192.466 76.5635C203.632 87.729 221.177 87.729 232.343 76.5635C243.508 65.398 243.508 47.8522 232.343 36.6867C209.214 14.3556 177.313 0 142.221 0C107.13 0 75.2283 14.3556 52.0997 37.4842C40.9342 48.6497 40.9342 66.1955 52.0997 77.361C63.2652 87.729 80.811 87.729 91.9765 77.361Z" fill="#4FB5E1"/>
<path d="M192.466 177.85C179.705 191.409 162.16 199.384 142.221 199.384C122.283 199.384 104.737 191.409 91.9765 178.648C80.811 167.482 63.2652 167.482 52.0997 178.648C40.9342 189.813 40.9342 207.359 52.0997 218.525C75.2283 240.856 107.13 255.211 142.221 255.211C177.313 255.211 209.214 240.856 232.343 217.727C243.508 206.562 243.508 189.016 232.343 177.85C221.177 167.482 203.632 167.482 192.466 177.85Z" fill="#F05751"/>
<path d="M72.0383 85.3363C87.4546 85.3363 99.952 72.8389 99.952 57.4226C99.952 42.0062 87.4546 29.5088 72.0383 29.5088C56.6219 29.5088 44.1245 42.0062 44.1245 57.4226C44.1245 72.8389 56.6219 85.3363 72.0383 85.3363Z" fill="#0681B6"/>
<path d="M72.0383 225.703C87.4546 225.703 99.952 213.205 99.952 197.789C99.952 182.373 87.4546 169.875 72.0383 169.875C56.6219 169.875 44.1245 182.373 44.1245 197.789C44.1245 213.205 56.6219 225.703 72.0383 225.703Z" fill="#CD4739"/>
</svg>
