<svg width="256" height="256" viewBox="0 0 256 256" fill="none" xmlns="http://www.w3.org/2000/svg">
<path d="M57.6035 201.906L32.897 207.543V47.5376L57.6035 53.1853V201.906Z" fill="#F68536"/>
<path d="M88.4292 211.349L57.6035 220.11V35.1892L88.4292 43.9386V211.349Z" fill="#F68536"/>
<path d="M127.972 221.053L88.4292 235.524V19.7747L127.972 34.2395V221.053Z" fill="#F68536"/>
<path d="M233.703 202.388L127.972 255.253V0L233.703 52.8656V202.388Z" fill="#F68536"/>
<path d="M106.896 10.5398L127.972 0V255.253L106.896 244.717V10.5398Z" fill="#9D5025"/>
<path d="M72.1138 27.9288L88.4292 19.7715V235.482L72.1138 227.325V27.9288Z" fill="#9D5025"/>
<path d="M44.6069 41.6843L57.6035 35.186V220.068L44.6069 213.565V41.6843Z" fill="#9D5025"/>
<path d="M32.8969 47.5376L22.2969 52.8376V202.419L32.8969 207.716V47.5376Z" fill="#9D5025"/>
</svg>
