<svg width="256" height="256" viewBox="0 0 256 256" fill="none" xmlns="http://www.w3.org/2000/svg">
<path d="M0 214.229C0.458667 219.883 2.45333 225.568 7.65867 233.195C13.8453 242.251 24.4693 247.221 32.224 239.243C37.4507 233.856 94.0267 134.965 121.291 97.4827C122.039 96.411 123.035 95.5359 124.193 94.9316C125.352 94.3273 126.64 94.0117 127.947 94.0117C129.254 94.0117 130.541 94.3273 131.7 94.9316C132.859 95.5359 133.855 96.411 134.603 97.4827C161.867 134.965 218.443 233.856 223.669 239.243C231.424 247.221 242.048 242.251 248.235 233.195C254.315 224.288 256 218.048 256 211.371C256 206.827 167.893 42.8587 159.019 29.2053C150.485 16.0853 147.883 13.2267 133.451 12.7573H122.443C108.011 13.2267 105.408 16.0747 96.864 29.2053C88.1813 42.5707 3.52 200.085 0 210.88V214.229Z" fill="#BCC3CD"/>
</svg>
