<svg width="335" height="200" viewBox="0 0 335 200" fill="none" xmlns="http://www.w3.org/2000/svg">
<path d="M1.11 157.305C1.07 157.415 1.03 157.525 0.95 157.635C0.73 157.925 0.42 158.125 0.12 158.315C0.09 158.365 0.05 158.415 0.02 158.465V199.995H0.96L1.11 157.305Z" fill="#D9D7D5"/>
<path d="M328.56 144.705C326.16 139.945 323.23 135.835 320.18 131.495C317.35 127.465 313.39 124.615 309.82 121.435C306.48 118.465 303.65 113.875 302.85 109.305C301 98.6553 304.49 88.5353 309.25 79.3253C311.99 74.0353 313.23 67.3853 314.55 61.5353C315.85 55.7453 316.22 48.9053 314.69 43.1453C313.14 37.2853 309.08 32.5853 304.64 29.0353C301.72 26.7053 299.21 23.5353 296.11 21.4053C295.9 21.5753 295.61 21.6353 295.32 21.4853C286.7 17.1953 275.8 17.3053 266.66 19.3653C258.35 21.2453 250.22 24.2453 242.57 28.2053C239.34 29.8753 236.08 30.8453 232.71 32.1153C229.08 33.4853 225.08 34.6953 221.27 35.2553C213.84 36.3453 206.17 37.9353 198.66 37.9653C195.04 37.9753 191.44 37.8653 187.85 37.2953C184.07 36.6953 180.63 35.3453 177.02 34.0653C170.22 31.6753 164.34 26.6853 157.42 24.5153C149.94 22.1653 142.15 20.9053 134.32 21.2053C126.22 21.5053 118.55 23.4753 110.74 25.6553C107.02 26.6953 103.27 27.5753 99.46 28.0653C97.64 28.2953 95.84 28.7753 94.01 28.8553C93.32 28.8853 92.63 28.8653 91.93 28.8353C91.3 28.9353 90.69 28.8653 90.05 28.7553C89.77 28.7453 89.48 28.7353 89.2 28.7353C88.97 28.7353 88.76 28.7253 88.55 28.7153C88.57 28.6453 88.61 28.5753 88.63 28.4953C87.15 28.2553 85.54 28.1653 84.09 28.1453C83.98 28.1453 83.9 28.1153 83.82 28.0553C83.01 30.1353 82.16 32.1953 81.38 34.2953C83.6 34.0253 85.96 34.3553 88.25 34.8253C90.15 35.0253 92.02 35.3553 94.02 35.7553C97.07 36.3753 100.12 36.8953 102.3 39.4553C104.52 42.0553 107.18 44.1853 109.21 46.9753C111.69 50.3753 114.26 53.8253 117.22 56.7653C119.81 59.3253 122.93 60.7853 125.11 63.8053C127.48 67.0753 130.37 69.1453 133.96 70.6853C135.66 71.4153 137.54 71.9053 139.37 71.9753C141.22 72.0353 142.66 71.3153 144.36 70.6753C148.25 69.2153 151.91 67.9953 155.4 65.5453C161.83 61.0253 168.08 55.6353 175.38 52.8453C177.09 52.1953 178.77 51.4253 180.58 51.1253C182.44 50.8353 184.34 50.9953 186.22 51.0353C189.91 51.0853 193.38 50.6353 196.95 51.9553C200.47 53.2453 203.59 54.6653 206.76 56.7853C209.21 58.4153 212.39 60.5653 213.87 63.2753C214.77 64.9253 215.92 66.6353 216.58 68.4253C217.2 70.0853 217.39 72.0653 217.72 73.8353C218.49 77.9453 217.7 81.8753 217.64 86.0053C217.61 87.9653 217.71 89.6053 217.1 91.4953C216.44 93.5353 215.93 95.5853 215.37 97.6653C214.43 101.205 213.29 104.735 211.41 107.835C207.83 113.755 201.24 118.885 194.83 120.505C187.51 122.345 178.93 120.975 172.01 117.945C168.24 116.285 164.47 115.045 160.57 113.825C156.8 112.645 153.39 110.515 149.66 109.235C141.63 106.485 132.77 104.995 124.42 106.575C122.54 106.935 120.73 106.645 118.85 107.235C117.28 107.725 115.67 108.245 114.13 108.825C110.48 110.205 107.09 112.695 105.06 116.285C102.91 120.095 102.11 124.655 100.62 128.785C99.24 132.575 97.91 136.485 96.34 140.175C94.86 143.675 92.71 146.885 90.78 150.105C89.04 153.025 86.69 155.615 84 157.515C78 161.775 72.56 166.215 65 164.795C62.87 164.395 60.88 163.535 58.8 163.045C57.19 162.665 55.65 162.485 54.05 161.925C50.32 160.615 46.64 159.115 42.97 157.605C36.02 154.755 28.54 153.155 21.07 153.235C17.33 153.265 13.72 153.865 10.03 154.435C7.5 154.825 3.51 155.255 1.12 157.215C1.12 157.245 1.1 157.275 1.09 157.305L0.94 199.995H328.56V144.705Z" fill="#D9D7D5"/>
<path d="M84.86 21.6053C84.21 24.4653 82.92 27.2353 81.87 29.9053C81.06 31.9953 80.28 34.1653 79.61 36.3453C79.55 36.3853 79.51 36.4453 79.48 36.5353C79.41 36.8453 79.28 37.0853 79.15 37.3653C79.05 37.5953 78.99 37.8353 78.92 38.0953C78.86 38.1953 78.79 38.2853 78.74 38.3153C78.31 38.5953 77.73 38.2353 77.36 38.0453C76.59 37.6153 75.87 36.9853 75.16 36.4553C74.14 35.6953 73.3 34.5253 72.32 33.6953C72.6 32.9053 72.89 32.1253 73.2 31.3453C73.81 29.4553 74.57 27.6353 75.59 25.9253C75.88 25.3153 76.17 24.7053 76.46 24.0953C76.48 24.0653 76.49 24.0253 76.5 23.9953C76.54 23.9753 76.58 23.9353 76.6 23.8953C76.8 23.5753 76.98 23.3853 77.1 23.0053C77.28 22.4453 77.49 21.8953 77.67 21.3453C77.7 21.2653 77.73 21.1753 77.77 21.0853C77.85 21.0053 77.94 20.9153 78.03 20.8253C78.01 20.8153 77.99 20.8053 77.97 20.7953C78 20.7253 78.03 20.6653 78.05 20.6053C78.77 20.8253 79.68 20.8453 80.19 20.9453C81.66 21.2053 83.31 21.7053 84.85 21.6053H84.86Z" fill="#D9D7D5"/>
<path d="M74.55 16.1553C72.63 15.3053 70.84 14.2153 68.99 13.2153C65.44 11.2953 61.85 9.92534 58.03 8.74534C54.5 7.65534 50.92 6.48534 47.41 5.30534C46.01 4.83534 44.69 4.18534 43.32 3.61534C41.52 2.87534 39.31 1.54534 37.33 1.44534C37.21 1.44534 37.13 1.37534 37.09 1.29534C35.79 1.32534 34.49 1.37534 33.18 1.36534C31.85 1.36534 30.47 1.20534 29.1 1.14534C27.04 1.39534 25.16 2.06534 23.76 3.59534C22.74 5.21534 22.74 7.45534 23.43 9.87534C24.4 13.3453 27.73 15.9953 30.21 18.2753C30.34 18.3853 30.47 18.4953 30.59 18.6053C31.8 19.3553 33.3 19.7953 34.39 20.3553C36.15 21.2453 37.88 21.8553 39.75 22.4653C43.2 23.5953 46.51 25.3053 49.97 26.3453C53.56 27.4253 57.07 28.6253 60.48 30.2253C63.57 31.6753 66.87 33.9353 70.19 34.8653C70.35 34.0953 70.54 33.3053 70.77 32.5153C71.94 29.5053 73.27 26.5753 74.85 23.7853C75.62 22.4353 76.36 21.1053 77.06 19.7653C77.05 19.5853 77.14 19.4453 77.27 19.3653C77.55 18.8153 77.82 18.2653 78.07 17.7053C76.86 17.4353 75.6 16.6453 74.54 16.1753L74.55 16.1553ZM40.45 15.9853C38.13 18.2653 34.08 18.5453 31.87 15.7753C30.55 14.1253 29.23 10.1053 30.42 7.87534C30.67 6.16534 32.55 4.97534 33.93 4.36534C36.04 3.43534 38.72 3.02534 40.65 4.66534C42.1 5.88534 42.89 8.35534 42.91 10.2853C42.93 12.7653 42.08 14.3653 40.44 15.9853H40.45Z" fill="#D9D7D5"/>
<path d="M39.25 15.8153C37.55 17.3453 34.25 17.0353 32.72 15.2553C31.04 13.2953 30.41 9.17534 32.13 7.14534C32.22 7.03534 32.22 6.86534 32.17 6.74534C32.74 6.20534 33.46 5.85534 34.08 5.35534C34.11 5.32534 34.13 5.28534 34.14 5.25534C34.65 5.06534 35.15 4.91534 35.6 4.81534C38.16 4.19534 40.46 5.09534 41.45 7.88534C42.54 10.9853 41.51 13.7853 39.25 15.8253V15.8153Z" fill="#252523"/>
<path d="M1.11 156.155C0.73 156.395 0.36 156.665 0.01 156.945V199.995H0.96L1.11 156.155Z" fill="#AFAEAE"/>
<path d="M325.34 139.005C324.22 137.245 322.8 135.975 321.77 134.125C320.58 132.005 319.16 130.265 317.78 128.315C316.47 126.455 315.51 124.575 313.84 123.005C312.4 121.645 311.2 120.325 309.89 118.855C309.22 118.105 308.33 117.665 307.66 116.935C306.86 116.085 306.48 115.055 305.93 114.025C305.16 112.595 303.79 111.535 302.98 110.205C302.81 108.025 302.85 105.805 302.78 103.655C302.62 98.5253 304.45 93.2853 305.7 88.4053C305.72 88.3353 305.73 88.2753 305.75 88.2053C306.34 87.9453 306.87 87.4153 307.17 86.5453C308.53 82.5753 309.07 78.4053 310.72 74.4753C312.45 70.3553 313.35 66.0553 314.66 61.7553C315.88 57.7553 316.13 53.2553 315.93 49.0853C315.83 46.9253 315.93 44.6353 315.52 42.5053C315.37 41.7653 315.22 41.1153 314.79 40.4853C314.5 40.0553 313.99 39.7453 313.6 39.3753C312.52 37.1553 310.73 35.3253 309.27 33.3553C308.29 32.0353 307.26 30.7953 306.17 29.6353C305.04 28.0253 303.57 26.4953 302.28 25.2353C300.28 23.2953 298.43 21.8053 295.9 20.8153C295.41 20.6253 294.92 20.4353 294.42 20.2553C291.91 18.9053 289.22 17.9653 286.34 17.6053C282.79 17.1653 278.97 17.2953 275.41 17.5553C273.92 17.6653 272.55 18.1853 271.07 18.2353C269.53 18.2953 268.95 18.4453 267.52 19.0453C267.49 19.0553 267.48 19.0753 267.45 19.0853C267.07 19.1053 266.69 19.1353 266.31 19.1753C264.81 19.3453 263.45 20.0253 261.93 20.2153C261.66 20.2453 261.5 20.4653 261.46 20.7053C260.93 20.8753 260.4 21.0453 259.85 21.2153C258.06 21.7553 256.3 22.4753 254.53 23.0953C254.51 23.0953 254.49 23.1153 254.46 23.1253C252.56 23.6753 250.65 24.2553 248.85 25.0453C248.48 25.2053 248.26 25.5053 248.16 25.8353C247.13 26.1853 246.09 26.5353 245.06 26.8753C241.99 27.8953 238.94 28.8253 235.87 29.8453C233.72 30.5653 231.43 31.1453 229.31 32.0553C229 32.1253 228.68 32.1953 228.37 32.2753C224.74 33.1453 221.09 34.4953 217.38 35.0553C218.11 34.8653 218.9 34.8553 219.48 34.2953C219.57 34.2053 219.45 34.0453 219.35 34.1153C218.59 34.5953 217.45 34.6453 216.59 34.9053C215.5 35.2353 214.38 35.3953 213.29 35.7053C213.18 35.7353 213.18 35.8653 213.23 35.9353C211.71 36.3853 210.19 36.8753 208.66 36.9953C208.85 36.9253 209.03 36.8453 209.2 36.7553C209.4 36.6553 209.26 36.3253 209.05 36.3853C205.92 37.3153 202.52 36.9453 199.32 37.0853C196.46 37.2153 193.65 37.1653 190.8 37.2153C185.52 35.3953 179.93 34.4353 174.52 33.1453C174.49 33.1253 174.47 33.1053 174.44 33.0853C171.4 31.7953 168.73 29.6653 165.68 28.3353C162.91 27.1253 160.18 25.7553 157.49 24.3853C157.68 24.1553 157.61 23.7453 157.36 23.5853C154.92 21.9953 151 21.5953 148.26 21.2453C146.2 20.9853 144.11 21.3953 142.06 21.1053C140.05 20.8153 138.04 20.5353 136.01 20.4553C131.93 20.3053 128.12 20.6153 124.18 21.7953C122.78 22.2153 119.64 22.7953 117.9 24.1153C115.94 24.5153 113.97 24.9053 112 25.2753C105.98 26.3953 99.78 26.4953 93.79 27.6853C92.62 27.9153 90.99 28.0453 89.3 28.2853C88.23 28.1553 87.21 27.9153 86.07 27.7553C85.19 27.6353 84.18 27.7353 83.41 28.2453C83.65 27.6453 83.85 27.0353 83.94 26.3953C83.96 26.2953 83.88 26.2453 83.81 26.2453C84.25 25.1853 84.56 24.0253 84.5 22.9353C84.5 22.9353 84.5 22.9153 84.5 22.9053C84.71 23.2053 85.27 23.1253 85.26 22.6453C85.27 22.3453 85.3 22.0553 85.25 21.7553C85.23 21.5953 85.08 21.4553 84.94 21.4153C84.78 21.3753 84.63 21.3553 84.46 21.3653H84.44C84 20.8653 83.24 20.9053 82.54 20.7653C81.59 20.5853 80.68 20.4153 79.8 20.5953C79.77 20.5253 79.72 20.4653 79.65 20.4053C79.21 20.1053 78.73 19.9753 78.21 20.0553C78.13 20.0653 78.05 20.0853 77.97 20.1153C78.13 19.8553 78.25 19.5653 78.3 19.2053C78.36 18.8153 78.3 18.4553 78.25 18.0753C78.19 17.6253 78.25 17.2053 78.02 16.8053C77.89 16.5853 77.63 16.6053 77.5 16.8053C77.35 17.0353 77.29 17.3053 77.29 17.5753C77.29 17.5753 77.28 17.5953 77.27 17.6053C77.21 17.5053 77.14 17.4053 77.06 17.3153C76.14 16.2553 74.26 15.5753 73.09 14.9753C69.18 12.9953 65.43 11.0053 61.3 9.57534C58 8.44534 54.59 7.59534 51.29 6.45534C50.81 6.23534 50.32 6.02534 49.82 5.84534C49.48 5.72534 49.14 5.61534 48.8 5.51534C46.84 4.71534 44.94 3.78534 42.96 3.02534C41.29 2.38534 39.43 1.43534 37.64 1.25534C37.62 1.24534 37.62 1.22534 37.59 1.22534C35.59 0.705341 33.03 0.49534 30.95 0.55534C29.11 0.60534 27.08 0.99534 25.49 2.01534C25.47 2.02534 25.45 2.04534 25.43 2.05534C24.45 2.52534 23.66 3.24534 23.2 4.34534C22.87 4.92534 22.64 5.56534 22.57 6.24534C22.46 7.37534 22.48 8.97534 23.09 9.99534C23.88 12.4253 25.8 14.4453 27.82 16.0253C28.62 16.9253 29.46 17.7753 30.37 18.5053C32.11 19.9053 33.83 20.4853 35.81 21.1353C36.89 21.7653 38.07 22.2353 38.88 22.6053C41.59 23.8353 44.46 25.0353 47.3 25.8753C50.03 26.6753 52.8 27.3753 55.56 28.0953C55.69 28.2253 55.85 28.3253 56.05 28.3953C56.59 28.5953 57.1 28.8253 57.61 29.0753C58.45 29.6053 59.15 30.3353 59.97 31.0553C60.03 31.1053 60.09 31.1453 60.14 31.1953C60.23 31.2353 60.32 31.2753 60.41 31.3453C61.31 31.9553 62.25 32.4953 63.21 32.9853C65.15 33.7953 66.89 34.6453 68.8 35.1053C69.23 35.5953 69.93 35.6553 70.45 35.3853C70.72 35.4153 71 35.4353 71.28 35.4453C71.72 35.4453 72.26 35.1353 72.48 34.6853C72.65 34.9053 72.84 35.1053 73.04 35.3053C73.65 36.1953 74.77 36.9253 75.93 37.3253C75.94 37.3253 75.96 37.3453 75.97 37.3553C76.49 37.7353 76.9 38.2253 77.56 38.3353C77.75 38.3653 77.96 38.3653 78.16 38.3353C78.72 38.7253 79.24 38.3053 79.39 37.7353C79.62 37.4753 79.77 37.1453 79.77 36.7353C79.77 36.7053 79.77 36.6853 79.77 36.6653C80.08 36.2353 80.29 35.7053 80.46 35.2353C80.55 35.2053 80.64 35.1353 80.71 35.0253C80.85 34.8053 80.87 34.5853 80.94 34.3353C81.03 34.0353 81.22 33.7553 81.34 33.4653C81.39 33.3453 81.46 33.2153 81.52 33.0753C81.48 33.3253 81.44 33.5953 81.43 33.8753C81.43 34.0053 81.47 34.1053 81.54 34.1753C81.27 34.7053 81.48 35.5153 82.17 35.4453C82.78 35.3753 83.05 34.9653 83.29 34.4653C84.91 34.4953 86.45 34.9253 88.09 35.0653C88.11 35.2253 88.2 35.3653 88.38 35.4053C90.02 35.7253 91.61 36.1153 93.23 36.4953C94.59 36.8153 96.19 37.4753 97.49 36.8753C97.54 36.8553 97.57 36.8153 97.59 36.7753C100.54 38.1753 103.32 40.2253 105.57 42.6153C107.76 44.9453 108.81 48.1053 110.65 50.7153C112.96 53.9853 115.76 56.5753 118.53 59.4053C119.85 60.7653 121.21 62.1353 122.66 63.3553C123.36 64.2253 124.04 65.1153 124.87 65.8753C126.87 67.7053 128.77 69.3053 131.3 70.2453C131.65 70.3753 132.01 70.4953 132.38 70.6153C132.4 70.6453 132.42 70.6853 132.45 70.7153C133.48 71.9753 134.79 71.9653 136.16 71.9753C136.32 72.1053 136.51 72.2153 136.74 72.2653C141.76 73.3353 146.26 70.9053 150.69 68.7053C153.05 67.5353 155.48 66.7953 157.7 65.2853C159.45 64.0953 160.94 62.5753 162.56 61.2053C162.74 61.0553 162.87 60.8953 162.96 60.7253C164.32 60.0353 165.68 59.3553 167.03 58.6453C168.14 58.0653 168.91 57.2053 169.91 56.4553C171.36 55.3653 173.01 54.5653 174.63 53.8453C175.92 53.2653 177.19 52.5953 178.47 51.9953C178.86 51.8153 179.28 51.6753 179.7 51.5453C181.25 51.4453 182.82 51.4853 184.29 51.5853C186.08 51.7053 187.65 51.4253 189.42 51.2953C189.63 51.2853 189.84 51.2753 190.05 51.2753C191.33 51.3953 192.62 51.5453 193.93 51.6953C195.56 51.8853 196.95 51.9553 198.47 52.6953C200.33 53.5853 202.04 55.2853 204.02 55.7953C204.08 55.8153 204.15 55.8153 204.21 55.8153C204.82 56.2653 205.42 56.7153 206.03 57.1753C209.23 59.5753 212.86 62.6953 214.7 66.5153C215.7 68.5853 216.53 70.9253 216.97 73.3053C217.03 74.6953 216.78 76.2353 216.79 77.4353C216.81 78.7353 216.85 80.0553 216.92 81.3753C216.84 83.4953 216.76 85.6153 216.88 87.7553C216.92 88.5153 216.92 89.2753 216.91 90.0353C216.9 90.1153 216.89 90.1953 216.88 90.2753C216.08 94.7953 214.45 99.5853 212.58 103.615C211.81 105.285 211.15 106.995 210.39 108.675C209.67 109.915 208.9 111.105 208.05 112.225C208.24 111.785 208.01 111.265 207.62 111.115C206.29 112.845 204.69 114.265 202.9 115.395C202.18 115.915 201.43 116.395 200.63 116.805C200.29 116.985 199.96 117.055 199.65 117.045C199.41 117.145 199.17 117.235 198.92 117.325C198.69 117.465 198.46 117.615 198.23 117.745C195.43 119.275 192.21 119.935 188.99 120.135C187.31 120.175 185.63 120.195 183.94 120.075C181.84 119.605 179.78 119.385 177.68 119.075C176.39 118.755 175.09 118.405 173.8 118.065C174.04 117.705 174 117.155 173.47 116.995C171.69 116.455 169.99 115.675 168.15 115.155C166.91 114.805 165.65 114.525 164.39 114.235C162.8 112.265 159.02 111.815 156.77 111.425C153.87 110.925 150.99 109.865 148.18 108.935C147.56 108.725 146.94 108.525 146.32 108.335C145.79 108.045 145.26 107.755 144.69 107.545C143.31 107.035 141.86 106.755 140.39 106.565C138.38 105.405 135.73 105.345 133.25 105.705C129.54 105.125 125.03 104.715 121.58 106.025C120.7 106.355 119.81 106.715 118.93 107.105C116.85 107.625 114.81 108.355 112.86 109.395C110.23 110.795 108.11 111.915 106.3 114.455C105.33 115.815 103.69 117.345 103.58 119.165C103.58 119.285 103.6 119.405 103.65 119.515C102.86 120.625 102.1 121.815 101.44 123.025C101.26 123.585 101.06 124.145 100.86 124.695C99.8 127.745 98.73 130.795 97.53 133.795C97.44 135.045 97.47 136.355 97.06 137.425C97.02 137.535 97.05 137.635 97.11 137.705C96.8 138.255 96.5 138.805 96.22 139.365C94.62 142.595 92.91 145.835 91.14 148.995C89.61 150.725 88 152.395 86.36 154.095C84.75 155.765 83.25 157.495 81.6 159.025C81.03 159.365 80.47 159.685 79.91 159.985C78.01 160.985 76.15 161.855 74.41 163.165C74.39 163.175 74.37 163.195 74.35 163.205C71.66 163.855 68.9 163.725 66.1 163.695C62.68 163.135 59.27 161.935 55.95 161.425C54.87 161.255 53.8 161.045 52.73 160.805C51.1 160.245 49.45 159.805 47.71 159.595C47.15 159.465 46.6 159.335 46.04 159.205C46.01 159.155 45.98 159.105 45.94 159.055C44.41 157.255 42.67 156.545 40.49 155.915C38.51 155.335 36.45 154.495 34.45 154.145C30.3 153.425 25.9 152.545 21.69 152.535C17.03 152.535 12.17 152.115 7.65 153.525C5.45 154.215 3.08 154.955 1.09 156.215L0.94 200.055H10.86C9.84 199.345 8.99 198.435 8.45 197.175C7.92 195.955 8.16 193.605 8.05 192.275C8.05 192.155 8.04 192.045 8.03 191.915C8.48 188.845 9.29 185.865 10.55 183.045C11.19 181.615 11.79 180.155 12.43 178.725C14.02 176.805 15.87 175.295 17.65 173.545C19.81 171.425 22.03 169.715 24.55 168.145C27.05 166.585 29.72 165.365 32.4 164.175C32.98 164.055 33.57 163.965 34.17 163.895C36.49 163.625 38.69 163.995 41 164.035C42.02 164.045 43.12 164.085 44.08 163.765C44.27 163.815 44.47 163.865 44.67 163.925C48.89 165.015 53.17 166.175 57.38 167.185C61.39 168.145 65.25 167.995 69.38 168.045C72.09 168.075 74.71 167.625 77.15 166.495C77.67 166.575 78.1 166.455 78.57 166.175C79.09 165.865 79.57 165.695 80.11 165.435C80.94 165.035 82.41 164.175 82.8 163.155C84.4 161.925 85.99 160.595 87.54 159.315C91.3 156.185 93.93 151.975 96.47 147.735C99.45 142.785 103.24 138.345 106.44 133.555C106.82 132.995 107.18 132.455 107.54 131.925C109 130.295 110.48 128.685 112.07 127.225C114.04 125.845 116.33 124.355 118.52 123.615C123.89 121.815 129.96 122.415 135.44 123.285C137.97 123.695 140.34 125.055 142.62 126.265C145.06 127.555 147.46 128.875 149.97 130.065C152.35 131.185 154.88 131.745 157.3 132.705C159.53 133.595 161.69 134.715 163.89 135.685C168.97 137.935 174.65 139.145 179.94 140.745C182.86 141.625 186.02 142.045 189.04 142.315C191.75 142.555 194.7 142.825 197.4 142.415C197.72 142.365 198.03 142.305 198.34 142.225C204.63 141.495 210.55 137.025 213.88 131.415C215.94 127.955 217.26 123.765 218.42 119.865C219.69 115.635 220.8 111.375 221.45 106.975C221.82 104.445 221.87 101.865 221.83 99.2953C221.99 98.1053 222.14 96.9153 222.23 95.7053C222.25 95.4253 222.19 95.1953 222.08 95.0153C222.08 93.8153 222.02 92.6153 221.87 91.4153C221.77 90.6553 221.64 89.8953 221.49 89.1353C221.32 86.7353 221.01 84.3553 220.33 82.0553C220.19 81.0253 219.99 80.0553 219.75 79.1053C219.75 79.0653 219.73 79.0253 219.73 78.9753C219.73 78.4953 219.71 78.0053 219.7 77.5253C219.7 77.3353 219.57 77.2453 219.45 77.2353C219.45 77.0353 219.45 76.8353 219.45 76.6353C219.35 72.7453 218.2 68.8353 216.52 65.4153C215.57 63.4753 214.21 61.8553 212.79 60.3053C211.93 59.3653 211.01 58.7653 210.03 58.0053C209.32 57.4453 208.8 56.6653 208.08 56.1353C206.12 54.6953 203.89 53.3353 201.72 52.2953C201.59 52.2353 201.46 52.1753 201.33 52.1153C200.7 51.7853 200.11 51.5153 199.64 51.2853C199.18 51.0553 198.74 50.8753 198.32 50.7153C197.9 50.4253 197.52 50.1753 196.98 50.2053C196.92 50.2053 196.87 50.2253 196.83 50.2453C196.25 50.1053 195.65 49.9853 194.97 49.8853C193.37 49.6553 191.94 48.9253 190.33 48.7053C187.89 48.3753 185.32 48.2953 182.86 48.4453C177.85 48.7353 173.53 49.8353 168.73 51.4053C166.31 52.1953 163.95 53.1253 161.91 54.7853C161.02 55.5053 160.03 56.1753 159.06 56.8753C155.77 58.1553 152.52 59.8453 149.32 61.2553C145.67 62.8753 141.84 64.7253 137.85 64.8553C133.09 65.0053 128.55 63.9453 124.65 60.9553C121.39 58.4553 118.37 55.3353 115.43 52.4053C113.13 50.1253 111.32 46.9853 109.76 44.0753C108.03 40.8453 104.86 38.4153 101.95 36.4653C99.11 34.5753 95.52 33.0953 92.17 33.0053C91.09 32.9753 90.02 32.9653 88.95 32.9553C88.97 32.8853 88.97 32.8053 88.95 32.7153C88.88 32.3853 88.62 32.2553 88.34 32.1853C88.38 32.1453 88.42 32.1053 88.46 32.0653C88.65 31.8453 88.85 31.6253 89.04 31.3953C89.06 31.3753 89.07 31.3553 89.09 31.3353C90.98 31.5253 92.88 31.4253 94.78 31.2553C101.45 30.6653 108.02 28.9153 114.67 28.1153C116.36 27.9153 118.07 27.6453 119.8 27.3453C125.07 26.9153 130.28 26.0753 135.61 26.2353C142.27 26.4353 148.89 27.7453 155.22 29.9653C161.51 32.1753 167.9 34.5253 174.4 35.9153C177.28 36.5353 180.08 37.5153 182.99 37.9253C185.89 38.3253 188.86 38.2653 191.77 38.5853C192.13 38.6253 192.26 38.2353 192.16 37.9453C193.22 38.0353 194.29 38.1453 195.35 38.1653C197.05 38.2053 198.7 37.9553 200.39 37.9653C202.59 37.9753 205.54 38.0353 207.89 37.3553C207.88 37.4853 207.94 37.6153 208.08 37.6653C209.39 38.1453 210.38 37.7053 211.83 37.4953C213.44 37.2553 214.97 37.0053 216.59 36.9253C220.01 36.7553 223.58 35.6553 226.93 34.9053C230.67 34.0753 234.4 33.2853 238.12 32.3953C241.86 31.4953 245.44 29.9053 249.08 28.6853C252.19 27.6453 255.15 26.1153 258.32 25.3053C261.18 24.5753 264.03 23.9553 266.91 23.4453C271.53 22.6953 276.19 22.0053 280.87 22.4053C282.39 22.5353 283.92 22.6953 285.45 22.8653C287.96 24.4953 291.1 25.2253 293.7 26.5053C295.88 27.5853 297.68 28.5953 299.48 30.3453C301.12 31.9353 302.3 33.8253 303.84 35.5053C303.96 35.6353 304.07 35.7653 304.17 35.8953C304.19 35.9253 304.22 35.9653 304.24 35.9953C305.14 37.7453 306.19 39.3753 307.09 41.1753C307.76 42.5153 308.2 43.8853 308.47 45.2853C308.4 46.0453 308.33 46.7753 308.37 47.3353C308.5 49.2053 308.56 51.0553 308.57 52.9053C308.42 53.6753 308.28 54.4553 308.14 55.2553C307.01 61.7853 305.03 68.2253 302.36 74.2153C299.97 79.5853 297.15 84.7453 295 90.2453C293.91 93.0353 293.21 96.0953 292.36 98.9753C291.4 102.195 291.12 105.655 291.03 109.015C290.95 112.225 290.81 115.575 291.12 118.775C291.47 122.375 292.6 125.725 293.54 129.175C294.37 132.215 295.55 134.705 296.8 137.565C298.16 140.675 299.02 144.015 300.08 147.245C301.13 150.465 302.35 153.625 303.07 156.965C303.89 160.775 303.75 164.745 303.57 168.635C303.37 172.875 302.49 176.545 300.71 180.335C299.44 183.045 297.91 185.525 296.51 188.145C295.68 189.705 294.59 190.965 293.34 192.155C292.53 192.935 291.63 193.975 290.74 194.795C289.56 195.295 288.39 195.855 287.26 196.605C285.47 197.795 283.7 198.995 281.88 200.115H328.6C337.285 178.279 335.871 165.954 328.26 144.119C327.23 142.419 326.46 140.845 325.37 139.135L325.34 139.005ZM72.45 25.9253C69.01 28.1653 64.75 26.8153 60.99 25.4553C56.32 23.7653 51.44 22.2253 46.64 21.0453C41.73 19.8353 36.9 18.3153 32.29 16.1153C31.56 15.7653 30.82 15.4053 30.1 15.0253C29.82 14.7453 29.54 14.4653 29.25 14.2053C27.88 12.9453 25.63 10.9453 24.72 9.12534C24.44 8.17534 24.26 7.17534 24.04 6.18534C23.99 5.72534 23.98 5.32534 24.02 5.06534C24.06 4.96534 24.1 4.86534 24.15 4.77534C24.15 4.76534 24.17 4.74534 24.17 4.73534C24.35 4.37534 24.55 4.07534 24.76 3.85534C24.86 3.75534 24.97 3.65534 25.08 3.55534C27.69 1.60534 31.88 2.24534 34.95 2.15534C37.44 2.08534 39.79 3.15534 42.1 4.12534C43.92 5.11534 45.81 5.65534 47.83 6.25534C48.11 6.38534 48.39 6.51534 48.67 6.62534C50.66 7.47534 52.71 8.12534 54.77 8.76534C55.55 9.06534 56.34 9.34534 57.14 9.59534C57.21 9.61534 57.27 9.59534 57.33 9.57534C58.06 9.80534 58.78 10.0553 59.5 10.3153C63.05 11.6053 66.45 12.9953 69.79 14.8553C71.49 15.8053 73.22 16.6953 74.9 17.6953C75.41 17.9953 75.71 18.3153 75.91 18.6753C76.55 21.1053 74.27 24.1053 72.46 25.9153L72.45 25.9253ZM81.37 29.2653C80.57 30.8253 79.92 33.1553 78.42 34.0753C78.4 34.0953 78.37 34.1053 78.34 34.1153C78.24 34.1353 78.15 34.1553 78.04 34.1653C77.78 34.1953 77.52 34.1953 77.26 34.1753C77.17 34.0953 77.09 34.0153 76.99 33.9253C76.51 33.2753 75.97 32.5953 75.86 32.3353C75.25 30.8853 75.63 30.2853 76.09 28.9153C76.57 27.4553 76.84 26.0153 77.45 24.5853C77.55 24.3653 77.66 24.0053 77.78 23.6153C78.57 22.6253 79.38 21.5753 80.7 21.5253C80.99 21.5153 81.46 21.4953 81.97 21.5053C81.9 21.5853 81.95 21.7353 82.06 21.7353C82.17 21.7353 82.3 21.7053 82.41 21.7053C83.44 21.7153 83.51 21.9053 83.61 22.7153C83.65 22.9953 83.63 23.2753 83.61 23.5453C82.91 25.4653 82.31 27.4153 81.37 29.2453V29.2653Z" fill="#AFAEAE"/>
<path d="M246.18 197.005C246.69 193.965 246.56 190.675 247.74 187.815C249.09 184.555 251.01 181.765 253.1 179.045C253.93 177.965 254.46 176.675 255.28 175.605C256.38 174.165 257.75 172.915 258.97 171.595C260.95 169.465 262.87 167.695 264.45 165.235C265.15 164.705 265.85 164.155 266.54 163.605C266.64 163.505 267.7 162.595 267.96 162.355C268.68 161.705 269.39 161.035 270.08 160.355C271.37 159.085 272.61 157.755 273.79 156.365C274.34 155.725 274.87 155.065 275.39 154.395C275.47 154.295 275.81 153.835 276.01 153.575C276.13 153.405 276.24 153.245 276.26 153.225C277.35 151.575 278.38 149.885 279.32 148.135C279.8 147.245 280.25 146.345 280.68 145.425C280.89 144.985 281.08 144.535 281.28 144.095C281.2 144.275 280.87 145.215 281.24 144.205C281.9 142.415 282.43 140.575 282.81 138.695C282.92 138.155 283.06 137.085 283.06 137.235C283.12 136.545 283.16 135.845 283.19 135.145C283.21 134.215 283.2 133.285 283.15 132.365C283.12 131.815 283.02 130.965 283.04 130.985C282.83 129.675 282.57 128.375 282.25 127.085C281.82 125.365 281.3 123.675 280.72 122.005C280.64 121.755 280.25 120.715 280.12 120.345C280.05 120.165 279.98 119.985 279.97 119.955C279.75 119.425 279.53 118.885 279.3 118.355C277.69 114.585 275.77 110.965 274.27 107.145C272.7 103.155 271.61 98.9053 271.87 94.5153C272.13 90.0853 273.35 86.1953 274.96 82.2053C275.45 79.7953 275.94 77.3953 275.92 74.8853C275.9 71.4253 275.25 67.2253 273.9 64.0653C273.12 62.2453 272 60.6253 270.9 59.0153C270.07 57.7953 269.47 56.3053 268.44 55.2753C267.29 54.1153 265.6 53.3853 264.25 52.5053C262.68 51.4753 260.95 50.7753 259.21 50.1253C254.77 48.4353 250.07 48.0553 245.34 48.0353C243.24 47.7053 241.21 47.0453 239.09 46.8053C237.86 46.6653 236.63 46.6753 235.39 46.6853C234.97 46.6153 234.56 46.5453 234.14 46.4753C227.43 45.3453 220.8 44.1553 214 44.0953C213.7 44.0653 213.38 44.0553 213.06 44.0853C210.94 44.0853 206.9 43.8753 205.81 46.4353C205.75 46.5753 205.71 46.7253 205.69 46.8653C205.52 47.1653 205.54 47.5853 205.74 47.8153C205.81 48.1153 205.94 48.4153 206.1 48.7053C211.92 50.3953 217.5 53.6353 222.63 56.8153C228.51 60.4653 233.81 64.6053 236.98 71.2853C238.29 74.0553 239.23 76.9453 239.83 79.8953C239.88 80.0753 239.93 80.2453 239.98 80.4253C240.31 81.7453 240.57 83.1053 240.79 84.4853C240.75 85.0353 240.69 85.5753 240.67 86.1253C242.25 91.5853 241.94 97.8553 241.39 103.305C240.8 109.165 240.3 113.265 239.8 119.455C239.69 120.765 239.58 122.085 239.45 123.405C238.73 127.545 237.7 131.875 235.86 135.555C233.56 140.175 230.54 143.665 227.12 147.335C226.95 147.525 226.77 147.695 226.6 147.875C225.09 148.885 223.48 149.645 221.8 150.405C220.55 150.725 219.34 151.205 218.09 151.545C217.28 151.775 216.46 151.965 215.65 152.145C212.21 152.345 208.7 152.315 205.21 152.745C201.37 153.215 197.37 153.535 193.5 153.475C189.87 153.415 186.23 153.005 182.62 152.995C178.8 152.995 175 152.535 171.14 152.615C167.37 152.695 163.65 152.035 159.91 151.485C157.72 151.155 155.5 151.085 153.27 151.025C152.46 150.775 151.64 150.555 150.82 150.385C147.67 149.725 144.05 148.925 140.88 149.905C140.72 149.955 140.56 150.015 140.4 150.075C140.25 150.075 140.09 150.075 139.94 150.095C138.71 150.175 137.56 150.455 136.47 150.865C130.86 151.425 125.98 154.545 122.13 158.785C120.39 160.025 118.77 161.485 117.34 163.215C115.72 165.165 114.92 167.435 113.86 169.745C112.84 171.965 111.96 174.235 111.69 176.725C111.53 178.245 111.43 179.175 110.85 180.635C110.46 181.615 110.12 182.595 109.8 183.595C109.15 184.735 108.5 185.835 107.77 186.875C107.09 187.705 106.35 188.465 105.53 189.115C102.51 191.465 98.62 192.985 94.9 192.115C92.95 191.655 91.15 190.895 89.16 190.565C86.93 190.195 84.7 189.865 82.44 189.775C78.05 189.615 74.11 190.435 69.95 191.855C68.28 192.425 66.63 193.045 64.98 193.685C64.09 193.885 63.22 194.145 62.32 194.575C61.21 195.105 59.99 195.635 58.88 196.325C58.76 196.385 58.64 196.435 58.53 196.495C56.85 197.315 54.95 198.505 53.46 200.015H246.14C246.04 199.055 246 198.115 246.18 197.025V197.005ZM270.26 66.2053C270.19 66.1753 270.12 66.1553 270.05 66.1353C269.95 65.7753 269.84 65.3953 269.74 65.0053C269.93 65.3953 270.11 65.7953 270.26 66.2053ZM227.94 60.2953C227.16 59.7653 226.4 59.2153 225.63 58.6653C226.86 59.3553 228.03 60.0553 229.14 60.8253C228.74 60.6553 228.34 60.4753 227.93 60.2953H227.94ZM218.51 181.655C218.66 181.615 218.8 181.575 218.95 181.525C219.23 181.445 219.41 181.415 219.53 181.405C219.55 181.435 219.57 181.475 219.58 181.505C219.39 181.585 219 181.665 218.51 181.655Z" fill="#F4F4F4"/>
<path d="M49.22 10.4953C47.93 10.1653 46.79 10.1153 45.95 11.5053C45.61 12.0853 45.65 12.8653 45.95 13.4353C47.74 16.8653 53.04 18.5453 56.36 19.5253C58.74 20.2253 61.13 21.0153 63.59 21.3153C65.32 21.5253 67.91 22.0453 68.98 20.0753C72.44 13.7453 54.62 10.5753 49.21 10.4953H49.22Z" fill="#F4F4F4"/>
<path d="M28.44 4.62534C28.11 4.06534 27.42 4.15534 26.93 4.35534C26.37 4.58534 25.43 5.10534 25.49 5.87534C25.5 6.00534 25.55 6.10534 25.61 6.20534C25.57 6.61534 25.7 7.03534 26.1 7.29534C26.27 7.40534 26.44 7.44534 26.6 7.44534C26.63 7.44534 26.66 7.45534 26.69 7.45534C27.31 7.45534 27.73 6.92534 28.06 6.42534C28.13 6.32534 28.19 6.20534 28.24 6.07534C28.52 5.63534 28.72 5.11534 28.44 4.61534V4.62534Z" fill="#F4F4F4"/>
<path d="M81.46 24.4353C81.4 24.2453 81.32 24.0553 81.17 23.8653C80.85 23.4653 80.29 23.6353 80.04 24.0153C80.02 24.0253 80 24.0353 79.98 24.0453C78.79 24.8953 77.77 26.6553 77.62 28.2753C77.52 28.5453 77.41 28.8253 77.33 29.1053C77.03 30.1153 78.23 31.2053 79.07 30.5453C79.84 29.9453 80.36 29.0053 80.82 28.1253C81.07 27.6453 81.2 27.1553 81.38 26.6353C81.55 26.1353 81.78 25.7153 81.73 25.1553C81.71 24.8553 81.6 24.6153 81.45 24.4153L81.46 24.4353Z" fill="#F4F4F4"/>
<path d="M1.14 157.215C3.53 155.245 7.52 154.825 10.05 154.435C13.74 153.865 17.35 153.265 21.09 153.235C28.56 153.155 36.03 154.755 42.99 157.605C46.66 159.105 50.34 160.615 54.07 161.925C55.67 162.485 57.21 162.675 58.82 163.045C60.91 163.535 62.89 164.395 65.02 164.795C72.58 166.215 78.02 161.765 84.02 157.515C86.7 155.615 89.06 153.025 90.8 150.105C92.72 146.875 94.88 143.675 96.36 140.175C97.92 136.485 99.26 132.575 100.64 128.785C102.13 124.665 102.94 120.095 105.08 116.285C107.1 112.695 110.49 110.205 114.15 108.825C115.69 108.245 117.3 107.725 118.87 107.235C120.74 106.655 122.56 106.935 124.44 106.575C132.79 104.995 141.65 106.485 149.68 109.235C153.41 110.515 156.82 112.645 160.59 113.825C164.49 115.045 168.27 116.285 172.03 117.945C178.94 120.975 187.53 122.345 194.85 120.505C201.26 118.885 207.85 113.755 211.43 107.835C213.31 104.735 214.45 101.205 215.4 97.6653C215.96 95.5853 216.47 93.5353 217.13 91.4953C217.74 89.6053 217.64 87.9753 217.67 86.0053C217.73 81.8853 218.52 77.9553 217.75 73.8353C217.42 72.0753 217.23 70.0953 216.61 68.4253C215.95 66.6353 214.8 64.9253 213.9 63.2753C212.42 60.5653 209.25 58.4153 206.79 56.7853C203.62 54.6653 200.5 53.2553 196.98 51.9553C193.41 50.6353 189.94 51.0853 186.25 51.0353C184.37 51.0053 182.48 50.8353 180.61 51.1253C178.81 51.4153 177.12 52.1953 175.41 52.8453C168.11 55.6353 161.85 61.0253 155.43 65.5453C151.95 67.9953 148.28 69.2153 144.39 70.6753C142.68 71.3153 141.24 72.0353 139.4 71.9753C137.57 71.9153 135.69 71.4153 133.99 70.6853C130.4 69.1453 127.51 67.0753 125.14 63.8053C122.95 60.7853 119.83 59.3253 117.25 56.7653C114.29 53.8353 111.71 50.3853 109.24 46.9753C107.22 44.1853 104.56 42.0553 102.33 39.4553C100.15 36.8953 97.09 36.3753 94.04 35.7553C92.04 35.3453 90.17 35.0253 88.27 34.8253C85.99 34.3553 83.62 34.0253 81.4 34.2953C82.18 32.2053 83.03 30.1353 83.84 28.0553C83.92 28.1153 84 28.1453 84.11 28.1453C85.56 28.1553 87.17 28.2553 88.65 28.4953C88.63 28.5753 88.59 28.6453 88.57 28.7153C88.78 28.7153 88.99 28.7353 89.22 28.7353C89.5 28.7353 89.79 28.7353 90.07 28.7553C90.71 28.8653 91.32 28.9253 91.95 28.8353C92.64 28.8653 93.33 28.8953 94.03 28.8553C95.85 28.7653 97.66 28.2953 99.48 28.0653C103.29 27.5653 107.04 26.6953 110.76 25.6553C118.57 23.4753 126.24 21.5153 134.34 21.2053C142.16 20.9053 149.96 22.1653 157.44 24.5153C164.36 26.6953 170.24 31.6753 177.04 34.0653C180.65 35.3453 184.09 36.6853 187.87 37.2953C191.45 37.8653 195.05 37.9753 198.68 37.9653C206.19 37.9353 213.86 36.3453 221.29 35.2553C225.1 34.6953 229.11 33.4853 232.73 32.1153C236.1 30.8353 239.36 29.8753 242.59 28.2053C250.24 24.2353 258.37 21.2353 266.68 19.3653C275.82 17.3053 286.71 17.1953 295.34 21.4853C295.63 21.6353 295.92 21.5653 296.13 21.4053C299.23 23.5353 301.74 26.6953 304.66 29.0353C309.1 32.5853 313.16 37.2853 314.71 43.1453C316.24 48.9053 315.88 55.7453 314.57 61.5353C313.26 67.3853 312.01 74.0353 309.27 79.3253C304.51 88.5353 301.03 98.6453 302.87 109.305C303.66 113.875 306.5 118.465 309.84 121.435C313.41 124.615 317.37 127.455 320.2 131.495C323.25 135.835 326.064 139.955 328.464 144.705L328.58 141.095C328.47 140.885 328.36 140.675 328.26 140.465C327.19 138.425 325.86 136.165 324.4 134.445C322.73 132.485 321.45 130.185 319.71 128.295C318.07 126.515 316.39 124.685 314.58 123.125C310.38 119.485 305.68 115.775 304.5 109.665C303.29 103.325 303.89 96.6453 306.12 90.6753C308.02 85.6353 310.54 80.9053 312.26 75.8053C315.81 65.2853 319.19 52.8553 315.87 41.7653C315.04 38.9653 313.73 36.4353 311.91 34.2253C310.28 32.2553 308.59 30.1253 306.6 28.6053C302.79 25.6953 299.62 21.4153 295.19 19.4753C295.06 19.4153 294.94 19.4353 294.83 19.4853C288.6 16.7553 282.22 16.5553 275.53 16.6853C268.07 16.8353 260.48 18.8153 253.52 21.6353C250.28 22.9453 247.07 24.1853 243.94 25.7553C240.68 27.3853 237.51 28.7953 234.07 29.9453C230.42 31.1653 226.81 32.2353 223.08 33.2253C219.44 34.1853 215.58 34.4353 211.86 34.9953C203.93 36.1853 195.77 36.9553 187.83 35.6653C184.05 35.0553 180.6 33.6153 176.98 32.3653C173.75 31.2553 170.93 29.2853 167.89 27.6853C164.68 25.9953 161.25 24.0753 157.81 23.0053C156.19 22.4953 154.56 21.9453 152.93 21.4753C151.06 20.9453 149.11 20.8753 147.21 20.4953C140.13 19.0853 133.04 19.9353 125.93 20.4153C122.02 20.6853 117.85 21.9653 114.08 23.0953C109.66 24.4153 105.23 25.7453 100.69 26.4453C98.69 26.7453 96.68 27.1353 94.68 27.3653C93.38 27.5153 92.06 27.4653 90.74 27.4353C90.39 27.3753 90.01 27.3353 89.65 27.3053C89.3 27.2053 88.94 27.1153 88.57 27.0753C87.87 26.9953 87.16 27.0953 86.46 27.0953C85.94 27.0653 85.43 27.0253 84.93 26.8953C84.8 26.8653 84.7 26.9153 84.63 27.0053C84.5 27.0053 84.38 27.0253 84.24 27.0453C84.99 25.0553 85.68 23.0353 86.18 20.9553C86.27 20.5753 86.01 20.1853 85.64 20.1853C83.88 20.1653 82.09 19.7953 80.31 19.6553C79.78 19.5653 79.08 19.4753 78.57 19.4653C78.85 18.8053 79.12 18.1553 79.38 17.4953C79.41 17.4453 79.43 17.3853 79.44 17.3253C79.88 16.1853 80.29 15.0453 80.67 13.8953C80.98 12.9453 81.34 12.0353 81.7 11.1353C82.36 9.91534 82.95 8.54534 83.21 7.17534C83.45 6.47534 83.65 5.75534 83.83 5.02534C83.65 4.63534 83.52 4.23534 83.43 3.81534C83.37 3.79534 83.33 3.77534 83.27 3.75534C82.72 3.58534 82.17 3.42534 81.71 3.11534C81.65 3.19534 81.61 3.28534 81.6 3.38534C80.26 3.18534 78.87 2.82534 77.63 2.69534C74.85 2.39534 72.09 2.16534 69.3 2.00534C63.86 1.67534 58.36 1.79534 52.94 1.23534C48.62 0.79534 44.35 0.33534 40 0.17534C38.37 0.11534 36.75 0.20534 35.13 0.30534C34.65 0.26534 34.17 0.21534 33.72 0.15534C32.05 -0.0646596 30.13 -0.0446596 28.47 0.17534C26.09 0.48534 22.61 2.13534 22.21 5.07534C22.2 5.14534 22.22 5.20534 22.25 5.26534C21.64 7.71534 22.2 10.7153 23.71 12.9753C25.75 16.0553 28.98 19.2553 31.95 21.2653C33.57 22.3653 35 23.6153 36.37 25.0553C37.91 26.6753 39.66 28.0653 41.19 29.7053C45.77 34.5953 51.35 38.1753 56.9 41.6153C58.41 42.5453 59.99 43.3353 61.51 44.2553C62.5 44.8553 63.16 45.3353 63.92 46.2653C64.21 46.6253 64.47 46.9553 64.84 47.2153C66.33 48.2653 67.76 47.5553 68.96 46.5253C69.7 44.7453 70.25 42.8853 70.73 40.9853C70.79 40.4453 70.83 39.8953 70.87 39.3353C70.92 38.6853 70.99 38.0353 71.08 37.3653C71.21 36.9653 71.35 36.5653 71.47 36.1653C71.58 35.8153 71.71 35.4753 71.82 35.1253C71.95 35.2553 72.08 35.3653 72.21 35.4953C73.44 36.9453 74.98 38.0653 76.52 39.1553C77.03 39.5153 77.73 40.0053 78.41 40.0553C78.43 40.0553 78.44 40.0753 78.45 40.0753C78.63 40.1353 78.83 40.1153 79 40.0353C79.19 39.9453 79.33 39.7853 79.44 39.6053C79.52 39.5053 79.6 39.3853 79.66 39.2653C79.74 39.2053 79.81 39.1253 79.85 38.9953C80.16 37.8253 80.54 36.6853 80.94 35.5553C82.72 35.8553 84.53 35.8253 86.31 36.0853C86.29 36.1153 86.29 36.1453 86.27 36.1753C86.48 36.1753 86.68 36.1753 86.89 36.1753C86.95 36.1853 87.01 36.1953 87.06 36.2053C88.08 36.4053 89.09 36.5453 90.09 36.4853C91.83 36.7953 93.58 37.2553 95.3 37.6353C97.25 38.0653 99.35 38.5953 100.82 40.1053C101.97 41.2753 102.82 42.6853 104.04 43.7953C105.74 45.3253 107.16 46.7153 108.52 48.6453C110.66 51.6453 113 54.6753 115.54 57.2753C116.71 58.4553 117.9 59.7453 119.24 60.6953C120.83 61.8353 122.31 62.6453 123.58 64.2853C125.66 66.9753 127.41 69.1753 130.46 70.7253C132.98 72.0053 135.49 73.1453 138.29 73.4753C141.63 73.8753 144.5 72.3353 147.6 71.2153C150.93 70.0253 153.97 68.6553 156.83 66.4053C159.93 63.9653 163.24 61.9553 166.43 59.6653C170.08 57.0553 173.7 55.1353 177.85 53.5953C181.8 52.1253 185.96 52.7153 190.07 52.5753C194.13 52.4453 198.67 53.8053 202.3 55.8153C205.53 57.6053 208.82 59.9853 211.48 62.6253C212.8 63.9353 213.86 66.3453 214.69 68.0653C215.61 69.9253 215.86 72.2253 216.24 74.2953C217.05 78.7453 216.15 83.3053 216.11 87.7953C216.09 89.9953 215.26 91.7953 214.71 93.8753C214.13 96.0753 213.62 98.2953 212.92 100.455C210.23 108.835 203.95 115.445 196.12 118.355C188.04 121.355 178.53 118.945 170.87 115.615C167.38 114.095 163.73 113.165 160.14 111.945C156.55 110.735 153.26 108.675 149.65 107.485C145.55 106.145 141.54 105.285 137.3 104.615C135.74 104.365 134.22 104.415 132.64 104.445C130.51 104.485 128.33 104.205 126.21 104.445C120.03 105.145 113.31 106.215 108.09 110.305C102.26 114.865 101.3 122.555 98.75 129.295C95.83 137.005 93 144.965 87.91 151.395C85.41 154.535 82.42 156.945 79.04 158.915C77.5 159.815 76.17 161.095 74.61 161.945C72.53 163.065 70.11 163.635 67.79 163.505C65.73 163.385 63.58 162.935 61.59 162.305C60.73 162.035 59.92 161.545 59.05 161.325C58.05 161.075 57.01 161.135 56.01 160.875C52.29 159.865 48.67 158.165 45.07 156.735C41.69 155.385 38.29 154.405 34.86 153.205C33.39 152.695 32.04 152.545 30.52 152.505C28.62 152.455 26.77 151.975 24.88 151.825C21.52 151.565 17.95 151.585 14.64 152.225C11.18 152.885 7.68 153.095 4.29 154.205C3.28 154.535 2.12 155.035 1.08 155.715V157.285C1.08 157.285 1.1 157.225 1.1 157.195L1.14 157.215ZM40.98 1.33534H40.99C45.35 1.58534 49.65 2.19534 53.98 2.50534C59.39 2.90534 64.82 3.00534 70.24 3.33534C72.85 3.49534 75.42 3.71534 78.03 4.00534C79.26 4.13534 80.68 4.60534 82.02 4.75534C82.12 5.15534 82.18 5.56534 82.18 5.95534C82.01 6.58534 81.86 7.21534 81.63 7.77534C81.48 8.15534 81.32 8.52534 81.17 8.89534C80.85 9.51534 80.59 10.1553 80.36 10.8153C80.34 10.8753 80.32 10.9253 80.29 10.9853C80.21 11.1153 80.12 11.2453 80.04 11.3753C80.04 11.4553 80.04 11.5453 80.03 11.6253C80.01 11.7453 79.98 11.8553 79.96 11.9853C79.96 11.9953 79.95 12.0053 79.94 12.0153C79.44 13.4653 78.95 14.9253 78.57 16.4153C77.77 16.3153 77.07 15.7853 76.34 15.4653C75.11 14.9353 73.85 14.5053 72.65 13.8753C70.75 12.8653 68.9 11.7353 67.01 10.7153C63.94 9.04534 60.4 8.39534 57.14 7.32534C55.53 6.79534 53.99 6.03534 52.38 5.51534C50.6 4.95534 48.77 4.59534 47.01 3.92534C45.18 3.22534 43.08 2.03534 41 1.33534H40.98ZM69.86 38.4153C69.17 40.7353 68.45 43.1453 68.18 45.4753C68.06 45.5353 67.98 45.5753 67.96 45.5853C66.81 45.8853 67.75 46.2553 66 45.4553C64.81 44.9053 64.19 44.0853 63.1 43.3853C60.6 41.7953 57.94 40.6053 55.55 38.8153C51.61 35.8653 46.96 33.8653 43.42 30.2353C41.22 27.9753 38.95 25.7953 36.72 23.5553C35.95 22.7853 35.13 22.1153 34.29 21.4753C35.09 21.8353 35.9 22.1553 36.69 22.4853C40.39 24.0253 44.24 25.2953 47.96 26.8653C51.77 28.4653 55.77 29.5453 59.6 31.1653C63.03 32.6053 66.4 35.0953 70.01 36.0553C69.93 36.8153 69.89 37.6053 69.86 38.4153ZM70.78 32.4853C70.56 33.2753 70.36 34.0653 70.2 34.8353C66.88 33.9053 63.58 31.6353 60.49 30.1953C57.08 28.6053 53.56 27.4053 49.98 26.3253C46.52 25.2853 43.21 23.5853 39.76 22.4453C37.89 21.8353 36.16 21.2253 34.4 20.3353C33.31 19.7853 31.81 19.3353 30.6 18.5853C30.47 18.4753 30.34 18.3653 30.22 18.2553C27.73 15.9753 24.41 13.3253 23.44 9.85534C22.76 7.43534 22.75 5.19534 23.77 3.57534C25.17 2.04534 27.05 1.37534 29.11 1.12534C30.48 1.19534 31.86 1.34534 33.19 1.34534C34.5 1.34534 35.8 1.30534 37.1 1.27534C37.14 1.35534 37.22 1.42534 37.34 1.42534C39.32 1.52534 41.53 2.85534 43.33 3.59534C44.7 4.15534 46.02 4.81534 47.42 5.28534C50.93 6.46534 54.51 7.64534 58.04 8.72534C61.85 9.90534 65.44 11.2653 69 13.1953C70.85 14.1953 72.65 15.2853 74.56 16.1353C75.61 16.5953 76.88 17.3953 78.09 17.6653C77.84 18.2253 77.57 18.7753 77.29 19.3253C77.16 19.4053 77.07 19.5453 77.08 19.7253C76.39 21.0653 75.64 22.3953 74.87 23.7453C73.29 26.5353 71.97 29.4753 70.79 32.4753L70.78 32.4853ZM79.61 36.3353C79.55 36.3753 79.51 36.4353 79.48 36.5253C79.41 36.8353 79.28 37.0753 79.15 37.3553C79.05 37.5853 78.99 37.8253 78.92 38.0853C78.86 38.1853 78.79 38.2753 78.74 38.3053C78.31 38.5853 77.73 38.2253 77.36 38.0353C76.59 37.6053 75.87 36.9753 75.16 36.4453C74.14 35.6853 73.3 34.5153 72.32 33.6853C72.6 32.8953 72.89 32.1153 73.2 31.3353C73.81 29.4553 74.57 27.6253 75.59 25.9253C75.88 25.3153 76.17 24.7053 76.46 24.0953C76.48 24.0653 76.49 24.0253 76.5 23.9953C76.54 23.9753 76.58 23.9353 76.6 23.8953C76.8 23.5753 76.98 23.3853 77.1 23.0053C77.28 22.4453 77.49 21.8953 77.67 21.3453C77.7 21.2653 77.73 21.1753 77.77 21.0853C77.85 21.0053 77.94 20.9153 78.03 20.8253C78.01 20.8153 77.99 20.8053 77.97 20.7953C78 20.7253 78.03 20.6653 78.05 20.6053C78.77 20.8253 79.68 20.8453 80.19 20.9453C81.66 21.2053 83.31 21.7053 84.85 21.6053C84.2 24.4653 82.91 27.2353 81.86 29.9053C81.05 31.9853 80.27 34.1653 79.6 36.3453L79.61 36.3353Z" fill="#252523"/>
<path d="M0.11 158.315C0.41 158.125 0.72 157.925 0.94 157.635C1.02 157.525 1.07 157.415 1.1 157.305V155.735C0.71 155.995 0.34 156.275 0 156.595V158.475C0.03 158.425 0.06 158.375 0.1 158.325L0.11 158.315Z" fill="#252523"/>
<path d="M40.66 4.66534C38.72 3.02534 36.05 3.44534 33.94 4.36534C32.56 4.97534 30.68 6.15534 30.43 7.87534C29.24 10.0953 30.55 14.1153 31.88 15.7753C34.09 18.5353 38.14 18.2653 40.46 15.9853C42.1 14.3653 42.95 12.7653 42.93 10.2853C42.91 8.35534 42.12 5.89534 40.67 4.66534H40.66ZM39.26 15.8053C37.56 17.3353 34.26 17.0253 32.73 15.2453C31.05 13.2853 30.42 9.16534 32.14 7.13534C32.23 7.02534 32.23 6.85534 32.18 6.73534C32.75 6.19534 33.47 5.84534 34.09 5.34534C34.12 5.31534 34.14 5.27534 34.15 5.24534C34.66 5.05534 35.16 4.90534 35.61 4.80534C38.17 4.18534 40.47 5.08534 41.46 7.87534C42.55 10.9753 41.52 13.7753 39.26 15.8153V15.8053Z" fill="#252523"/>
<path d="M82.18 5.96534C82.01 6.59534 81.86 7.22534 81.63 7.78534C81.48 8.16534 81.32 8.53534 81.17 8.90534C80.85 9.52534 80.59 10.1653 80.36 10.8253C80.34 10.8853 80.32 10.9353 80.29 10.9953C80.21 11.1253 80.12 11.2553 80.04 11.3853C80.04 11.4653 80.04 11.5553 80.03 11.6353C80.01 11.7553 79.98 11.8653 79.96 11.9953C79.96 12.0053 79.95 12.0153 79.94 12.0253C79.44 13.4753 78.95 14.9353 78.57 16.4253C77.77 16.3253 77.07 15.7953 76.34 15.4753C75.11 14.9453 73.85 14.5153 72.65 13.8853C70.75 12.8753 68.9 11.7453 67.01 10.7253C63.94 9.05534 60.4 8.40534 57.14 7.33534C55.53 6.80534 53.99 6.04534 52.38 5.52534C50.6 4.96534 48.77 4.60534 47.01 3.93534C45.18 3.23534 43.08 2.04534 41 1.34534H41.01C45.37 1.59534 49.67 2.20534 54 2.51534C59.41 2.91534 64.84 3.01534 70.26 3.34534C72.87 3.50534 75.44 3.72534 78.05 4.01534C79.28 4.14534 80.7 4.61534 82.04 4.76534C82.14 5.16534 82.2 5.57534 82.2 5.96534H82.18Z" fill="#252523"/>
<path d="M80.81 4.56534C78.4 3.24534 74.95 3.83534 72.3 3.69534C69.42 3.54534 66.58 3.26534 63.7 3.13534C61.51 3.03534 59.33 2.76534 57.14 2.65534C54.54 2.52534 51.68 2.05534 49.1 2.38534C48.85 2.41534 48.84 2.79534 49.1 2.81534C53.73 3.09534 58.36 3.93534 63.01 4.23534C65.31 4.38534 67.55 4.76534 69.85 4.88534C71.29 4.95534 72.73 5.02534 74.17 5.13534C76.02 5.27534 78.48 4.95534 80.18 5.73534C80.9 6.06534 81.54 4.97534 80.81 4.57534V4.56534Z" fill="#F4F4F4"/>
<path d="M40.42 7.27534C39.95 5.94534 39.52 4.99534 38.03 4.77534C36.74 4.58534 35.15 4.80534 34.02 5.53534C33.07 6.14534 32.03 7.36534 31.83 8.58534C31.68 9.43534 32.25 10.9553 33.28 10.4053C34.23 9.89534 34.69 8.68534 35.71 8.28534C36.21 8.08534 36.91 7.95534 37.44 8.04534C37.95 8.13534 38.21 8.48534 38.65 8.73534C39.5 9.22534 40.82 8.39534 40.42 7.26534V7.27534Z" fill="#F4F4F4"/>
<path d="M67.15 42.7653C65.71 43.9753 62.95 42.1253 61.6 41.2453C59.62 39.9553 57.49 38.9753 55.39 37.9053C51.8 36.0553 48.79 33.6953 45.81 30.8653C45.68 30.7453 45.52 30.9253 45.62 31.0653C48.96 35.2353 52.78 37.6353 57.29 40.0853C59.86 41.4753 62.26 42.9553 64.89 44.1953C66.42 44.9153 66.72 44.5853 67.53 43.1053C67.68 42.8253 67.35 42.6053 67.14 42.7753L67.15 42.7653Z" fill="#F4F4F4"/>
</svg>
