<svg width="256" height="256" viewBox="0 0 256 256" fill="none" xmlns="http://www.w3.org/2000/svg">
<path d="M170.252 81.8185L192.505 59.5655L193.988 50.1955C153.437 13.3225 88.9758 17.5035 52.4208 58.9195C42.2668 70.4225 34.7338 84.7635 30.7168 99.5725L38.6868 98.4495L83.1918 91.1105L86.6278 87.5965C106.425 65.8545 139.898 62.9295 162.756 81.4285L170.252 81.8185Z" fill="#EA4335"/>
<path d="M224.205 98.9183C219.09 80.0823 208.589 63.1493 193.988 50.1963L162.756 81.4283C175.944 92.2043 183.457 108.438 183.135 125.465V131.009C198.486 131.009 210.932 143.454 210.932 158.805C210.932 174.157 198.486 186.29 183.135 186.29H127.464L121.998 192.224V225.564L127.464 230.795H183.135C223.065 231.106 255.687 199.301 255.998 159.371C256.186 135.168 244.253 112.478 224.205 98.9183Z" fill="#4285F4"/>
<path d="M71.8706 230.796H127.464V186.29H71.8706C67.9096 186.289 64.0736 185.438 60.4716 183.792L52.5846 186.212L30.1756 208.465L28.2236 216.039C40.7906 225.528 56.1236 230.864 71.8706 230.796Z" fill="#34A853"/>
<path d="M71.8703 86.4255C31.9393 86.6635 -0.236688 119.228 0.00131186 159.158C0.134312 181.456 10.5483 202.446 28.2233 216.039L60.4713 183.792C46.4803 177.471 40.2633 161.006 46.5843 147.016C52.9043 133.026 69.3703 126.809 83.3593 133.129C89.5243 135.914 94.4613 140.852 97.2463 147.016L129.494 114.769C115.773 96.8315 94.4533 86.3445 71.8703 86.4255Z" fill="#FBBC05"/>
</svg>
