<svg width="256" height="256" viewBox="0 0 256 256" fill="none" xmlns="http://www.w3.org/2000/svg">
<path d="M129.86 23.3115L38.2529 181.973L46.4766 186.721L138.083 28.0596L129.86 23.3115Z" fill="#E10098"/>
<path d="M219.576 169.296H36.3599V178.792H219.576V169.296Z" fill="#E10098"/>
<path d="M44.7354 166.406L39.9873 174.63L131.626 227.539L136.374 219.316L44.7354 166.406Z" fill="#E10098"/>
<path d="M124.352 28.506L119.604 36.7297L211.242 89.6393L215.991 81.4156L124.352 28.506Z" fill="#E10098"/>
<path d="M131.65 28.4791L40.0117 81.3887L44.7599 89.6124L136.398 36.7028L131.65 28.4791Z" fill="#E10098"/>
<path d="M126.166 23.3119L117.942 28.0601L209.549 186.721L217.772 181.973L126.166 23.3119Z" fill="#E10098"/>
<path d="M53.1278 75.0879H43.6318V180.912H53.1278V75.0879Z" fill="#E10098"/>
<path d="M212.376 75.0879H202.88V180.912H212.376V75.0879Z" fill="#E10098"/>
<path d="M205.568 170.32L125.867 216.337L130.015 223.522L209.717 177.504L205.568 170.32Z" fill="#E10098"/>
<path d="M224.96 184C222.986 187.43 220.039 190.197 216.491 191.952C212.944 193.706 208.956 194.369 205.032 193.855C201.107 193.342 197.424 191.676 194.447 189.068C191.47 186.461 189.334 183.028 188.308 179.206C187.283 175.384 187.415 171.343 188.687 167.595C189.959 163.848 192.314 160.562 195.455 158.154C198.595 155.745 202.379 154.323 206.329 154.066C210.278 153.81 214.214 154.73 217.64 156.712C222.225 159.364 225.57 163.727 226.943 168.842C228.315 173.958 227.602 179.409 224.96 184" fill="#E10098"/>
<path d="M65.6001 92C63.6261 95.4301 60.6789 98.1974 57.1314 99.9518C53.584 101.706 49.5958 102.369 45.6717 101.855C41.7476 101.342 38.064 99.6761 35.0871 97.0683C32.1102 94.4606 29.9739 91.0284 28.9486 87.206C27.9232 83.3836 28.0549 79.3429 29.327 75.5954C30.5991 71.8479 32.9544 68.5621 36.0948 66.1537C39.2352 63.7454 43.0195 62.3229 46.9686 62.0663C50.9178 61.8096 54.8544 62.7304 58.2801 64.712C62.8649 67.3641 66.2104 71.7266 67.5827 76.8424C68.955 81.9581 68.242 87.4093 65.6001 92Z" fill="#E10098"/>
<path d="M31.0399 184C29.0583 180.574 28.1375 176.638 28.3942 172.689C28.6508 168.739 30.0733 164.955 32.4816 161.815C34.8899 158.674 38.1758 156.319 41.9233 155.047C45.6708 153.775 49.7115 153.643 53.5339 154.669C57.3562 155.694 60.7885 157.83 63.3962 160.807C66.0039 163.784 67.6699 167.468 68.1831 171.392C68.6964 175.316 68.034 179.304 66.2796 182.851C64.5253 186.399 61.758 189.346 58.3279 191.32C53.7372 193.962 48.286 194.675 43.1703 193.303C38.0545 191.93 33.692 188.585 31.0399 184" fill="#E10098"/>
<path d="M190.4 92C188.418 88.5744 187.497 84.6378 187.754 80.6886C188.011 76.7394 189.433 72.9551 191.842 69.8148C194.25 66.6744 197.536 64.3191 201.283 63.047C205.031 61.7749 209.071 61.6432 212.894 62.6685C216.716 63.6939 220.148 65.8302 222.756 68.8071C225.364 71.784 227.03 75.4676 227.543 79.3917C228.056 83.3158 227.394 87.3039 225.64 90.8514C223.885 94.3988 221.118 97.3461 217.688 99.32C213.097 101.962 207.646 102.675 202.53 101.303C197.414 99.9304 193.052 96.5848 190.4 92" fill="#E10098"/>
<path d="M128 240C124.044 240 120.178 238.827 116.889 236.629C113.6 234.432 111.036 231.308 109.522 227.654C108.009 223.999 107.613 219.978 108.384 216.098C109.156 212.219 111.061 208.655 113.858 205.858C116.655 203.061 120.219 201.156 124.098 200.384C127.978 199.613 131.999 200.009 135.654 201.522C139.308 203.036 142.432 205.6 144.629 208.889C146.827 212.178 148 216.044 148 220C148.007 222.629 147.495 225.233 146.493 227.662C145.49 230.092 144.017 232.3 142.159 234.159C140.3 236.017 138.092 237.49 135.662 238.493C133.233 239.495 130.629 240.007 128 240" fill="#E10098"/>
<path d="M128 55.928C124.044 55.928 120.178 54.755 116.889 52.5574C113.6 50.3598 111.036 47.2362 109.522 43.5817C108.009 39.9271 107.613 35.9058 108.384 32.0262C109.156 28.1466 111.061 24.5829 113.858 21.7859C116.655 18.9888 120.219 17.084 124.098 16.3123C127.978 15.5406 131.999 15.9366 135.654 17.4504C139.308 18.9641 142.432 21.5276 144.629 24.8166C146.827 28.1056 148 31.9724 148 35.928C148.007 38.5565 147.495 41.1605 146.493 43.5904C145.49 46.0202 144.017 48.228 142.159 50.0866C140.3 51.9453 138.092 53.4182 135.662 54.4206C133.233 55.4231 130.629 55.9354 128 55.928" fill="#E10098"/>
</svg>
