<svg width="46" height="50" viewBox="0 0 46 50" fill="none" xmlns="http://www.w3.org/2000/svg">
<path fill-rule="evenodd" clip-rule="evenodd" d="M15.2696 46.6598C10.9119 45.437 6.34952 44.8201 1.92374 44.2549C0.970497 44.1365 0.0854751 44.7976 0.0173862 45.7291C-0.118791 46.6612 0.562496 47.5137 1.44765 47.6321C5.73725 48.1762 10.1626 48.7583 14.316 49.9356C15.2012 50.1909 16.1548 49.6653 16.4272 48.7611C16.6996 47.8575 16.1547 46.9159 15.2696 46.6598Z" fill="white"/>
<path fill-rule="evenodd" clip-rule="evenodd" d="M28.4781 29.3221C21.465 22.1653 13.5667 15.9297 6.68969 8.58086C6.0769 7.89452 4.98747 7.85775 4.30658 8.49847C3.6257 9.13987 3.55787 10.2184 4.23876 10.9047C11.1157 18.2747 19.014 24.5307 26.0272 31.7086C26.7081 32.3786 27.7972 32.3881 28.4781 31.729C29.0909 31.0706 29.159 29.9921 28.4781 29.3221Z" fill="white"/>
<path fill-rule="evenodd" clip-rule="evenodd" d="M41.6205 1.79466C41.8248 5.89088 42.0287 9.98711 42.2329 14.084C42.2329 15.0223 43.0504 15.7467 44.0036 15.7011C44.9569 15.6548 45.6374 14.8561 45.6374 13.9172C45.4331 9.81417 45.2292 5.71181 45.025 1.60946C44.9569 0.671191 44.1397 -0.0485087 43.1864 0.00255798C42.3013 0.0536246 41.5524 0.857076 41.6205 1.79466Z" fill="white"/>
</svg>
