<svg width="64" height="64" viewBox="0 0 64 64" fill="none" xmlns="http://www.w3.org/2000/svg">
<path d="M3.81895 42.7697L9.53711 10.0918L40.8889 18.4763L29.4704 49.6297L15.6413 49.7982" fill="#E34F26"/>
<path d="M16.4559 47.0415L27.5775 46.9668L37.3496 20.2811L24.5586 16.8604" fill="#EF652A"/>
<path d="M21.3733 28.7247L16.1596 27.3304L16.8924 23.2133L22.4537 24.7006L23.4968 20.8152L13.6255 18.1753L11.483 30.3185L20.3116 32.6795L21.3733 28.7247ZM18.5657 38.9053L14.5028 36.5546L15.063 33.358L11.17 32.3169L9.99888 38.622L17.4667 42.9988L18.5657 38.9053Z" fill="#EBEBEB"/>
<path d="M21.3038 28.7064L20.2421 32.6612L25.1082 33.9625L23.2618 38.8973L18.5657 38.9055L17.4667 42.9991L26.1266 42.9354L30.4799 31.1604L21.3038 28.7064ZM23.4272 20.7969L22.3841 24.6823L31.9079 27.2292L33.2985 23.4368L23.4272 20.7969Z" fill="white"/>
<path d="M34.5993 49.5191L23.1113 18.3843L54.4631 9.99982L60.1813 42.6777L48.3589 49.7063" fill="#264DE4"/>
<path d="M39.5112 16.7505L47.6139 46.9316L57.2081 41.3169L52.3022 13.3298" fill="#2965F1"/>
<path d="M30.7017 23.3452L40.573 20.7053L41.6161 24.5907L32.0923 27.1376M33.5203 31.0688L42.6964 28.6149L43.7581 32.5696L34.9296 34.9307M35.6597 36.8176L39.5526 35.7765L40.6689 38.8243L45.4345 38.814L46.5335 42.9075L37.8041 42.8624" fill="#EBEBEB"/>
<path d="M42.6962 28.6146L43.7579 32.5694L48.5546 31.2866L49.4277 36.4816L45.4343 38.8137L46.5333 42.9073L53.9316 38.5491L50.3745 18.0838L40.5728 20.7051L41.6159 24.5905L47.1771 23.1032L47.8752 27.2296L42.6962 28.6146Z" fill="white"/>
</svg>
