<svg width="256" height="256" viewBox="0 0 256 256" fill="none" xmlns="http://www.w3.org/2000/svg">
<path d="M216.712 126.288C216.712 120.759 214.515 115.456 210.606 111.546C206.696 107.636 201.393 105.44 195.864 105.44C195.132 105.439 194.4 105.476 193.672 105.552L222.312 21.0879H100.608L129.208 105.48C128.792 105.48 128.368 105.44 127.944 105.44C122.965 105.434 118.149 107.21 114.366 110.447C110.583 113.684 108.084 118.167 107.319 123.086C106.555 128.006 107.576 133.037 110.198 137.269C112.82 141.501 116.87 144.654 121.616 146.16C117.181 153.796 111.659 160.746 105.224 166.792C96.8468 174.8 86.8943 180.976 75.9999 184.928C69.8959 182.035 65.1221 176.927 62.648 170.642C60.174 164.357 60.1854 157.365 62.6799 151.088C63.2959 149.648 63.9199 148.192 64.5119 146.736C69.1603 145.641 73.2922 142.984 76.2172 139.209C79.1422 135.434 80.683 130.77 80.5823 125.995C80.4816 121.221 78.7453 116.625 75.6637 112.977C72.5821 109.329 68.3418 106.849 63.6513 105.951C58.9609 105.053 54.1044 105.793 49.8935 108.045C45.6825 110.298 42.3722 113.927 40.5156 118.327C38.659 122.727 38.3686 127.631 39.6929 132.219C41.0173 136.807 43.8762 140.802 47.7919 143.536C41.1371 155.602 36.0583 168.473 32.6799 181.832C29.8479 198.912 32.6799 217.032 47.4399 227.28C81.8399 251.128 119.192 212.496 158.568 202.792C172.84 199.272 188.504 199.84 201.072 192.56C205.612 189.974 209.528 186.42 212.541 182.15C215.553 177.881 217.589 173.001 218.504 167.856C219.34 162.954 219.183 157.933 218.041 153.093C216.898 148.253 214.795 143.691 211.856 139.68C214.992 135.932 216.709 131.199 216.704 126.312L216.712 126.288ZM148.8 126.4V126.328C148.806 122.74 147.884 119.212 146.123 116.086C144.362 112.96 141.823 110.342 138.752 108.488L161.504 62.3999L184.304 108.912C181.444 110.813 179.098 113.392 177.478 116.42C175.857 119.448 175.011 122.83 175.016 126.264C175.016 126.416 175.016 126.568 175.016 126.72L148.8 126.4Z" fill="#C63D14"/>
<path d="M221.808 126.288C221.8 120.243 219.684 114.39 215.824 109.738C211.965 105.085 206.603 101.924 200.664 100.8L229.416 16H93.5118L122.312 100.968C117.284 102.092 112.705 104.688 109.159 108.425C105.613 112.163 103.26 116.872 102.402 121.952C101.544 127.032 102.218 132.252 104.339 136.947C106.461 141.642 109.932 145.599 114.312 148.312C110.694 153.687 106.486 158.64 101.768 163.08C94.4636 170.068 85.8802 175.582 76.4878 179.32C72.08 176.761 68.7388 172.704 67.0734 167.887C65.4081 163.07 65.5296 157.815 67.4158 153.08L67.7358 152.336L68.3278 150.936C73.6597 149.087 78.244 145.552 81.3865 140.865C84.529 136.177 86.0586 130.594 85.7436 124.959C85.4285 119.325 83.2861 113.946 79.6406 109.639C75.9952 105.331 71.0453 102.328 65.5406 101.086C60.0359 99.8429 54.2762 100.428 49.1336 102.752C43.9911 105.076 39.7459 109.012 37.0408 113.965C34.3358 118.917 33.3183 124.616 34.1423 130.199C34.9664 135.782 37.5872 140.944 41.6078 144.904C40.7438 146.752 39.8318 148.624 38.8958 150.552C33.7089 160.089 29.9361 170.329 27.6958 180.952C23.9758 203.352 29.9758 221.296 44.5838 231.416C52.4258 237.024 61.8312 240.026 71.4718 240C88.5278 240 105.784 231.432 122.672 223.048C134.471 216.631 146.92 211.487 159.808 207.704C164.424 206.568 169.176 205.88 174.208 205.152C184.459 204.333 194.456 201.54 203.648 196.928C208.831 193.967 213.301 189.903 216.739 185.022C220.177 180.142 222.5 174.566 223.544 168.688C225.244 158.702 223.281 148.438 218.016 139.784C220.506 135.72 221.822 131.046 221.816 126.28L221.808 126.288ZM211.624 126.288C211.624 129.405 210.7 132.452 208.968 135.044C207.236 137.636 204.775 139.656 201.895 140.848C199.015 142.041 195.846 142.353 192.789 141.745C189.732 141.137 186.924 139.636 184.72 137.432C182.516 135.228 181.015 132.42 180.407 129.363C179.799 126.305 180.111 123.137 181.303 120.257C182.496 117.377 184.516 114.916 187.108 113.184C189.7 111.452 192.747 110.528 195.864 110.528C200.042 110.532 204.048 112.194 207.003 115.149C209.958 118.103 211.62 122.109 211.624 126.288V126.288ZM215.2 26.184L189.808 101.064C188.72 101.327 187.651 101.661 186.608 102.064L161.528 50.864L136.368 101.76C135.272 101.38 134.153 101.076 133.016 100.848L107.712 26.184H215.2ZM127.944 110.528C131.061 110.528 134.108 111.452 136.7 113.184C139.291 114.916 141.311 117.377 142.504 120.257C143.697 123.137 144.009 126.305 143.401 129.363C142.793 132.42 141.292 135.228 139.088 137.432C136.884 139.636 134.076 141.137 131.018 141.745C127.961 142.353 124.792 142.041 121.913 140.848C119.033 139.656 116.572 137.636 114.84 135.044C113.108 132.452 112.184 129.405 112.184 126.288C112.188 122.109 113.85 118.103 116.804 115.149C119.759 112.194 123.765 110.532 127.944 110.528V110.528ZM59.7678 110.68C62.8862 110.682 65.934 111.608 68.5256 113.343C71.1171 115.077 73.1358 117.541 74.3262 120.424C75.5167 123.306 75.8253 126.477 75.213 129.534C74.6008 132.592 73.0952 135.399 70.8868 137.601C68.6784 139.803 65.8665 141.3 62.8069 141.903C59.7474 142.506 56.5777 142.187 53.6991 140.988C50.8205 139.789 48.3624 137.763 46.6358 135.166C44.9093 132.569 43.9919 129.518 43.9998 126.4C44.0041 122.221 45.6658 118.215 48.6205 115.261C51.5751 112.306 55.5813 110.644 59.7598 110.64L59.7678 110.68ZM213.504 166.952C212.713 171.362 210.962 175.544 208.376 179.202C205.789 182.86 202.43 185.905 198.536 188.12C190.457 192.043 181.708 194.402 172.752 195.072C167.696 195.8 162.472 196.552 157.36 197.816C143.751 201.757 130.608 207.156 118.16 213.92C92.8478 226.488 70.9598 237.344 50.3838 223.064C35.2878 212.6 35.9838 193.24 37.7438 182.632C39.815 172.978 43.2693 163.674 47.9998 155.008C48.7358 153.496 49.4558 152.008 50.1598 150.536C52.3087 151.395 54.5637 151.96 56.8638 152.216C54.8277 159.408 55.3966 167.088 58.4703 173.901C61.5439 180.714 66.9248 186.223 73.6638 189.456L75.6238 190.464L77.6958 189.728C89.2533 185.556 99.8121 179.017 108.696 170.528C114.564 165.008 119.719 158.776 124.04 151.976C129.569 152.817 135.222 151.848 140.154 149.213C145.087 146.578 149.036 142.419 151.412 137.356C153.787 132.293 154.462 126.597 153.335 121.119C152.208 115.641 149.341 110.675 145.16 106.96L161.464 73.992L177.936 107.592C173.249 112.109 170.433 118.223 170.048 124.721C169.663 131.218 171.736 137.623 175.856 142.662C179.976 147.701 185.841 151.006 192.285 151.919C198.73 152.832 205.282 151.288 210.64 147.592C213.611 153.588 214.605 160.372 213.48 166.968L213.504 166.952Z" fill="white"/>
</svg>
