<svg width="1512" height="982" viewBox="0 0 1512 982" fill="none" xmlns="http://www.w3.org/2000/svg">
<g clip-path="url(#clip0_1_3)">
<rect width="1512" height="982" fill="#252523"/>
<path d="M1548.43 49.9539C1548.29 55.4639 1545.42 59.2839 1542.35 63.5939C1539.28 67.8639 1536.7 73.3239 1532.34 76.3139C1523.85 82.1739 1514.54 83.8139 1504.5 84.5839C1498.73 85.0239 1496.52 84.4839 1491.59 81.7639C1487.97 79.7539 1483.68 79.1339 1480.33 76.5739C1474.05 71.7439 1469.14 64.8439 1465.8 57.6839C1462.1 49.7639 1462.74 39.8039 1464.99 31.4339C1466.35 26.3739 1467.4 17.7139 1471.28 14.1739C1475.06 10.7239 1480.79 8.5139 1485.24 6.0339C1485.61 5.8339 1485.84 5.5639 1485.98 5.2839C1489.09 4.3539 1492.23 3.95391 1495.46 3.07391C1499.3 2.01391 1502.61 2.3639 1506.5 1.9439C1511.87 1.3639 1516.73 0.823899 1521.94 3.0639C1527.09 5.2539 1530.07 9.10392 1533.9 12.8939C1537.29 16.2339 1540.96 18.6939 1543.39 23.0039C1547.75 30.7639 1548.63 41.1639 1548.43 49.9639V49.9539Z" fill="#D9D7D5"/>
<path d="M1543.44 29.664C1543.22 29.544 1543.01 29.404 1542.84 29.234C1542.2 28.594 1541.57 27.944 1540.97 27.274C1541.02 27.624 1541.05 27.974 1541.08 28.324C1541 28.164 1540.92 28.004 1540.84 27.834C1540.8 28.554 1540.75 29.2739 1540.72 30.0039C1540.69 30.6639 1540.68 31.324 1540.66 31.994C1540.68 32.104 1540.7 32.204 1540.72 32.324C1540.7 32.644 1540.67 32.9639 1540.64 33.2839C1540.56 36.6739 1540.35 40.0939 1538.63 43.0939C1537.52 45.0339 1535.99 46.284 1534.27 47.684C1533.85 48.024 1533.47 48.4039 1533.09 48.7839C1531.7 50.9239 1530.82 53.304 1529.05 55.334C1525.1 59.864 1519.62 60.3239 1514.01 61.1239C1508.68 61.8839 1503.77 65.144 1498.36 63.584C1494.04 62.344 1490.4 59.124 1487.66 55.584C1484.79 51.874 1481.31 48.834 1478.18 45.324C1474.69 41.404 1473.4 36.394 1473.33 31.294C1472.29 27.124 1472.78 22.444 1474.33 18.424C1474.19 18.234 1473.93 18.1239 1473.69 18.2839C1470.76 20.1839 1469.37 24.094 1468.65 27.324C1468.34 28.744 1468.05 30.184 1467.8 31.644C1467.29 33.444 1466.85 35.2539 1466.62 37.0639C1466.29 39.6539 1466.32 42.5239 1466.59 45.4039C1466.15 50.6339 1466.91 55.8639 1469.84 60.5339C1476.07 70.4739 1486.1 77.794 1497.75 80.164C1505.56 81.754 1514.69 80.9639 1522.76 78.0939C1531.59 76.6239 1537.78 68.4739 1541.87 60.2839C1544.42 55.1639 1545.94 49.444 1546.32 43.744C1546.59 39.794 1546.33 32.994 1543.43 29.674L1543.44 29.664Z" fill="#AFAEAE"/>
<path d="M1520.03 9.86398C1518.02 8.61398 1515.91 8.15399 1513.63 7.96399C1511.2 7.18399 1508.52 7.25397 1506.01 7.50397C1504.88 7.61397 1503.69 7.70398 1502.49 7.80398C1497.87 7.13398 1493.4 8.79398 1489.89 11.734C1490.04 11.644 1490.24 11.524 1490.54 11.344C1490.38 11.444 1490.25 11.554 1490.1 11.664C1489.97 11.734 1489.86 11.794 1489.78 11.834C1489.67 11.924 1489.57 12.024 1489.46 12.114C1488.97 12.514 1488.51 12.934 1488.12 13.404C1482.96 18.924 1480.73 27.384 1484.98 34.154C1487.37 37.964 1491.39 40.494 1495.81 41.094C1497.2 41.284 1498.39 41.274 1499.75 41.294C1496.67 41.244 1501.25 41.654 1502.79 41.774C1503.02 41.794 1504.76 41.844 1504.86 41.824C1506.35 41.974 1507.82 42.334 1509.33 42.354C1512.73 42.414 1516.36 41.434 1519.32 39.764C1524.55 36.814 1529.23 31.314 1529.23 25.064C1529.23 18.814 1525.23 13.094 1520.05 9.86398H1520.03Z" fill="#F4F4F4"/>
<path d="M1489.77 11.824C1489.77 11.824 1489.84 11.764 1489.88 11.724C1489.55 11.924 1489.55 11.934 1489.77 11.824Z" fill="#F4F4F4"/>
<path d="M1551.89 45.364C1551.61 39.884 1551.28 34.224 1549.69 28.924C1548.28 24.224 1545.91 19.714 1542.55 16.114C1538.76 12.024 1534.52 7.62398 1530.16 4.17398C1525.6 0.573983 1520.81 -1.51602 1515 -1.92602C1512.35 -2.12602 1509.85 -1.88603 1507.25 -1.61603C1504.43 -1.32603 1501.39 -1.62603 1498.6 -1.11603C1494.03 -0.276025 1488.07 1.07397 1483.85 2.91397C1482.49 3.50397 1479.75 4.58399 1477.43 5.93399C1474.8 7.24399 1472.25 8.69397 1470.05 10.414C1465.2 14.224 1464.71 18.644 1463.42 24.344C1462.25 29.474 1460.21 34.214 1460.02 39.584C1459.86 43.714 1460.65 47.894 1461.35 51.934C1462.03 55.814 1463.76 59.514 1465.88 62.764C1468.58 66.904 1469.16 70.794 1472.94 74.164C1477.01 77.774 1480.06 80.464 1485.06 82.714C1489.65 84.774 1493.08 87.884 1498.25 88.494C1502.7 89.034 1508.14 88.454 1512.56 87.834C1518.63 86.984 1523.99 84.914 1529.46 82.294C1533.11 80.534 1536.96 78.144 1539.24 74.744C1542.67 69.644 1546.82 64.584 1549.73 59.174C1552.14 54.664 1552.15 50.404 1551.89 45.374V45.364ZM1548.43 49.954C1548.29 55.464 1545.42 59.284 1542.35 63.594C1539.28 67.864 1536.7 73.324 1532.34 76.314C1523.85 82.174 1514.54 83.814 1504.5 84.584C1498.73 85.024 1496.52 84.484 1491.59 81.764C1487.97 79.754 1483.68 79.134 1480.33 76.574C1474.05 71.744 1469.14 64.844 1465.8 57.684C1462.1 49.764 1462.74 39.804 1464.99 31.434C1466.35 26.374 1467.4 17.714 1471.28 14.174C1475.06 10.724 1480.79 8.51397 1485.24 6.03397C1485.61 5.83397 1485.84 5.56397 1485.98 5.28397C1489.09 4.35397 1492.23 3.95398 1495.46 3.07398C1499.3 2.01398 1502.61 2.36397 1506.5 1.94397C1511.87 1.36397 1516.73 0.823967 1521.94 3.06397C1527.09 5.25397 1530.07 9.10398 1533.9 12.894C1537.29 16.234 1540.96 18.694 1543.39 23.004C1547.75 30.764 1548.63 41.164 1548.43 49.964V49.954Z" fill="#252523"/>
<path d="M1506.29 11.3139C1506.29 10.4739 1505.64 9.41393 1504.75 9.28393C1503.57 9.11393 1502.14 9.30395 1501.08 9.89395C1500.99 9.94395 1500.91 10.0239 1500.82 10.0939C1499.74 10.0739 1498.83 11.0739 1498.83 12.1239C1498.83 13.2939 1499.76 14.0839 1500.86 14.1539C1501.9 14.2239 1503.01 13.9039 1504.03 13.5639C1504.43 13.4739 1504.81 13.3239 1505.24 13.114L1505.22 13.084C1505.85 12.704 1506.28 12.0639 1506.28 11.2939L1506.29 11.3139Z" fill="#252523"/>
<path d="M1480.03 43.234C1479.52 42.844 1478.95 42.564 1478.37 42.414C1478.37 42.414 1478.37 42.414 1478.36 42.404C1477.46 41.834 1476.23 41.984 1475.42 42.614C1474.66 43.204 1474.08 44.424 1474.47 45.394C1474.64 45.804 1474.78 46.184 1475.03 46.544C1475.11 46.664 1475.18 46.794 1475.27 46.914C1475.3 46.954 1475.3 46.954 1475.32 46.974C1475.4 47.164 1475.46 47.384 1475.54 47.554C1475.67 47.814 1475.86 48.084 1476.06 48.284C1476.22 48.454 1476.47 48.654 1476.67 48.764C1476.73 48.804 1476.71 48.774 1476.66 48.734C1477.59 49.434 1478.51 49.804 1479.71 49.574C1480.77 49.374 1481.74 48.544 1482.02 47.484C1482.51 45.654 1481.39 44.254 1480.03 43.224V43.234Z" fill="#252523"/>
<path d="M1506.45 68.754C1505.4 67.764 1503.9 67.664 1502.69 68.314C1502.1 68.534 1501.57 68.974 1501.23 69.464C1501.21 69.484 1501.2 69.504 1501.18 69.524C1500.64 70.294 1500.76 71.394 1501.18 72.174C1501.21 72.234 1501.25 72.274 1501.29 72.334C1501.34 72.444 1501.39 72.564 1501.46 72.664C1502.09 73.634 1503.32 74.374 1504.5 74.364C1505.41 74.364 1506.26 73.944 1506.76 73.254C1507.07 72.914 1507.32 72.514 1507.42 72.054C1507.69 70.854 1507.35 69.584 1506.45 68.734V68.754Z" fill="#252523"/>
<path d="M1500.17 34.704C1500.04 34.084 1499.7 33.494 1499.41 32.934C1498.63 31.384 1497.25 30.154 1495.44 30.164C1493.72 30.174 1492.4 31.704 1492.63 33.404C1492.7 33.954 1492.91 34.394 1493.2 34.764C1493.24 34.964 1493.31 35.154 1493.4 35.334C1493.4 35.384 1493.41 35.434 1493.42 35.494C1493.47 35.884 1493.56 36.184 1493.76 36.544C1493.85 36.704 1493.95 36.844 1494.05 36.994C1494.54 37.684 1494.99 38.234 1495.78 38.574C1496.92 39.054 1498.35 38.824 1499.25 37.954C1500.14 37.094 1500.43 35.894 1500.17 34.704Z" fill="#252523"/>
<path d="M1513.4 50.634C1513.16 50.794 1512.9 50.914 1512.68 51.094C1512.67 51.094 1512.68 51.094 1512.66 51.114C1512.58 51.134 1512.5 51.164 1512.44 51.184C1511.46 51.464 1510.32 52.064 1510.16 53.194C1510.02 54.204 1510.26 55.134 1511.18 55.694C1511.39 55.824 1511.66 55.924 1511.9 55.994C1512.42 56.144 1512.74 55.974 1513.18 55.974C1513.01 55.994 1512.84 56.024 1513.15 55.994C1513.45 55.964 1513.74 55.934 1514.04 55.874C1515.22 55.654 1516.09 54.994 1516.76 54.004C1518.12 51.974 1515.42 49.314 1513.4 50.644V50.634Z" fill="#252523"/>
<path d="M1483.7 66.7239C1483.49 66.3139 1483.18 65.9339 1482.83 65.6139C1482.8 65.5739 1482.77 65.5339 1482.74 65.5039C1482.73 65.4839 1482.73 65.4739 1482.71 65.4439C1482.67 65.3739 1482.65 65.3339 1482.63 65.3139C1482.12 63.9439 1480.64 62.9039 1479.14 63.3939C1477.54 63.9139 1476.87 65.3339 1477.14 66.9239C1477.38 68.3039 1478.47 69.1039 1479.33 70.1039C1480.23 71.1539 1481.96 71.1139 1482.98 70.3239C1484.11 69.4539 1484.34 67.9839 1483.7 66.7339V66.7239Z" fill="#252523"/>
<path d="M1480.05 44.794C1478.93 43.684 1475.75 42.7439 1475.14 44.9039C1475.01 45.3539 1475.14 45.744 1475.38 46.084C1475.52 46.804 1475.82 47.5139 1476.43 47.9439C1477.19 48.4739 1478.35 48.694 1479.25 48.604C1480.15 48.514 1480.98 48.024 1481.17 47.084C1481.38 46.054 1480.7 45.4539 1480.04 44.8139L1480.05 44.794Z" fill="#AFAEAE"/>
<path d="M1482.97 66.7741C1482.12 65.4741 1481.43 63.854 1479.62 64.034C1478.05 64.184 1477.09 65.904 1477.61 67.354C1477.92 68.204 1478.87 68.9641 1479.55 69.5141C1480.07 69.9341 1480.49 70.584 1481.21 70.604C1481.49 70.604 1481.7 70.4641 1481.82 70.2641C1483.44 70.0041 1483.77 67.9941 1482.97 66.7741Z" fill="#AFAEAE"/>
<path d="M1506.72 70.404C1506.01 69.194 1503.97 68.644 1502.73 69.324C1500.83 70.374 1501.41 73.664 1503.71 73.674C1503.74 73.674 1503.77 73.664 1503.8 73.664C1503.87 73.684 1503.93 73.714 1504 73.734C1504.81 73.924 1505.75 73.784 1506.36 73.174C1507.07 72.464 1507.23 71.294 1506.72 70.414V70.404Z" fill="#AFAEAE"/>
<path d="M1495.81 31.744C1495.53 31.534 1495.16 31.444 1494.76 31.554C1493.26 31.974 1492.8 33.764 1493.55 35.054C1493.59 35.124 1493.85 35.534 1494.02 35.674C1494.09 35.874 1494.18 36.074 1494.28 36.264C1494.6 36.914 1495.08 37.344 1495.74 37.624C1495.91 37.694 1496.08 37.734 1496.24 37.774C1497.33 38.274 1498.65 37.934 1499.16 36.724C1500.04 34.644 1498.09 31.654 1495.82 31.744H1495.81Z" fill="#AFAEAE"/>
<path d="M1516.48 53.214C1516.38 52.074 1515.56 51.714 1514.61 51.714C1513.76 51.584 1512.83 51.7139 1512.27 52.0139C1511.67 52.3339 1510.8 52.9539 1510.63 53.6639C1510.49 54.2639 1510.82 54.8939 1511.36 55.1239C1511.68 55.4339 1512.13 55.6039 1512.63 55.5839C1513.66 55.5439 1515.88 54.954 1516.28 53.774C1516.42 53.634 1516.5 53.444 1516.48 53.214Z" fill="#AFAEAE"/>
<path d="M1505.07 10.8739C1504.95 10.6839 1504.74 10.524 1504.56 10.494C1504.52 10.494 1504.48 10.494 1504.44 10.494C1503.57 10.214 1502.38 10.564 1501.57 10.774C1500.63 11.024 1499.66 11.304 1499.49 12.344C1499.3 12.554 1499.34 12.914 1499.59 13.094C1499.67 13.154 1499.76 13.204 1499.85 13.254C1499.96 13.574 1500.23 13.8439 1500.65 13.8739C1501.39 13.9339 1502.02 13.694 1502.72 13.504C1503.32 13.334 1504.09 13.374 1504.64 13.114C1505.54 12.684 1505.7 11.554 1505.06 10.894L1505.07 10.8739Z" fill="#AFAEAE"/>
<path d="M731.289 83.9575C731.165 83.1721 731.047 82.3818 730.923 81.5964C730.648 80.8354 730.287 80.1037 729.848 79.411C729.336 78.7281 728.661 78.0549 728.07 77.4207C727.912 77.2549 727.76 77.089 727.603 76.9231C726.826 76.4061 726.055 75.8841 725.278 75.367C724.367 75.0304 723.449 74.6987 722.538 74.3621C721.012 73.9475 719.487 73.8889 717.962 74.1865C716.927 74.1865 715.959 74.4158 715.064 74.8646C714.09 75.0987 713.246 75.528 712.531 76.1426C711.67 76.5866 710.983 77.1817 710.471 77.928C709.762 78.5476 709.267 79.2793 708.997 80.1232C708.276 81.3086 707.95 82.5867 708.006 83.9575C708.141 84.8404 708.282 85.7185 708.417 86.6014C708.805 87.3917 709.188 88.1868 709.576 88.9771C710.173 89.6503 710.775 90.3186 711.372 90.9918L713.696 92.5479C714.608 92.8845 715.525 93.2162 716.437 93.5528C717.962 93.9675 719.487 94.026 721.012 93.7284C722.048 93.7284 723.016 93.4992 723.911 93.0504C725.335 92.6504 726.567 91.9626 727.603 90.9918C727.76 90.8259 727.912 90.6601 728.07 90.4942C728.666 89.8552 729.511 89.06 729.848 88.5039C730.079 88.1478 730.265 87.7722 730.405 87.3771C731.047 86.3185 731.34 85.177 731.289 83.9575Z" fill="#F4F4F4"/>
<path d="M1267.44 37C1266.31 37 1265.11 37.4292 1264.3 38.1268C1263.53 38.7951 1262.95 39.8879 1263 40.8489C1263.11 42.9319 1264.96 44.6978 1267.44 44.6978C1268.58 44.6978 1269.78 44.2685 1270.58 43.5709C1271.35 42.9026 1271.93 41.8099 1271.88 40.8489C1271.78 38.7659 1269.93 37 1267.44 37Z" fill="#F4F4F4"/>
<path d="M1072.34 63.5366C1071.16 62.5951 1069.7 62 1068.06 62C1066.51 62 1064.87 62.5854 1063.78 63.5366C1062.72 64.4489 1061.94 65.9416 1062 67.2489C1062.07 68.605 1062.59 70.0148 1063.78 70.9612C1064.96 71.9027 1066.42 72.4978 1068.06 72.4978C1069.61 72.4978 1071.25 71.9125 1072.34 70.9612C1073.44 70.01 1074.18 68.5563 1074.12 67.2489C1074.05 65.8928 1073.53 64.483 1072.34 63.5366Z" fill="#F4F4F4"/>
<path d="M1356.42 530C1349.2 530 1349.19 539.727 1356.42 539.727C1363.65 539.727 1363.65 530 1356.42 530Z" fill="#F4F4F4"/>
<path d="M1380.93 931.768C1378.17 930.49 1374.64 929.978 1371.67 929.134C1370.07 928.681 1368.48 928.227 1366.9 927.715C1366.22 927.495 1365.58 927.241 1364.92 927.037C1364.46 924.28 1363.85 921.076 1362.5 918.388C1362.22 915.905 1362.21 913.427 1362.27 910.944C1362.35 910.456 1362.43 909.968 1362.49 909.48C1362.5 909.324 1362.44 909.197 1362.34 909.104C1362.34 908.992 1362.34 908.875 1362.35 908.763C1362.39 907.714 1360.65 907.778 1360.51 908.763C1360.39 909.592 1360.28 910.412 1360.16 911.236C1358.48 914.792 1358.36 918.802 1358.04 922.597C1358.03 922.788 1358 922.973 1357.99 923.158C1357.91 923.49 1357.84 923.822 1357.75 924.154C1357.47 925.324 1356.93 926.602 1356.51 927.871C1355.48 928.154 1354.45 928.32 1353.42 928.427C1352.3 928.456 1351.15 928.515 1350.01 928.603C1348.41 928.632 1346.78 928.632 1345.1 928.783C1344.78 928.812 1344.52 928.988 1344.37 929.207C1343.9 929.271 1343.43 929.339 1342.97 929.407C1342.93 929.412 1342.89 929.432 1342.85 929.456C1342.57 929.432 1342.27 929.422 1341.99 929.442C1341.18 929.485 1340.63 930.364 1341.29 930.9C1342.44 931.827 1343.74 932.1 1345.18 932.666C1346.81 933.31 1348.4 934.047 1350 934.764C1351.64 935.495 1353.31 936.281 1355.06 936.788C1355.41 938.081 1355.98 939.408 1356.26 940.374C1357.07 943.125 1357.78 945.93 1358.78 948.627C1358.85 948.793 1358.94 948.935 1359.05 949.062C1359.21 949.613 1359.37 950.169 1359.53 950.72C1359.63 951.076 1359.84 951.31 1360.1 951.447C1360.08 952.013 1360.1 952.564 1360.18 953.101C1360.24 953.51 1360.88 953.764 1361.15 953.33C1362.9 950.588 1363.17 946.744 1363.93 943.696C1364.61 940.993 1365.34 938.291 1365.99 935.578C1369.85 935.447 1373.84 934.715 1377.5 933.773C1378.43 933.973 1379.34 934.09 1380.2 934.056C1381.54 934.008 1382.21 932.368 1380.92 931.768H1380.93Z" fill="#F4F4F4"/>
<path d="M1487.89 366.608C1485.96 365.715 1483.51 365.354 1481.42 364.769C1480.31 364.452 1479.19 364.135 1478.09 363.779C1477.62 363.627 1477.17 363.447 1476.71 363.305C1476.39 361.383 1475.96 359.139 1475.02 357.261C1474.83 355.53 1474.82 353.793 1474.86 352.061C1474.91 351.72 1474.97 351.378 1475.01 351.037C1475.02 350.925 1474.97 350.837 1474.9 350.773C1474.9 350.695 1474.9 350.612 1474.91 350.534C1474.93 349.798 1473.72 349.846 1473.62 350.534C1473.54 351.115 1473.45 351.686 1473.38 352.261C1472.2 354.744 1472.12 357.549 1471.9 360.198C1471.89 360.33 1471.87 360.457 1471.86 360.588C1471.81 360.822 1471.76 361.052 1471.7 361.286C1471.51 362.105 1471.12 362.993 1470.84 363.886C1470.11 364.086 1469.4 364.203 1468.68 364.276C1467.89 364.296 1467.09 364.34 1466.3 364.398C1465.18 364.418 1464.04 364.418 1462.87 364.525C1462.64 364.544 1462.46 364.666 1462.35 364.822C1462.02 364.866 1461.7 364.915 1461.38 364.964C1461.34 364.969 1461.31 364.983 1461.29 364.998C1461.09 364.983 1460.89 364.974 1460.69 364.988C1460.13 365.018 1459.74 365.632 1460.21 366.008C1461 366.657 1461.91 366.847 1462.92 367.242C1464.07 367.691 1465.17 368.208 1466.29 368.705C1467.43 369.218 1468.6 369.764 1469.83 370.12C1470.07 371.023 1470.47 371.949 1470.67 372.628C1471.23 374.55 1471.73 376.511 1472.43 378.394C1472.47 378.511 1472.54 378.608 1472.62 378.696C1472.73 379.081 1472.84 379.472 1472.95 379.857C1473.03 380.106 1473.17 380.267 1473.35 380.364C1473.34 380.759 1473.35 381.145 1473.41 381.52C1473.45 381.808 1473.9 381.984 1474.09 381.681C1475.31 379.764 1475.5 377.081 1476.03 374.95C1476.5 373.062 1477.01 371.174 1477.47 369.281C1480.16 369.188 1482.95 368.676 1485.51 368.018C1486.16 368.159 1486.8 368.237 1487.41 368.213C1488.34 368.179 1488.81 367.037 1487.91 366.613L1487.89 366.608Z" fill="#F4F4F4"/>
<path d="M1224.3 456.239C1224.18 456.122 1224.05 456.004 1223.93 455.882C1221.84 453.926 1218 455.482 1218 458.009C1218 460.536 1221.85 462.088 1223.93 460.136C1224.05 460.019 1224.18 459.902 1224.3 459.78C1225.4 458.756 1225.4 457.263 1224.3 456.234V456.239Z" fill="#F0903F"/>
<path d="M879.303 187.239C879.179 187.122 879.05 187.004 878.926 186.882C876.844 184.926 873 186.482 873 189.009C873 191.536 876.849 193.088 878.926 191.136C879.05 191.019 879.179 190.902 879.303 190.78C880.395 189.756 880.401 188.263 879.303 187.234V187.239Z" fill="#F0903F"/>
<path d="M1370.26 235.59C1369.79 235.181 1369.24 234.868 1368.71 234.527C1368.02 234.176 1367.27 234 1366.46 234C1365.66 234 1364.9 234.181 1364.21 234.527C1362.86 235.215 1362 236.503 1362 237.868C1362 239.234 1362.86 240.522 1364.21 241.21C1364.91 241.561 1365.66 241.737 1366.46 241.737C1367.27 241.737 1368.02 241.556 1368.71 241.21C1369.24 240.868 1369.79 240.551 1370.26 240.146C1371.67 238.893 1371.67 236.859 1370.26 235.6V235.59Z" fill="#F0903F"/>
<path d="M1196.27 120.827C1195.85 120.27 1195.42 119.709 1195 119.153C1194.49 118.485 1193.65 117.963 1192.68 118.002C1191.98 118.031 1191.3 118.236 1190.79 118.685C1190.3 119.105 1190 119.734 1190 120.329C1190 121.183 1190.53 121.88 1191.33 122.334C1191.97 122.7 1192.62 123.07 1193.26 123.436C1194.04 123.88 1195.29 123.734 1195.92 123.139C1196.56 122.539 1196.82 121.553 1196.26 120.831L1196.27 120.827Z" fill="#F0903F"/>
<path d="M921.503 315.314C921.413 315.241 921.323 315.168 921.233 315.095C919.714 313.851 917.057 313.558 915.403 314.787C915.189 314.841 914.986 314.909 914.783 314.987C913.27 315.265 911.925 316.295 912.003 317.758C912.082 319.241 913.168 320.202 914.699 320.509C914.919 320.602 915.149 320.68 915.391 320.744C916.129 321.261 917.282 321.602 918.138 321.573C919.325 321.529 920.35 321.168 921.233 320.461L921.503 320.246C923.073 318.997 923.034 316.568 921.503 315.314Z" fill="#F0903F"/>
<path d="M973.101 213.303C972.718 212.84 972.33 212.498 971.682 212.337C971.542 212.303 971.395 212.279 971.255 212.25C970.951 212.186 970.647 212.128 970.337 212.064C968.677 211.728 967 212.752 967 214.269C967 214.855 967.293 215.469 967.771 215.884C968.458 216.479 969.409 216.659 970.337 216.474C970.641 216.411 970.945 216.352 971.255 216.289C971.395 216.259 971.542 216.235 971.682 216.201C972.335 216.035 972.718 215.698 973.101 215.235C973.517 214.728 973.517 213.811 973.101 213.308V213.303Z" fill="#F0903F"/>
<path d="M982.596 89.5413C982.399 88.1657 982.236 87.0047 980.919 86.1022C979.698 85.268 978.161 85.351 976.895 84.707C975.55 84.029 974.43 82.5411 973.383 81.5606C972.241 80.4874 971.093 79.4191 969.95 78.3459C965.375 74.0629 960.833 69.7408 956.196 65.5066C946.915 57.0429 937.708 48.511 928.405 40.0669C928.185 39.8669 927.864 40.1596 928.061 40.3645C936.644 49.1988 945.373 57.9259 953.939 66.7749C958.154 71.1311 962.516 75.3946 966.815 79.6874C968.903 81.7753 971.025 83.8387 973.068 85.9607C973.473 86.4144 973.895 86.8486 974.346 87.273C974.306 87.5461 974.261 87.8144 974.222 88.0876C974.374 88.6535 974.419 89.1803 974.667 89.7316C975.37 91.3072 976.546 91.9658 978.375 92.3316C980.255 92.7072 982.889 91.5072 982.608 89.5364L982.596 89.5413Z" fill="#F0903F"/>
<path d="M1430.01 121.536C1428.7 117.902 1424.3 115.009 1421.52 112.155C1418.37 108.911 1415.28 105.628 1412.11 102.399C1405.47 95.6379 1399.8 88.0426 1394.03 80.7253C1382.81 66.5104 1372.16 51.949 1361.9 37.2023C1361.58 36.7388 1360.76 37.1535 1361.07 37.6267C1371 52.7295 1381.67 67.4323 1392.93 81.8132C1398.45 88.8621 1404.43 95.6769 1409.74 102.843C1412.39 106.419 1415.07 109.97 1417.84 113.477C1419.23 115.229 1420.58 116.99 1421.92 118.77C1423.33 120.658 1424.48 122.521 1426.75 123.717C1428.38 124.57 1430.59 123.151 1430.02 121.541L1430.01 121.536Z" fill="#F4F4F4"/>
<path d="M1373.02 642.177C1372.69 642.323 1372.35 642.47 1372.02 642.616C1371.66 642.772 1371.31 642.884 1371.09 643.187C1370.97 643.343 1370.97 643.587 1371.09 643.743C1371.32 644.045 1371.66 644.158 1372.02 644.314C1372.35 644.46 1372.69 644.606 1373.02 644.753C1374.16 645.255 1375.61 644.645 1375.61 643.465C1375.61 642.284 1374.16 641.675 1373.02 642.177Z" fill="#F4F4F4"/>
<path d="M1444.23 483C1442.59 483 1442.59 485.215 1444.23 485.215C1445.88 485.215 1445.88 483 1444.23 483Z" fill="#F0903F"/>
<path d="M1442.23 880.91C1441.55 880.368 1440.65 879.964 1439.7 880.003L1438.74 880.115C1438.14 880.261 1437.61 880.529 1437.16 880.915C1436.79 881.168 1436.4 881.412 1436.05 881.681C1435.7 881.949 1435.4 882.276 1435.08 882.578C1434.42 883.208 1434 883.983 1434 884.842C1434 885.627 1434.41 886.569 1435.08 887.105C1436.62 888.325 1438.78 888.31 1440.31 887.105C1440.66 886.832 1441.03 886.573 1441.34 886.266C1441.66 885.959 1441.94 885.622 1442.23 885.3C1442.84 884.632 1443.27 883.998 1443.27 883.105C1443.27 882.344 1442.89 881.432 1442.23 880.91Z" fill="#F0903F"/>
<path d="M1195.97 931C1192.01 931 1192.01 936.337 1195.97 936.337C1199.94 936.337 1199.94 931 1195.97 931Z" fill="#F4F4F4"/>
<path d="M1063.12 482C1058.96 482 1058.96 487.6 1063.12 487.6C1067.29 487.6 1067.29 482 1063.12 482Z" fill="#F4F4F4"/>
<path d="M1273.29 743C1270.24 743 1270.23 747.117 1273.29 747.117C1276.36 747.117 1276.36 743 1273.29 743Z" fill="#F0903F"/>
<path d="M818.294 55C815.238 55 815.232 59.1172 818.294 59.1172C821.356 59.1172 821.356 55 818.294 55Z" fill="#F0903F"/>
<path d="M1474.6 730.393C1473.85 730.213 1473.15 729.935 1472.43 729.686C1472.14 729.584 1471.82 729.442 1471.51 729.364C1470.71 729.354 1470.5 729.315 1470.86 729.252C1470.66 729.198 1470.44 729.14 1470.23 729.086C1469.02 728.764 1467.66 729.379 1467.2 730.379C1466.69 731.486 1467.2 732.476 1468.25 733.164C1468.84 733.55 1469.3 733.915 1470.01 734.301C1470.29 734.457 1470.58 734.608 1470.86 734.764C1470.95 734.818 1471.78 735.281 1471.46 735.062C1473.06 736.159 1475.38 736.164 1476.51 734.496C1477.55 732.95 1476.59 730.886 1474.59 730.403L1474.6 730.393Z" fill="#F0903F"/>
<path d="M707.51 850C702.833 850 702.827 856.298 707.51 856.298C712.192 856.298 712.192 850 707.51 850Z" fill="#F4F4F4"/>
<path d="M511.907 861.814C511.777 860.96 511.237 860.482 510.241 860.37C509.689 860.306 509.127 860.575 508.62 860.828C507.928 860.936 507.382 861.321 506.797 861.697C506.059 862.17 505.457 862.799 505.502 863.653C505.536 864.253 505.767 864.824 506.268 865.253C506.74 865.663 507.444 865.916 508.114 865.916C509.11 865.916 509.808 865.458 510.37 864.794C510.798 864.292 511.243 863.814 511.372 863.214C511.67 862.77 511.974 862.282 511.907 861.804V861.814Z" fill="#F4F4F4"/>
<path d="M605.273 912C602.245 912 602.24 916.078 605.273 916.078C608.306 916.078 608.306 912 605.273 912Z" fill="#F0903F"/>
<path d="M975.826 926.5C975.083 926.261 974.25 926.124 973.462 926.031C972.652 925.939 971.779 926.075 970.969 926.134C969.427 926.246 967.924 927.236 968.003 928.705C968.082 930.192 969.309 931.158 970.969 931.275C971.785 931.334 972.652 931.471 973.462 931.378C974.244 931.285 975.083 931.153 975.826 930.91C978.319 930.1 978.325 927.309 975.826 926.495V926.5Z" fill="#F0903F"/>
<path d="M798.516 923.757C795.038 923.757 795.032 928.445 798.516 928.445C802 928.445 802 923.757 798.516 923.757Z" fill="#F0903F"/>
<path d="M323.955 934.033C322.891 934.336 321.94 934.819 320.955 935.272C319.836 935.794 319.695 937.185 320.561 937.936C321.423 938.682 323.032 938.56 323.634 937.594C324.163 936.741 324.715 935.916 325.064 934.994C325.272 934.438 324.597 933.853 323.955 934.033Z" fill="#F0903F"/>
<path d="M554.588 842.07L554.414 840.27C554.352 839.66 554.16 839.114 553.648 838.665C553.192 838.27 552.449 837.977 551.797 838.001C550.283 838.06 549.303 839.001 549.18 840.27L549.005 842.07C548.949 842.655 549.36 843.377 549.821 843.782C550.283 844.187 551.099 844.519 551.797 844.489C553.204 844.436 554.718 843.421 554.588 842.07Z" fill="#F0903F"/>
<path d="M826.384 667.214C824.937 666.024 822.861 665.663 821.02 666.336C820.216 666.634 819.591 667.043 819.056 667.648C818.415 668.365 817.953 669.292 818.004 670.229C818.083 671.712 818.927 673.136 820.435 673.902C822.354 674.878 824.802 674.541 826.384 673.239C827.402 672.4 828.325 671.565 828.325 670.229C828.325 668.892 827.397 668.053 826.384 667.219V667.214Z" fill="#F4F4F4"/>
<path d="M121.709 934.739C121.315 934.251 120.921 933.763 120.527 933.276C119.936 932.544 119.058 931.958 117.966 932.002C117.178 932.032 116.435 932.266 115.867 932.754C115.326 933.222 115 933.915 115 934.573C115 935.539 115.591 936.261 116.469 936.793C117.032 937.134 117.594 937.476 118.157 937.817C118.366 937.895 118.574 937.968 118.776 938.046C119.12 938.139 119.469 938.154 119.812 938.085C120.358 938.022 120.921 937.827 121.303 937.466C121.607 937.178 121.832 936.841 121.973 936.471C122.159 935.973 122.063 935.173 121.709 934.734V934.739Z" fill="#F0903F"/>
<path d="M871.273 419C868.245 419 868.24 423.078 871.273 423.078C874.306 423.078 874.306 419 871.273 419Z" fill="#F0903F"/>
<path d="M880.735 811.475L880.015 809.695C879.638 808.763 878.664 807.953 877.449 808.002C876.216 808.051 875.288 808.695 874.882 809.695L874.162 811.475C873.419 813.31 875.355 815.212 877.449 815.212C879.542 815.212 881.478 813.305 880.735 811.475Z" fill="#F0903F"/>
<path d="M613.577 44.3592C612.896 43.8177 611.995 43.4128 611.044 43.4518L610.093 43.564C609.485 43.7104 608.956 43.9787 608.512 44.364C608.14 44.6177 607.746 44.8616 607.397 45.1299C607.048 45.3982 606.744 45.725 606.429 46.0275C605.771 46.6568 605.349 47.4324 605.349 48.291C605.349 49.0763 605.754 50.0178 606.429 50.5544C607.966 51.774 610.127 51.7593 611.658 50.5544C612.007 50.2813 612.384 50.0227 612.693 49.7154C613.008 49.4081 613.284 49.0715 613.577 48.7495C614.19 48.0812 614.623 47.447 614.623 46.5543C614.623 45.7933 614.235 44.8811 613.577 44.3592Z" fill="#F0903F"/>
<path d="M838.39 257.41C838.001 257.127 837.63 256.922 837.174 256.741C836.898 256.634 836.628 256.527 836.352 256.42C835.795 256.141 835.198 256 834.557 256C833.915 256 833.313 256.141 832.762 256.42C831.681 256.971 831 257.995 831 259.083C831 260.171 831.681 261.2 832.762 261.746C833.319 262.025 833.915 262.166 834.557 262.166C835.198 262.166 835.801 262.025 836.352 261.746C836.628 261.639 836.898 261.532 837.174 261.425C837.647 261.239 837.967 261.059 838.39 260.756C839.453 259.985 839.448 258.181 838.39 257.41Z" fill="#F0903F"/>
<path d="M232.568 928C229.147 928 229.141 932.61 232.568 932.61C235.996 932.61 235.996 928 232.568 928Z" fill="#F0903F"/>
<path d="M278.201 863.25C277.74 862.42 276.778 862.03 275.916 861.571C275.1 861.137 274.284 860.708 273.468 860.274C272.281 859.645 270.716 860.157 270.193 861.23C269.613 862.42 270.407 863.484 271.69 863.932C272.568 864.24 273.446 864.547 274.324 864.854C275.331 865.206 276.125 865.508 277.233 865.323C278.342 865.137 278.623 864.006 278.207 863.25H278.201Z" fill="#F0903F"/>
<path d="M258.072 54.319L257.942 52.5189C257.891 51.8506 257.65 51.2262 257.092 50.7384C256.591 50.3042 255.764 49.9725 255.038 50.0018C253.384 50.0652 252.235 51.1092 252.134 52.5189L252.005 54.319C251.903 55.6946 253.468 57.0068 255.038 56.9483C256.597 56.8898 258.173 55.7922 258.072 54.319Z" fill="#F0903F"/>
<path d="M378.915 105C377.626 105 376.776 106.063 377.052 107.122C377.21 107.742 377.373 108.342 377.604 108.942C378.037 110.064 379.798 110.064 380.232 108.942C380.463 108.342 380.626 107.742 380.783 107.122C381.053 106.063 380.215 105 378.92 105H378.915Z" fill="#F0903F"/>
<path d="M649.784 135C646.075 135 646.069 139.99 649.784 139.99C653.498 139.99 653.498 135 649.784 135Z" fill="#F0903F"/>
<path d="M44.5562 808.683C44.0328 808.263 43.3856 808 42.6596 808C41.9729 808 41.2469 808.259 40.7629 808.683C40.0482 809.302 39.885 810.112 40.0707 810.946C40.2114 811.561 40.3521 812.181 40.4928 812.795C40.6785 813.595 41.7309 814.259 42.6539 814.225C43.5938 814.19 44.6181 813.654 44.8151 812.795C44.9558 812.181 45.0965 811.561 45.2372 810.946C45.4229 810.146 45.2822 809.268 44.5449 808.683H44.5562Z" fill="#F0903F"/>
<path d="M471.955 48.0333C470.891 48.3358 469.94 48.8187 468.955 49.2724C467.836 49.7944 467.695 51.1846 468.561 51.9359C469.423 52.6822 471.032 52.5603 471.634 51.5944C472.163 50.7407 472.715 49.9163 473.064 48.9943C473.272 48.4382 472.597 47.8528 471.955 48.0333Z" fill="#F0903F"/>
</g>
<defs>
<clipPath id="clip0_1_3">
<rect width="1512" height="982" fill="white"/>
</clipPath>
</defs>
</svg>
