<svg width="1512" height="982" viewBox="0 0 1512 982" fill="none" xmlns="http://www.w3.org/2000/svg">
<path d="M1349.65 843.029C1349.6 842.932 1349.55 842.835 1349.5 842.733C1348.62 841.108 1347 842.401 1347 844.501C1347 846.601 1348.62 847.89 1349.5 846.268C1349.55 846.171 1349.6 846.074 1349.65 845.972C1350.11 845.121 1350.12 843.881 1349.65 843.025V843.029Z" fill="#F0903F"/>
<path d="M941.424 248.823C941.337 248.746 941.246 248.668 941.159 248.587C939.698 247.286 937 248.321 937 250.001C937 251.681 939.702 252.712 941.159 251.415C941.246 251.337 941.337 251.259 941.424 251.178C942.19 250.497 942.194 249.505 941.424 248.82V248.823Z" fill="#F0903F"/>
<path d="M1141.73 201.985C1141.34 201.595 1140.95 201.201 1140.57 200.81C1140.1 200.341 1139.34 199.974 1138.45 200.001C1137.81 200.022 1137.19 200.166 1136.72 200.481C1136.28 200.776 1136 201.218 1136 201.636C1136 202.235 1136.48 202.725 1137.21 203.044C1137.8 203.301 1138.39 203.561 1138.98 203.818C1139.69 204.13 1140.83 204.027 1141.41 203.609C1141.99 203.188 1142.23 202.496 1141.72 201.989L1141.73 201.985Z" fill="#F0903F"/>
<path d="M999.805 267.147C999.566 266.739 999.324 266.439 998.921 266.297C998.833 266.267 998.742 266.245 998.654 266.22C998.464 266.164 998.275 266.112 998.082 266.056C997.046 265.76 996 266.662 996 267.998C996 268.513 996.183 269.054 996.481 269.419C996.909 269.943 997.502 270.102 998.082 269.939C998.271 269.883 998.461 269.831 998.654 269.775C998.742 269.75 998.833 269.728 998.921 269.698C999.328 269.552 999.566 269.256 999.805 268.848C1000.06 268.401 1000.06 267.594 999.805 267.152V267.147Z" fill="#F0903F"/>
<path d="M1006.98 180.981C1006.85 180.01 1006.75 179.19 1005.9 178.553C1005.12 177.964 1004.14 178.022 1003.33 177.568C1002.47 177.089 1001.75 176.038 1001.08 175.346C1000.34 174.588 999.609 173.834 998.877 173.076C995.946 170.052 993.036 167 990.065 164.01C984.119 158.034 978.22 152.01 972.259 146.047C972.119 145.906 971.913 146.113 972.039 146.257C977.538 152.495 983.131 158.658 988.619 164.906C991.319 167.982 994.114 170.992 996.869 174.023C998.207 175.498 999.566 176.955 1000.87 178.453C1001.13 178.773 1001.4 179.08 1001.69 179.38C1001.67 179.573 1001.64 179.762 1001.61 179.955C1001.71 180.354 1001.74 180.726 1001.9 181.116C1002.35 182.228 1003.1 182.693 1004.28 182.952C1005.48 183.217 1007.17 182.369 1006.99 180.978L1006.98 180.981Z" fill="#F0903F"/>
<path d="M1252.75 567.181C1252.46 567.331 1252.17 567.481 1251.88 567.631C1251.57 567.791 1251.27 567.906 1251.08 568.215C1250.97 568.375 1250.97 568.625 1251.08 568.785C1251.28 569.094 1251.57 569.209 1251.88 569.369C1252.17 569.519 1252.46 569.669 1252.75 569.819C1253.74 570.333 1255 569.709 1255 568.5C1255 567.291 1253.74 566.667 1252.75 567.181V567.181Z" fill="#F4F4F4"/>
<path d="M1055 497C1053.67 497 1053.67 501 1055 501C1056.33 501 1056.33 497 1055 497Z" fill="#F4F4F4"/>
<path d="M1190 638C1188.67 638 1188.67 641 1190 641C1191.33 641 1191.33 638 1190 638Z" fill="#F0903F"/>
<path d="M843 127C841.668 127 841.666 130 843 130C844.333 130 844.333 127 843 127Z" fill="#F0903F"/>
<path d="M831.499 781C828.169 781 828.165 785 831.499 785C834.834 785 834.834 781 831.499 781Z" fill="#F4F4F4"/>
<path d="M707.996 789.785C707.935 789.324 707.682 789.066 707.217 789.005C706.959 788.971 706.696 789.116 706.459 789.253C706.135 789.311 705.88 789.519 705.606 789.722C705.262 789.977 704.98 790.317 705.001 790.778C705.017 791.102 705.125 791.41 705.359 791.642C705.58 791.863 705.909 792 706.222 792C706.688 792 707.014 791.752 707.277 791.394C707.477 791.123 707.685 790.865 707.746 790.541C707.885 790.301 708.027 790.038 707.996 789.779V789.785Z" fill="#F4F4F4"/>
<path d="M767 825C765.668 825 765.666 827 767 827C768.333 827 768.333 825 767 825Z" fill="#F0903F"/>
<path d="M888.999 833C886.336 833 886.331 836 888.999 836C891.667 836 891.667 833 888.999 833Z" fill="#F0903F"/>
<path d="M590.101 840.023C589.267 840.228 588.521 840.556 587.749 840.864C586.871 841.218 586.761 842.162 587.44 842.672C588.115 843.179 589.377 843.096 589.849 842.44C590.264 841.861 590.696 841.301 590.97 840.675C591.133 840.297 590.604 839.9 590.101 840.023V840.023Z" fill="#F0903F"/>
<path d="M783.315 75.1209C783.098 75.2208 782.878 75.3207 782.662 75.4206C782.428 75.5271 782.204 75.6037 782.058 75.8102C781.981 75.9167 781.981 76.0833 782.058 76.1898C782.208 76.3963 782.428 76.4729 782.662 76.5794C782.878 76.6793 783.098 76.7792 783.315 76.8791C784.058 77.2221 785 76.8059 785 76C785 75.1941 784.058 74.7779 783.315 75.1209V75.1209Z" fill="#F4F4F4"/>
<path d="M462.747 839.788C462.468 839.469 462.19 839.151 461.911 838.833C461.493 838.355 460.871 837.973 460.099 838.002C459.541 838.021 459.016 838.173 458.613 838.492C458.231 838.798 458 839.25 458 839.68C458 840.31 458.418 840.781 459.039 841.128C459.438 841.351 459.836 841.574 460.234 841.797C460.382 841.848 460.529 841.896 460.672 841.947C460.915 842.007 461.162 842.017 461.405 841.972C461.791 841.931 462.19 841.803 462.46 841.568C462.675 841.38 462.835 841.16 462.934 840.918C463.066 840.593 462.998 840.071 462.747 839.785V839.788Z" fill="#F0903F"/>
<path d="M713.436 120.568C713.069 120.23 712.583 119.977 712.07 120.002L711.558 120.072C711.23 120.163 710.945 120.33 710.705 120.571C710.505 120.729 710.292 120.881 710.104 121.049C709.916 121.216 709.752 121.42 709.583 121.609C709.228 122.001 709 122.485 709 123.021C709 123.511 709.218 124.098 709.583 124.433C710.411 125.194 711.576 125.184 712.401 124.433C712.589 124.262 712.792 124.101 712.959 123.909C713.129 123.718 713.278 123.508 713.436 123.307C713.766 122.89 714 122.494 714 121.937C714 121.462 713.791 120.893 713.436 120.568V120.568Z" fill="#F0903F"/>
<path d="M706.828 59.7789C706.698 59.4009 706.689 58.9325 706.637 58.5463C706.563 58.3778 706.489 58.2135 706.411 58.045C706.273 57.7985 706.082 57.6054 705.839 57.4534C705.467 57.1781 704.981 56.9809 704.496 57.0015C704.101 57.0179 703.724 57.1124 703.377 57.2891C702.957 57.4986 702.424 58.082 702.359 58.5463C702.302 58.9325 702.298 59.4009 702.168 59.7789C701.912 60.4527 701.934 61.1758 702.333 61.8208C702.779 62.5439 703.616 63 704.5 63C705.384 63 706.221 62.5439 706.667 61.8208C707.066 61.1758 707.088 60.4486 706.832 59.7789H706.828Z" fill="#F0903F"/>
<path d="M531.499 836C529.502 836 529.499 839 531.499 839C533.5 839 533.5 836 531.499 836Z" fill="#F0903F"/>
<path d="M561.843 790.416C561.458 789.8 560.655 789.51 559.936 789.169C559.255 788.846 558.574 788.526 557.894 788.204C556.903 787.736 555.598 788.117 555.161 788.915C554.677 789.8 555.339 790.591 556.41 790.924C557.142 791.153 557.875 791.381 558.607 791.61C559.448 791.871 560.11 792.096 561.035 791.958C561.96 791.82 562.195 790.979 561.847 790.416H561.843Z" fill="#F0903F"/>
<path d="M851.999 876C849.335 876 849.332 880 851.999 880C854.667 880 854.667 876 851.999 876Z" fill="#F4F4F4"/>
<path d="M686.996 870.046C686.935 869.432 686.682 869.088 686.217 869.007C685.959 868.961 685.696 869.154 685.459 869.337C685.135 869.414 684.88 869.692 684.606 869.962C684.262 870.303 683.98 870.756 684.001 871.37C684.017 871.802 684.125 872.213 684.359 872.522C684.58 872.817 684.909 873 685.222 873C685.688 873 686.014 872.67 686.277 872.192C686.477 871.83 686.685 871.486 686.746 871.054C686.885 870.735 687.027 870.384 686.996 870.039V870.046Z" fill="#F4F4F4"/>
<path d="M401.997 89.1071L401.912 87.8121C401.878 87.3314 401.719 86.8822 401.352 86.5312C401.023 86.2189 400.478 85.9802 400 86.0013C398.911 86.0469 398.155 86.7979 398.088 87.8121L398.003 89.1071C397.936 90.0967 398.966 91.0408 400 90.9986C401.026 90.9565 402.064 90.1669 401.997 89.1071V89.1071Z" fill="#F0903F"/>
<path d="M573.998 44C572.653 44 571.767 44.8893 572.054 45.7746C572.219 46.2927 572.389 46.7945 572.63 47.2963C573.082 48.2346 574.92 48.2346 575.372 47.2963C575.613 46.7945 575.783 46.2927 575.947 45.7746C576.229 44.8893 575.354 44 574.004 44H573.998Z" fill="#F0903F"/>
<path d="M414.431 752.439C414.037 752.169 413.55 752 413.003 752C412.486 752 411.939 752.166 411.575 752.439C411.036 752.837 410.913 753.357 411.053 753.893C411.159 754.288 411.265 754.686 411.371 755.081C411.511 755.595 412.304 756.021 412.999 755.999C413.707 755.977 414.478 755.632 414.626 755.081C414.732 754.686 414.838 754.288 414.944 753.893C415.084 753.379 414.978 752.815 414.423 752.439H414.431Z" fill="#F0903F"/>
<path d="M624.326 122.03C623.7 122.304 623.141 122.741 622.562 123.152C621.903 123.624 621.821 124.883 622.33 125.563C622.836 126.238 623.783 126.128 624.137 125.254C624.448 124.481 624.772 123.735 624.977 122.9C625.1 122.397 624.703 121.867 624.326 122.03V122.03Z" fill="#F0903F"/>
<path d="M1121.88 666.121C1121.73 666.221 1121.59 666.321 1121.44 666.421C1121.29 666.527 1121.14 666.604 1121.04 666.81C1120.99 666.917 1120.99 667.083 1121.04 667.19C1121.14 667.396 1121.29 667.473 1121.44 667.579C1121.59 667.679 1121.73 667.779 1121.88 667.879C1122.37 668.222 1123 667.806 1123 667C1123 666.194 1122.37 665.778 1121.88 666.121V666.121Z" fill="#F4F4F4"/>
<path d="M1527.67 663.999C1526.38 663.355 1524.73 663.095 1523.34 662.669C1522.59 662.44 1521.85 662.211 1521.11 661.954C1520.79 661.844 1520.49 661.714 1520.18 661.612C1519.97 660.222 1519.68 658.603 1519.05 657.247C1518.92 655.996 1518.91 654.745 1518.95 653.487C1518.98 653.242 1519.02 652.996 1519.05 652.747C1519.06 652.668 1519.02 652.603 1518.97 652.558C1518.97 652.502 1518.98 652.442 1518.98 652.386C1519 651.855 1518.19 651.889 1518.12 652.386C1518.06 652.804 1518.01 653.219 1517.96 653.634C1517.17 655.431 1517.11 657.454 1516.97 659.369C1516.96 659.465 1516.95 659.558 1516.94 659.652C1516.9 659.818 1516.87 659.988 1516.84 660.154C1516.7 660.748 1516.45 661.389 1516.26 662.033C1515.77 662.177 1515.29 662.262 1514.81 662.313C1514.28 662.327 1513.75 662.358 1513.21 662.4C1512.46 662.414 1511.7 662.414 1510.92 662.491C1510.77 662.505 1510.65 662.592 1510.57 662.705C1510.35 662.739 1510.14 662.77 1509.92 662.807C1509.9 662.81 1509.88 662.818 1509.86 662.83C1509.73 662.818 1509.6 662.813 1509.46 662.821C1509.09 662.844 1508.83 663.287 1509.14 663.556C1509.67 664.025 1510.28 664.163 1510.95 664.448C1511.72 664.773 1512.46 665.146 1513.21 665.508C1513.97 665.878 1514.76 666.273 1515.58 666.53C1515.74 667.183 1516 667.852 1516.14 668.341C1516.52 669.728 1516.85 671.146 1517.32 672.508C1517.35 672.593 1517.39 672.663 1517.44 672.728C1517.52 673.008 1517.59 673.288 1517.67 673.567C1517.71 673.748 1517.81 673.864 1517.93 673.935C1517.93 674.22 1517.93 674.5 1517.97 674.771C1518 674.977 1518.3 675.104 1518.43 674.887C1519.25 673.502 1519.37 671.564 1519.73 670.025C1520.04 668.66 1520.38 667.296 1520.69 665.929C1522.49 665.861 1524.36 665.491 1526.07 665.016C1526.51 665.118 1526.93 665.174 1527.34 665.157C1527.96 665.132 1528.28 664.307 1527.67 664.002L1527.67 663.999Z" fill="#F4F4F4"/>
<path d="M1398 746C1396.67 746 1396.66 747 1398 747C1399.33 747 1399.33 746 1398 746Z" fill="#F0903F"/>
<path d="M1243.65 770.618C1243.6 770.559 1243.55 770.501 1243.5 770.44C1242.62 769.465 1241 770.241 1241 771.501C1241 772.761 1242.62 773.534 1243.5 772.561C1243.55 772.503 1243.6 772.444 1243.65 772.383C1244.11 771.873 1244.12 771.128 1243.65 770.615V770.618Z" fill="#F0903F"/>
<path d="M1206.86 845.985C1206.67 845.595 1206.48 845.201 1206.28 844.81C1206.05 844.341 1205.67 843.974 1205.23 844.001C1204.9 844.022 1204.59 844.166 1204.36 844.481C1204.14 844.776 1204 845.218 1204 845.636C1204 846.235 1204.24 846.725 1204.61 847.044C1204.9 847.301 1205.2 847.561 1205.49 847.818C1205.85 848.13 1206.42 848.027 1206.71 847.609C1207 847.188 1207.11 846.496 1206.86 845.989L1206.86 845.985Z" fill="#F0903F"/>
<path d="M1165.85 877.86C1165.67 877.554 1165.49 877.329 1165.19 877.223C1165.12 877.2 1165.06 877.184 1164.99 877.165C1164.85 877.123 1164.71 877.084 1164.56 877.042C1163.78 876.82 1163 877.497 1163 878.498C1163 878.885 1163.14 879.291 1163.36 879.564C1163.68 879.957 1164.13 880.076 1164.56 879.954C1164.7 879.912 1164.85 879.873 1164.99 879.832C1165.06 879.812 1165.12 879.796 1165.19 879.774C1165.5 879.664 1165.67 879.442 1165.85 879.136C1166.05 878.801 1166.05 878.195 1165.85 877.864V877.86Z" fill="#F0903F"/>
<path d="M1512.65 802.101C1511.65 800.442 1510.73 798.786 1509.64 797.183C1507.35 793.814 1505.92 789.837 1504.31 786.131C1501.17 778.88 1498.26 771.528 1495.45 764.15C1495.35 763.887 1494.92 763.997 1495.01 764.269C1497.82 771.842 1500.83 779.33 1503.88 786.816C1505.39 790.527 1507.19 794.194 1508.17 798.083C1508.64 799.943 1509.29 801.716 1509.88 803.539C1510.48 805.407 1510.92 807.508 1512.57 808.734C1513.63 809.515 1514.92 808.428 1514.99 807.378C1515.12 805.495 1513.58 803.661 1512.65 802.104V802.101Z" fill="#F4F4F4"/>
<path d="M1064.44 703.568C1064.07 703.23 1063.58 702.977 1063.07 703.002L1062.56 703.072C1062.23 703.163 1061.94 703.33 1061.71 703.571C1061.5 703.729 1061.29 703.881 1061.1 704.049C1060.92 704.216 1060.75 704.42 1060.58 704.609C1060.23 705.001 1060 705.485 1060 706.021C1060 706.511 1060.22 707.098 1060.58 707.433C1061.41 708.194 1062.58 708.184 1063.4 707.433C1063.59 707.262 1063.79 707.101 1063.96 706.909C1064.13 706.718 1064.28 706.508 1064.44 706.307C1064.77 705.89 1065 705.494 1065 704.937C1065 704.462 1064.79 703.893 1064.44 703.568V703.568Z" fill="#F0903F"/>
<path d="M1512.87 727.378C1512.84 727.267 1512.82 727.153 1512.79 727.042C1512.73 726.755 1512.64 726.517 1512.27 726.306C1511.96 726.127 1511.45 725.99 1511.01 726.001C1510.55 726.013 1510.07 726.102 1509.75 726.306C1509.41 726.523 1509.29 726.752 1509.23 727.042C1509.2 727.151 1509.18 727.259 1509.16 727.368C1509 727.604 1508.94 727.874 1509.07 728.116C1509.14 728.209 1509.21 728.302 1509.27 728.397C1509.45 728.572 1509.69 728.713 1510 728.818C1510.01 728.824 1510.02 728.831 1510.04 728.839C1510.52 729.054 1511.5 729.054 1511.98 728.839C1511.99 728.833 1512.01 728.826 1512.02 728.818C1512.43 728.632 1512.82 728.432 1512.94 728.118C1513.04 727.862 1513.01 727.618 1512.86 727.38L1512.87 727.378Z" fill="#F4F4F4"/>
<path d="M1432.5 767C1430.5 767 1430.5 770 1432.5 770C1434.5 770 1434.5 767 1432.5 767Z" fill="#F4F4F4"/>
<path d="M1398.5 812C1396.5 812 1396.5 815 1398.5 815C1400.5 815 1400.5 812 1398.5 812Z" fill="#F4F4F4"/>
<path d="M1409.5 710C1407.5 710 1407.5 713 1409.5 713C1411.5 713 1411.5 710 1409.5 710Z" fill="#F4F4F4"/>
<path d="M1461.97 635.012C1461.92 634.409 1461.55 633.779 1460.98 633.583C1460.91 633.49 1460.84 633.397 1460.77 633.305C1460.49 632.941 1459.87 632.925 1459.51 633.139C1459.12 633.374 1458.91 633.885 1459.04 634.334C1459.07 634.442 1459.1 634.548 1459.13 634.656C1458.99 635.152 1459.07 635.699 1459.48 636.065C1459.84 636.375 1460.18 636.712 1460.61 636.901C1461.11 637.123 1461.79 636.986 1461.93 636.354C1462.03 635.897 1462.01 635.474 1461.97 635.012V635.012Z" fill="#F4F4F4"/>
<path d="M1325 766C1323.67 766 1323.67 770 1325 770C1326.33 770 1326.33 766 1325 766Z" fill="#F4F4F4"/>
<path d="M1321.5 671C1319.5 671 1319.5 673 1321.5 673C1323.5 673 1323.5 671 1321.5 671Z" fill="#F0903F"/>
<path d="M1273 675C1270.34 675 1270.33 678 1273 678C1275.67 678 1275.67 675 1273 675Z" fill="#F0903F"/>
<path d="M1442.35 865.612C1441.83 865.533 1441.33 865.411 1440.83 865.301C1440.62 865.256 1440.4 865.194 1440.18 865.16C1439.62 865.156 1439.47 865.139 1439.72 865.111C1439.58 865.087 1439.43 865.061 1439.28 865.038C1438.42 864.896 1437.47 865.166 1437.14 865.606C1436.78 866.093 1437.14 866.528 1437.88 866.83C1438.3 866.999 1438.62 867.16 1439.12 867.329C1439.32 867.398 1439.52 867.464 1439.72 867.533C1439.79 867.557 1440.37 867.76 1440.14 867.664C1441.27 868.146 1442.91 868.148 1443.7 867.415C1444.43 866.736 1443.76 865.829 1442.35 865.617L1442.35 865.612Z" fill="#F0903F"/>
<path d="M457.854 19.8605C457.675 19.5545 457.493 19.329 457.19 19.2228C457.125 19.2002 457.056 19.1841 456.99 19.1648C456.848 19.1229 456.706 19.0842 456.561 19.0424C455.785 18.8201 455 19.4965 455 20.4982C455 20.8847 455.137 21.2905 455.361 21.5643C455.682 21.9572 456.127 22.0764 456.561 21.954C456.703 21.9121 456.846 21.8735 456.99 21.8316C457.056 21.8123 457.125 21.7962 457.19 21.7736C457.496 21.6641 457.675 21.4419 457.854 21.1359C458.049 20.8009 458.049 20.1954 457.854 19.8637V19.8605Z" fill="#F0903F"/>
<path d="M733.588 8.81642C733.139 8.71066 732.714 8.54774 732.282 8.40197C732.102 8.34195 731.912 8.25907 731.725 8.21333C731.242 8.20762 731.113 8.18476 731.334 8.1476C731.208 8.11616 731.079 8.08185 730.953 8.05041C730.219 7.86177 729.4 8.22191 729.121 8.80785C728.812 9.45667 729.121 10.0369 729.757 10.4399C730.114 10.6657 730.389 10.8801 730.817 11.1059C730.987 11.1973 731.161 11.2859 731.331 11.3774C731.388 11.4088 731.888 11.6804 731.694 11.5517C732.66 12.1948 734.064 12.1977 734.744 11.2202C735.372 10.3141 734.791 9.1051 733.584 8.82214L733.588 8.81642Z" fill="#F0903F"/>
<path d="M828 0C826.668 0 826.666 3 828 3C829.333 3 829.333 0 828 0Z" fill="#F0903F"/>
<path d="M1289 293C1286.34 293 1286.33 296 1289 296C1291.67 296 1291.67 293 1289 293Z" fill="#F4F4F4"/>
<path d="M1383.5 444C1380.17 444 1380.16 451 1383.5 451C1386.83 451 1386.83 444 1383.5 444Z" fill="#F4F4F4"/>
<path d="M1466.97 304.392C1466.89 303.853 1466.65 303.498 1466.28 303.073C1466.11 302.873 1465.94 302.676 1465.76 302.477C1465.5 302.185 1464.9 301.985 1464.51 302.001C1464.07 302.02 1463.54 302.147 1463.26 302.477C1463.08 302.676 1462.91 302.873 1462.73 303.073C1462.45 303.393 1462.23 303.694 1462.09 304.087C1461.92 304.572 1462.01 305.127 1462.22 305.584C1462.59 306.389 1463.52 307.039 1464.51 306.998C1465.39 306.963 1466.23 306.567 1466.68 305.86C1466.96 305.413 1467.05 304.902 1466.97 304.395L1466.97 304.392Z" fill="#F4F4F4"/>
<path d="M1507.46 410.038C1499.86 413.659 1492.58 417.828 1485.32 422.074C1481.77 424.151 1478.26 426.274 1474.77 428.451C1472.95 429.587 1471.13 430.725 1469.33 431.881C1468.42 432.457 1467.51 433.016 1466.59 433.57C1466.56 433.593 1466.52 433.613 1466.49 433.633C1466.01 433.054 1465.24 432.808 1464.49 432.982C1464.01 433.093 1463.67 433.493 1463.55 433.95C1463.23 434.172 1463.05 434.54 1463.01 434.968C1462.94 435.687 1463.43 436.412 1464.05 436.743C1464.84 437.168 1465.8 437.068 1466.44 436.426C1466.81 436.055 1466.98 435.567 1466.98 435.071C1467.09 434.982 1467.2 434.894 1467.32 434.808C1468.18 434.164 1469.05 433.527 1469.94 432.919C1471.63 431.755 1473.34 430.608 1475.06 429.481C1478.58 427.184 1482.14 424.956 1485.75 422.799C1492.95 418.487 1500.42 414.601 1507.82 410.655C1508.23 410.438 1507.87 409.844 1507.46 410.038H1507.46Z" fill="#F0903F"/>
<path d="M382.703 846.628C382.615 846.478 382.527 846.331 382.438 846.182C382.269 845.895 382.073 845.663 381.87 845.419C381.44 844.907 380.729 844.816 380.313 845.419C379.891 846.028 379.901 846.879 380.313 847.489C380.497 847.759 380.671 848.02 380.886 848.245C380.987 848.352 381.09 848.457 381.19 848.564C381.345 848.727 381.489 848.884 381.683 848.956C381.877 849.027 382.085 849.004 382.277 848.942C382.598 848.838 382.885 848.46 382.963 848.03C383.064 847.482 382.953 847.052 382.703 846.625V846.628Z" fill="#F4F4F4"/>
<path d="M1280 498C1278.67 498 1278.67 500 1280 500C1281.33 500 1281.33 498 1280 498Z" fill="#F4F4F4"/>
<path d="M1349.85 494.745C1349.8 494.482 1349.75 494.219 1349.71 493.958C1349.61 493.423 1349.01 492.979 1348.5 493.001C1347.98 493.025 1347.4 493.383 1347.29 493.958C1347.25 494.222 1347.2 494.485 1347.15 494.745C1346.66 495.752 1347.41 497 1348.5 497C1349.59 497 1350.34 495.752 1349.85 494.745Z" fill="#F0903F"/>
<path d="M1425.85 517.745C1425.8 517.482 1425.75 517.219 1425.71 516.958C1425.61 516.423 1425.01 515.979 1424.5 516.001C1423.98 516.025 1423.4 516.383 1423.29 516.958C1423.25 517.222 1423.2 517.485 1423.15 517.745C1422.66 518.752 1423.41 520 1424.5 520C1425.59 520 1426.34 518.752 1425.85 517.745Z" fill="#F0903F"/>
<path d="M1208.58 459.583C1208.27 459.317 1207.92 459.199 1207.56 459.062C1206.79 458.768 1206 459.561 1206 460.5C1206 461.439 1206.79 462.232 1207.56 461.938C1207.92 461.801 1208.27 461.685 1208.58 461.417C1209.14 460.936 1209.14 460.064 1208.58 459.583V459.583Z" fill="#F0903F"/>
<path d="M1302.96 390.366C1302.87 389.694 1302.6 389.295 1302.27 389.056C1302.1 388.935 1301.83 389.021 1301.68 389.205C1301.53 389.38 1301.43 389.603 1301.36 389.902C1301.32 390.108 1301.3 390.317 1301.31 390.518C1301.22 390.625 1301.14 390.765 1301.09 390.982C1301.09 390.982 1301.09 390.982 1301.09 390.979C1301.07 391.064 1301.05 391.155 1301.03 391.259C1300.97 391.561 1301.01 392.039 1301.1 392.303C1301.2 392.613 1301.34 392.8 1301.53 392.927C1301.79 393.108 1302.09 392.921 1302.32 392.715C1302.47 392.589 1302.61 392.399 1302.71 392.174C1302.95 391.677 1303.06 391.026 1302.97 390.366H1302.96Z" fill="#F0903F"/>
<path d="M1506 124C1504.67 124 1504.67 127 1506 127C1507.33 127 1507.33 124 1506 124Z" fill="#F0903F"/>
<path d="M1266.23 310.369C1265.92 310.193 1265.58 310.092 1265.25 310.023C1264.92 309.955 1264.56 310.056 1264.22 310.099C1263.59 310.182 1262.97 310.914 1263 312C1263.03 313.1 1263.54 313.814 1264.22 313.901C1264.56 313.944 1264.92 314.045 1265.25 313.977C1265.58 313.908 1265.92 313.811 1266.23 313.631C1267.26 313.032 1267.26 310.968 1266.23 310.366V310.369Z" fill="#F0903F"/>
<path d="M1197 297C1195.67 297 1195.67 300 1197 300C1198.33 300 1198.33 297 1197 297Z" fill="#F0903F"/>
<path d="M1502.5 26C1500.5 26 1500.5 30 1502.5 30C1504.5 30 1504.5 26 1502.5 26Z" fill="#F4F4F4"/>
<path d="M1218 118C1215.34 118 1215.33 123 1218 123C1220.67 123 1220.67 118 1218 118Z" fill="#F4F4F4"/>
<path d="M1355 185C1351 185 1351 190 1355 190C1359 190 1359 185 1355 185Z" fill="#F4F4F4"/>
<path d="M1354.99 243.62C1354.97 243.484 1354.93 243.359 1354.87 243.239C1354.87 243.176 1354.85 243.114 1354.84 243.048C1354.76 242.743 1354.57 242.487 1354.32 242.296C1353.89 241.962 1353.35 241.923 1352.86 242.116C1352.49 242.116 1352.12 242.492 1352.12 242.858C1351.92 243.349 1351.96 243.876 1352.3 244.312C1352.46 244.516 1352.64 244.657 1352.88 244.759C1352.98 244.803 1353.08 244.827 1353.18 244.845C1353.27 244.892 1353.37 244.934 1353.46 244.96C1353.85 245.067 1354.37 244.96 1354.66 244.652C1354.92 244.367 1355.04 244.001 1354.99 243.62V243.62Z" fill="#F4F4F4"/>
<path d="M363.998 6C360.005 6 359.996 13 363.998 13C368.001 13 368.001 6 363.998 6Z" fill="#F4F4F4"/>
<path d="M1402 0.0463617C1401.94 -0.56825 1401.68 -0.91244 1401.22 -0.993218C1400.96 -1.03887 1400.7 -0.84571 1400.46 -0.663083C1400.14 -0.585817 1399.88 -0.308354 1399.61 -0.0379244C1399.26 0.302746 1398.98 0.755806 1399 1.37042C1399.02 1.8024 1399.12 2.2133 1399.36 2.52236C1399.58 2.81738 1399.91 3 1400.22 3C1400.69 3 1401.01 2.66987 1401.28 2.19223C1401.48 1.83049 1401.69 1.48631 1401.75 1.05432C1401.89 0.734725 1402.03 0.383513 1402 0.0393307V0.0463617Z" fill="#F4F4F4"/>
<path d="M1235.64 29.0869C1234.22 28.3294 1232.4 28.0259 1230.86 27.5257C1230.03 27.2568 1229.21 26.9879 1228.39 26.6844C1228.04 26.5543 1227.71 26.4039 1227.37 26.2825C1227.13 24.649 1226.81 22.7495 1226.12 21.1565C1225.97 19.6849 1225.97 18.2162 1226 16.7446C1226.04 16.4554 1226.08 16.1663 1226.11 15.8772C1226.12 15.7847 1226.09 15.7095 1226.03 15.6546C1226.03 15.5881 1226.03 15.5187 1226.04 15.4522C1226.06 14.8306 1225.16 14.8682 1225.09 15.4522C1225.03 15.9437 1224.97 16.4294 1224.91 16.918C1224.04 19.0257 1223.97 21.4022 1223.81 23.6515C1223.8 23.7643 1223.79 23.8742 1223.78 23.984C1223.74 24.1806 1223.71 24.3772 1223.66 24.5738C1223.52 25.2677 1223.24 26.0252 1223.02 26.7769C1222.48 26.9446 1221.95 27.0429 1221.42 27.1065C1220.84 27.1238 1220.25 27.1585 1219.66 27.2106C1218.83 27.2279 1217.99 27.2279 1217.12 27.3175C1216.96 27.3349 1216.82 27.439 1216.74 27.5691C1216.5 27.6067 1216.26 27.6471 1216.02 27.6876C1215.99 27.6905 1215.98 27.7021 1215.96 27.7165C1215.81 27.7021 1215.66 27.6963 1215.51 27.7078C1215.09 27.7339 1214.81 28.2543 1215.15 28.5723C1215.74 29.1216 1216.41 29.2835 1217.16 29.6189C1218.01 30.0005 1218.83 30.4371 1219.65 30.8621C1220.5 31.2958 1221.36 31.7612 1222.27 32.0619C1222.45 32.8281 1222.75 33.6145 1222.89 34.1869C1223.31 35.8176 1223.67 37.4799 1224.2 39.0788C1224.23 39.1771 1224.28 39.2609 1224.33 39.3361C1224.41 39.6628 1224.5 39.9924 1224.58 40.3191C1224.63 40.5301 1224.74 40.6689 1224.88 40.7499C1224.87 41.0852 1224.88 41.4119 1224.92 41.73C1224.95 41.9728 1225.28 42.1232 1225.42 41.8658C1226.33 40.241 1226.47 37.9628 1226.86 36.1558C1227.21 34.5541 1227.58 32.9524 1227.92 31.3449C1229.92 31.2668 1231.98 30.8332 1233.87 30.2752C1234.35 30.3937 1234.82 30.4631 1235.27 30.4429C1235.96 30.414 1236.31 29.4425 1235.64 29.0869H1235.64Z" fill="#F4F4F4"/>
<path d="M1464.5 218C1463.83 218 1463.83 219 1464.5 219C1465.17 219 1465.17 218 1464.5 218Z" fill="#F4F4F4"/>
<path d="M1489 272C1487.67 272 1487.67 274 1489 274C1490.33 274 1490.33 272 1489 272Z" fill="#F4F4F4"/>
<path d="M1312 41.4857L1311.93 40.4497C1311.91 40.0651 1311.79 39.7057 1311.51 39.425C1311.27 39.1751 1310.86 38.9842 1310.5 39.001C1309.68 39.0375 1309.12 39.6383 1309.07 40.4497L1309 41.4857C1308.95 42.2774 1309.72 43.0326 1310.5 42.9989C1311.27 42.9652 1312.05 42.3335 1312 41.4857V41.4857Z" fill="#F0903F"/>
<path d="M1297 129.725C1297 129.028 1296.72 128.293 1296.27 127.8C1295.84 127.329 1295.12 126.973 1294.5 127.002C1293.86 127.033 1293.18 127.266 1292.73 127.8C1292.3 128.319 1291.97 129 1292 129.725C1292.03 130.339 1292.19 130.886 1292.54 131.373C1292.62 131.487 1292.7 131.586 1292.79 131.678C1292.87 131.946 1292.99 132.187 1293.2 132.413C1293.52 132.76 1294.04 133.021 1294.5 132.999C1294.98 132.976 1295.47 132.805 1295.8 132.413C1295.9 132.28 1295.99 132.143 1296.09 132.009C1296.14 131.907 1296.18 131.799 1296.22 131.691C1296.24 131.675 1296.25 131.666 1296.27 131.65C1296.73 131.192 1297 130.393 1297 129.725V129.725Z" fill="#F0903F"/>
<path d="M1427.5 77C1425.5 77 1425.5 80 1427.5 80C1429.5 80 1429.5 77 1427.5 77Z" fill="#F0903F"/>
<path d="M1335.57 137.439C1335.28 137.169 1334.91 137 1334.5 137C1334.11 137 1333.7 137.166 1333.43 137.439C1333.03 137.837 1332.94 138.357 1333.04 138.893C1333.12 139.288 1333.2 139.686 1333.28 140.081C1333.38 140.595 1333.98 141.021 1334.5 140.999C1335.03 140.977 1335.61 140.632 1335.72 140.081C1335.8 139.686 1335.88 139.288 1335.96 138.893C1336.06 138.379 1335.98 137.815 1335.57 137.439H1335.57Z" fill="#F0903F"/>
<path d="M1411.33 24.0151C1410.7 24.152 1410.14 24.3706 1409.56 24.5759C1408.9 24.8121 1408.82 25.4413 1409.33 25.7813C1409.84 26.1191 1410.78 26.064 1411.14 25.6268C1411.45 25.2404 1411.77 24.8673 1411.98 24.45C1412.1 24.1983 1411.7 23.9334 1411.33 24.0151V24.0151Z" fill="#F0903F"/>
<path d="M456.997 93.5079L456.935 92.3987C456.913 92.0229 456.844 91.6862 456.661 91.4097C456.498 91.1662 456.233 90.9858 456 91.0009C455.458 91.0369 455.108 91.6171 455.064 92.3987L455.002 93.5079C454.982 93.8686 455.129 94.3135 455.294 94.563C455.458 94.8125 455.75 95.0169 456 94.9989C456.502 94.9658 457.043 94.3406 456.997 93.5079V93.5079Z" fill="#F0903F"/>
<path d="M1144.11 91.0775C1143.86 91.0622 1143.61 91.0468 1143.37 91.0314C1142.73 90.9299 1142.04 91.0652 1141.58 91.5728C1141.22 91.9665 1141 92.4525 1141 93C1141 93.5168 1141.22 94.0612 1141.58 94.4272C1142.07 94.9225 1142.71 95.0732 1143.37 94.9686C1143.61 94.9532 1143.86 94.9378 1144.11 94.9225C1144.61 94.8917 1145.08 94.7287 1145.44 94.3596C1145.77 94.0274 1146.02 93.4798 1146 93C1145.95 91.905 1145.17 91.1452 1144.11 91.0775Z" fill="#F4F4F4"/>
<path d="M1134.99 120.57C1134.98 120.425 1134.97 120.283 1134.96 120.138C1134.91 119.545 1134.09 118.971 1133 119.001C1131.9 119.029 1131.09 119.502 1131.04 120.138C1131.03 120.283 1131.02 120.425 1131.01 120.57C1130.98 120.885 1131.04 121.152 1131.31 121.443C1131.98 122.186 1134.02 122.186 1134.69 121.443C1134.96 121.15 1135.02 120.889 1134.99 120.57Z" fill="#F4F4F4"/>
<path d="M1127.64 25.6224C1127.4 25.2583 1127.12 25.0909 1126.79 25.0516C1126.5 25.0187 1126.18 24.9334 1125.9 25.0975C1125.41 25.3862 1124.97 26.0883 1125 27.0004C1125.01 27.3515 1125.07 27.6861 1125.17 27.9945C1125.32 28.4571 1125.61 28.7295 1125.9 28.9001C1126.18 29.0674 1126.49 28.9821 1126.79 28.946C1127.11 28.9066 1127.41 28.7557 1127.64 28.3751C1127.85 28.0372 1128.01 27.4827 1128 26.9971C1127.98 26.4919 1127.88 25.9702 1127.64 25.6192V25.6224Z" fill="#F0903F"/>
<path d="M941.499 23C939.503 23 939.498 26 941.499 26C943.5 26 943.5 23 941.499 23Z" fill="#F4F4F4"/>
<path d="M1042.06 70.5737C1041.36 70.0113 1040.35 69.8407 1039.46 70.1588C1039.07 70.2994 1038.77 70.493 1038.51 70.7788C1038.2 71.1177 1037.98 71.5556 1038 71.9982C1038.04 72.6989 1038.45 73.372 1039.18 73.7338C1040.11 74.1948 1041.29 74.0358 1042.06 73.4204C1042.55 73.0239 1043 72.6298 1043 71.9982C1043 71.3666 1042.55 70.9702 1042.06 70.576V70.5737Z" fill="#F4F4F4"/>
<path d="M1015.91 96.9275L1015.49 95.94C1015.27 95.4232 1014.7 94.9741 1014 95.0012C1013.29 95.0282 1012.75 95.3854 1012.51 95.94L1012.09 96.9275C1011.66 97.9448 1012.79 99 1014 99C1015.21 99 1016.34 97.9421 1015.91 96.9275V96.9275Z" fill="#F0903F"/>
<path d="M986.5 5.00131C985.695 5.0385 984.99 5.66798 985 6.51526C985.003 6.84196 985.008 7.16866 985.011 7.49535C985.019 8.28154 985.69 9.03586 986.5 8.99868C987.316 8.96149 987.982 8.33732 987.989 7.49535C987.992 7.16866 987.997 6.84196 988 6.51526C988.008 5.72376 987.303 4.96413 986.5 5.00131V5.00131Z" fill="#F0903F"/>
<path d="M897.881 10.2872C897.802 9.95597 897.788 9.5658 897.746 9.23453C897.703 8.88853 897.486 8.56462 897.283 8.36217C897.065 8.14133 896.782 7.98305 896.5 8.00145C896.271 8.01618 896.051 8.08979 895.847 8.22966C895.596 8.40266 895.299 8.85908 895.254 9.23453C895.212 9.56948 895.198 9.95597 895.119 10.2872C894.946 10.8578 894.952 11.4761 895.201 12.0283C895.469 12.6246 895.969 13 896.5 13C897.031 13 897.531 12.6246 897.799 12.0283C898.048 11.4761 898.054 10.8578 897.881 10.2872V10.2872Z" fill="#F0903F"/>
<path d="M857.611 55.6859C857.421 55.5483 857.24 55.4486 857.017 55.3608C856.882 55.3085 856.75 55.2563 856.616 55.2041C856.343 55.0688 856.052 55 855.738 55C855.425 55 855.13 55.0688 854.861 55.2041C854.333 55.4723 854 55.9707 854 56.5C854 57.0293 854.333 57.5301 854.861 57.7959C855.133 57.9312 855.425 58 855.738 58C856.052 58 856.346 57.9312 856.616 57.7959C856.75 57.7437 856.882 57.6915 857.017 57.6392C857.248 57.549 857.405 57.4612 857.611 57.3141C858.131 56.9391 858.128 56.0609 857.611 55.6859V55.6859Z" fill="#F0903F"/>
<path d="M1014.14 823.677C1014.24 823.594 1014.34 823.506 1014.44 823.424C1016.08 822.025 1015.35 818.882 1013.52 818.607C1011.68 818.333 1010.15 821.142 1011.35 822.961C1011.42 823.07 1011.49 823.182 1011.57 823.292C1012.2 824.248 1013.28 824.414 1014.15 823.677L1014.14 823.677Z" fill="#F0903F"/>
<path d="M995.74 230.926C996.057 230.815 996.344 230.597 996.556 230.275C996.682 230.081 996.765 229.874 996.817 229.655C996.87 229.588 996.973 229.438 996.987 229.42C997.132 229.225 997.278 229.031 997.423 228.836C997.743 228.41 997.752 227.629 997.473 227.202C997.191 226.772 996.65 226.52 996.205 226.8C996.015 226.919 995.825 227.038 995.637 227.158C995.616 227.172 995.46 227.262 995.399 227.304C995.288 227.308 995.175 227.325 995.05 227.369C994.734 227.479 994.447 227.697 994.235 228.019C993.82 228.654 993.756 229.674 994.164 230.295C994.542 230.873 995.134 231.134 995.741 230.922L995.74 230.926Z" fill="#F4F4F4"/>
<path d="M767.378 199.728C767.917 195.753 762.944 195.002 762.405 198.983C761.865 202.964 766.839 203.709 767.378 199.728Z" fill="#F4F4F4"/>
<path d="M884.311 334.68C884.842 330.757 879.932 330.015 879.4 333.945C878.867 337.876 883.778 338.611 884.311 334.68Z" fill="#F4F4F4"/>
<path d="M1078.59 409.219C1078.89 409.024 1079.2 408.829 1079.5 408.634C1079.95 408.342 1080.35 407.865 1080.41 407.209C1080.46 406.735 1080.39 406.272 1080.17 405.891C1079.95 405.529 1079.59 405.276 1079.23 405.222C1078.69 405.141 1078.24 405.434 1077.87 405.915C1077.64 406.223 1077.4 406.531 1077.17 406.84C1077.11 406.958 1077.05 407.076 1076.99 407.191C1076.91 407.388 1076.87 407.596 1076.88 407.807C1076.87 408.138 1076.94 408.491 1077.11 408.75C1077.24 408.956 1077.41 409.118 1077.61 409.233C1077.87 409.386 1078.32 409.395 1078.59 409.219L1078.59 409.219Z" fill="#F0903F"/>
<path d="M1031.78 272.879C1031.95 272.686 1032.08 272.5 1032.2 272.303C1032.71 271.854 1033.09 271.125 1032.99 270.334C1032.97 270.145 1032.96 270.115 1032.95 270.135C1032.95 270.107 1032.95 270.073 1032.95 270.028C1032.95 269.819 1032.97 269.609 1032.98 269.397C1033.02 268.466 1032.63 267.487 1031.79 267.41C1030.94 267.331 1030.34 267.994 1030.12 268.97C1030.07 269.172 1030.04 269.386 1029.98 269.584C1029.87 269.956 1030.01 269.489 1029.86 269.864C1029.55 270.601 1029.72 271.406 1030.1 271.987C1030.16 272.214 1030.24 272.431 1030.35 272.663C1030.59 273.204 1031.41 273.324 1031.78 272.878L1031.78 272.879Z" fill="#F0903F"/>
<path d="M999.588 383.003C999.845 382.884 1000.18 382.512 1000.27 382.185C1000.41 381.657 1000.6 381.109 1000.69 380.57C1000.85 379.68 1000.27 378.722 999.55 378.654C998.829 378.588 998.036 379.197 997.941 380.158C997.889 380.703 997.924 381.281 997.922 381.834C997.92 382.153 998.087 382.473 998.252 382.683C998.431 382.913 998.677 383.094 998.945 383.117C999.164 383.136 999.379 383.099 999.588 383.003V383.003Z" fill="#F0903F"/>
<path d="M790.823 784.301C791.098 784.023 791.297 783.658 791.356 783.224C791.411 782.813 791.327 782.358 791.13 782.033C790.844 781.554 790.407 781.389 789.929 781.431C789.576 781.464 789.22 781.497 788.867 781.53C788.408 781.574 787.954 782.148 787.898 782.703C787.841 783.268 788.056 783.925 788.517 784.114C788.847 784.249 789.18 784.385 789.51 784.52C789.939 784.698 790.439 784.687 790.824 784.295L790.823 784.301Z" fill="#F0903F"/>
<path d="M1502.35 591.543L1503.36 591.588C1503.7 591.602 1504.02 591.533 1504.31 591.264C1504.57 591.024 1504.79 590.604 1504.83 590.212C1504.92 589.302 1504.48 588.638 1503.78 588.458L1502.8 588.204C1502.48 588.122 1502.04 588.308 1501.78 588.55C1501.52 588.792 1501.27 589.253 1501.23 589.672C1501.14 590.518 1501.58 591.508 1502.35 591.543V591.543Z" fill="#F0903F"/>
<path d="M1445.2 169.081C1445.7 168.874 1445.99 168.331 1446.32 167.854C1446.62 167.402 1446.93 166.95 1447.24 166.498C1447.68 165.841 1447.52 164.862 1446.97 164.46C1446.36 164.015 1445.7 164.401 1445.35 165.131C1445.1 165.63 1444.86 166.129 1444.62 166.629C1444.34 167.202 1444.11 167.651 1444.13 168.33C1444.14 169.008 1444.74 169.27 1445.2 169.084L1445.2 169.081Z" fill="#F0903F"/>
<path d="M1046.49 616.348C1046.68 616.365 1046.86 616.382 1047.04 616.395C1047.79 616.463 1048.61 615.831 1048.71 614.836C1048.81 613.831 1048.32 613.015 1047.52 612.848C1047.34 612.811 1047.16 612.774 1046.98 612.734C1046.59 612.651 1046.25 612.658 1045.85 612.842C1044.84 613.311 1044.58 615.162 1045.43 615.911C1045.77 616.205 1046.09 616.311 1046.49 616.348Z" fill="#F4F4F4"/>
<path d="M918.214 591.399C918.402 591.19 918.546 590.985 918.683 590.728C918.765 590.572 918.847 590.419 918.929 590.263C919.129 589.953 919.256 589.608 919.308 589.225C919.359 588.841 919.33 588.469 919.22 588.116C919.001 587.424 918.487 586.932 917.883 586.841C917.278 586.751 916.651 587.073 916.26 587.673C916.061 587.983 915.934 588.328 915.882 588.712C915.83 589.095 915.86 589.467 915.969 589.82C916.007 589.994 916.044 590.164 916.082 590.338C916.146 590.636 916.221 590.843 916.354 591.121C916.696 591.821 917.7 591.968 918.214 591.399V591.399Z" fill="#F0903F"/>
<path d="M246.514 828.686C246.277 828.548 246.05 828.449 245.771 828.361C245.603 828.309 245.438 828.256 245.269 828.204C244.929 828.069 244.565 828 244.173 828C243.781 828 243.413 828.069 243.076 828.204C242.416 828.472 242 828.971 242 829.5C242 830.029 242.416 830.53 243.076 830.796C243.416 830.931 243.781 831 244.173 831C244.565 831 244.933 830.931 245.269 830.796C245.438 830.744 245.603 830.691 245.771 830.639C246.06 830.549 246.256 830.461 246.514 830.314C247.164 829.939 247.16 829.061 246.514 828.686V828.686Z" fill="#F0903F"/>
<path d="M706.654 629.618C706.602 629.559 706.548 629.501 706.495 629.44C705.619 628.465 704 629.241 704 630.501C704 631.761 705.621 632.534 706.495 631.561C706.548 631.503 706.602 631.444 706.654 631.383C707.114 630.873 707.116 630.128 706.654 629.615V629.618Z" fill="#F0903F"/>
<path d="M533.82 156.489C533.563 156.196 533.302 155.901 533.045 155.608C532.736 155.255 532.225 154.981 531.636 155.001C531.204 155.017 530.792 155.124 530.48 155.361C530.185 155.582 530 155.913 530 156.227C530 156.677 530.322 157.044 530.809 157.283C531.2 157.476 531.594 157.671 531.985 157.864C532.462 158.098 533.223 158.021 533.607 157.707C533.995 157.391 534.152 156.872 533.816 156.492L533.82 156.489Z" fill="#F0903F"/>
<path d="M626.315 425.121C626.098 425.221 625.878 425.321 625.662 425.421C625.428 425.527 625.204 425.604 625.058 425.81C624.981 425.917 624.981 426.083 625.058 426.19C625.208 426.396 625.428 426.473 625.662 426.579C625.878 426.679 626.098 426.779 626.315 426.879C627.058 427.222 628 426.806 628 426C628 425.194 627.058 424.778 626.315 425.121V425.121Z" fill="#F4F4F4"/>
<path d="M777.999 267C776.669 267 776.665 268 777.999 268C779.334 268 779.334 267 777.999 267Z" fill="#F0903F"/>
<path d="M462.499 374C460.502 374 460.499 377 462.499 377C464.5 377 464.5 374 462.499 374Z" fill="#F4F4F4"/>
<path d="M288 101C286.668 101 286.666 103 288 103C289.333 103 289.333 101 288 101Z" fill="#F0903F"/>
<path d="M175.997 589.785C175.957 589.324 175.788 589.066 175.478 589.005C175.306 588.971 175.13 589.116 174.973 589.253C174.757 589.311 174.587 589.519 174.404 589.722C174.174 589.977 173.987 590.317 174.001 590.778C174.011 591.102 174.083 591.41 174.239 591.642C174.387 591.863 174.606 592 174.815 592C175.125 592 175.343 591.752 175.518 591.394C175.651 591.123 175.79 590.865 175.83 590.541C175.923 590.301 176.018 590.038 175.997 589.779V589.785Z" fill="#F4F4F4"/>
<path d="M225 616C223.668 616 223.666 617 225 617C226.333 617 226.333 616 225 616Z" fill="#F0903F"/>
<path d="M269.996 655.881L269.902 655.049C269.869 654.767 269.767 654.515 269.492 654.307C269.248 654.125 268.849 653.989 268.499 654.001C267.688 654.028 267.163 654.463 267.096 655.049L267.003 655.881C266.973 656.151 267.193 656.485 267.44 656.672C267.688 656.859 268.125 657.013 268.499 656.999C269.254 656.974 270.065 656.505 269.996 655.881V655.881Z" fill="#F0903F"/>
<path d="M238.876 62.1209C238.732 62.2208 238.586 62.3207 238.442 62.4206C238.285 62.5271 238.136 62.6037 238.038 62.8102C237.987 62.9167 237.987 63.0833 238.038 63.1898C238.139 63.3963 238.285 63.4729 238.442 63.5794C238.586 63.6793 238.732 63.7792 238.876 63.8791C239.372 64.2221 240 63.8059 240 63C240 62.1941 239.372 61.7779 238.876 62.1209V62.1209Z" fill="#F4F4F4"/>
<path d="M180.549 95.4541C180.255 95.1839 179.867 94.9818 179.456 95.0013L179.046 95.0573C178.784 95.1303 178.556 95.2642 178.364 95.4566C178.204 95.5832 178.034 95.7049 177.883 95.8388C177.733 95.9727 177.602 96.1359 177.466 96.2868C177.182 96.6009 177 96.988 177 97.4165C177 97.8085 177.175 98.2784 177.466 98.5462C178.129 99.1549 179.061 99.1476 179.721 98.5462C179.871 98.4099 180.034 98.2808 180.167 98.1275C180.303 97.9741 180.422 97.8061 180.549 97.6454C180.813 97.3118 181 96.9953 181 96.5498C181 96.17 180.833 95.7147 180.549 95.4541V95.4541Z" fill="#F0903F"/>
<path d="M29.4994 614C27.5018 614 27.4986 616 29.4994 616C31.5002 616 31.5002 614 29.4994 614Z" fill="#F0903F"/>
<path d="M44.9977 121.864L44.9338 121.087C44.9088 120.799 44.7893 120.529 44.5142 120.319C44.2669 120.131 43.8585 119.988 43.5 120.001C42.6831 120.028 42.1162 120.479 42.0662 121.087L42.0023 121.864C41.9523 122.458 42.7248 123.024 43.5 122.999C44.2697 122.974 45.0477 122.5 44.9977 121.864V121.864Z" fill="#F0903F"/>
<path d="M65.4983 40C64.4899 40 63.8249 40.667 64.0407 41.3309C64.164 41.7195 64.2917 42.0959 64.4723 42.4722C64.8114 43.1759 66.1897 43.1759 66.5288 42.4722C66.7094 42.0959 66.8371 41.7195 66.9604 41.3309C67.1718 40.667 66.5156 40 65.5027 40H65.4983Z" fill="#F0903F"/>
<path d="M484.5 661C484.116 661 483.712 661.167 483.44 661.439C483.18 661.7 482.984 662.125 483.001 662.5C483.037 663.312 483.66 664 484.5 664C484.884 664 485.288 663.833 485.56 663.561C485.82 663.3 486.016 662.875 485.999 662.5C485.963 661.688 485.34 661 484.5 661Z" fill="#F4F4F4"/>
<path d="M1474.74 348.869C1473.72 348.393 1472.42 348.201 1471.32 347.886C1470.73 347.716 1470.14 347.547 1469.56 347.357C1469.31 347.276 1469.07 347.18 1468.83 347.105C1468.66 346.077 1468.43 344.881 1467.93 343.879C1467.83 342.954 1467.83 342.029 1467.85 341.099C1467.88 340.918 1467.91 340.736 1467.93 340.552C1467.94 340.494 1467.91 340.446 1467.87 340.412C1467.87 340.371 1467.88 340.327 1467.88 340.285C1467.89 339.893 1467.25 339.918 1467.2 340.285C1467.16 340.594 1467.11 340.901 1467.07 341.208C1466.45 342.536 1466.41 344.031 1466.29 345.447C1466.29 345.518 1466.28 345.587 1466.27 345.655C1466.24 345.779 1466.21 345.904 1466.19 346.027C1466.08 346.466 1465.88 346.94 1465.73 347.416C1465.34 347.522 1464.96 347.585 1464.59 347.622C1464.17 347.633 1463.75 347.656 1463.33 347.687C1462.73 347.698 1462.13 347.698 1461.51 347.754C1461.4 347.764 1461.3 347.829 1461.24 347.913C1461.07 347.938 1460.9 347.961 1460.73 347.988C1460.71 347.99 1460.7 347.996 1460.68 348.005C1460.58 347.996 1460.47 347.992 1460.37 347.998C1460.07 348.015 1459.86 348.343 1460.11 348.541C1460.53 348.888 1461.01 348.99 1461.54 349.201C1462.15 349.441 1462.73 349.717 1463.32 349.984C1463.93 350.258 1464.55 350.55 1465.19 350.74C1465.32 351.222 1465.53 351.717 1465.63 352.078C1465.93 353.103 1466.2 354.152 1466.57 355.158C1466.59 355.221 1466.62 355.273 1466.66 355.321C1466.72 355.528 1466.78 355.734 1466.84 355.941C1466.88 356.075 1466.96 356.16 1467.05 356.213C1467.05 356.423 1467.05 356.63 1467.08 356.831C1467.1 356.983 1467.34 357.077 1467.44 356.916C1468.09 355.893 1468.19 354.461 1468.47 353.323C1468.72 352.314 1468.98 351.306 1469.23 350.295C1470.65 350.245 1472.12 349.971 1473.48 349.621C1473.82 349.696 1474.16 349.738 1474.48 349.725C1474.97 349.706 1475.22 349.097 1474.74 348.871L1474.74 348.869Z" fill="#F4F4F4"/>
<path d="M745.999 557C744.669 557 744.665 558 745.999 558C747.334 558 747.334 557 745.999 557Z" fill="#F0903F"/>
<path d="M618.654 575.618C618.602 575.559 618.548 575.501 618.495 575.44C617.619 574.465 616 575.241 616 576.501C616 577.761 617.621 578.534 618.495 577.561C618.548 577.503 618.602 577.444 618.654 577.383C619.114 576.873 619.116 576.128 618.654 575.615V575.618Z" fill="#F0903F"/>
<path d="M587.865 631.489C587.672 631.196 587.477 630.901 587.284 630.608C587.052 630.255 586.669 629.981 586.227 630.001C585.903 630.017 585.594 630.124 585.36 630.361C585.139 630.582 585 630.913 585 631.227C585 631.677 585.242 632.044 585.607 632.283C585.9 632.476 586.196 632.671 586.489 632.864C586.846 633.098 587.417 633.021 587.705 632.707C587.996 632.391 588.114 631.872 587.862 631.492L587.865 631.489Z" fill="#F0903F"/>
<path d="M643.564 634.52C643.53 634.491 643.496 634.463 643.463 634.434C642.893 633.941 641.897 633.825 641.276 634.312C641.196 634.333 641.12 634.36 641.044 634.391C640.476 634.501 639.972 634.909 640.001 635.488C640.031 636.076 640.438 636.456 641.012 636.578C641.094 636.615 641.181 636.646 641.272 636.671C641.548 636.876 641.981 637.011 642.302 636.999C642.747 636.982 643.131 636.839 643.463 636.559L643.564 636.474C644.153 635.979 644.138 635.017 643.564 634.52V634.52Z" fill="#F0903F"/>
<path d="M840.118 598.787C839.323 597.534 838.581 596.282 837.712 595.072C835.883 592.526 834.733 589.521 833.449 586.721C830.936 581.243 828.606 575.688 826.362 570.113C826.28 569.915 825.933 569.998 826.012 570.203C828.256 575.925 830.664 581.583 833.101 587.239C834.309 590.043 835.748 592.813 836.534 595.752C836.91 597.157 837.434 598.496 837.904 599.874C838.387 601.286 838.734 602.873 840.058 603.799C840.902 604.389 841.934 603.568 841.994 602.774C842.098 601.352 840.862 599.966 840.118 598.789V598.787Z" fill="#F4F4F4"/>
<path d="M840.899 543.378C840.88 543.267 840.864 543.153 840.846 543.042C840.801 542.755 840.726 542.517 840.453 542.306C840.222 542.127 839.84 541.99 839.509 542.001C839.164 542.013 838.806 542.102 838.564 542.306C838.31 542.523 838.219 542.752 838.172 543.042C838.153 543.151 838.137 543.259 838.119 543.368C838.002 543.604 837.954 543.874 838.055 544.116C838.105 544.209 838.156 544.302 838.206 544.397C838.339 544.572 838.519 544.713 838.747 544.818C838.758 544.824 838.769 544.831 838.779 544.839C839.14 545.054 839.872 545.054 840.233 544.839C840.244 544.833 840.254 544.826 840.265 544.818C840.575 544.632 840.864 544.432 840.957 544.118C841.032 543.862 841.008 543.618 840.896 543.38L840.899 543.378Z" fill="#F4F4F4"/>
<path d="M545 455C543.668 455 543.666 457 545 457C546.333 457 546.333 455 545 455Z" fill="#F4F4F4"/>
<path d="M746 606C744.668 606 744.666 608 746 608C747.333 608 747.333 606 746 606Z" fill="#F4F4F4"/>
<path d="M755.499 530C753.502 530 753.499 533 755.499 533C757.5 533 757.5 530 755.499 530Z" fill="#F4F4F4"/>
<path d="M798.97 475.509C798.925 475.057 798.553 474.584 797.98 474.437C797.909 474.368 797.838 474.298 797.768 474.228C797.492 473.956 796.871 473.944 796.512 474.105C796.121 474.281 795.909 474.664 796.038 475C796.068 475.082 796.098 475.161 796.129 475.242C795.992 475.614 796.065 476.024 796.485 476.299C796.838 476.531 797.179 476.784 797.609 476.926C798.109 477.092 798.786 476.989 798.927 476.515C799.028 476.173 799.005 475.856 798.97 475.509V475.509Z" fill="#F4F4F4"/>
<path d="M403.499 290C401.502 290 401.499 292 403.499 292C405.5 292 405.5 290 403.499 290Z" fill="#F4F4F4"/>
<path d="M2.86482 -1.00733C2.67195 -1.20264 2.4765 -1.39966 2.28363 -1.59497C2.05218 -1.82967 1.66901 -2.01298 1.22668 -1.99928C0.902654 -1.989 0.594058 -1.91704 0.360037 -1.75943C0.138875 -1.61209 0 -1.39109 0 -1.18208C0 -0.882271 0.241731 -0.637287 0.606906 -0.477959C0.900074 -0.349469 1.19583 -0.219265 1.489 -0.0907751C1.84646 0.0651258 2.41736 0.0137324 2.70538 -0.195278C2.99598 -0.406001 3.11427 -0.752074 2.86225 -1.00563L2.86482 -1.00733Z" fill="#F0903F"/>
<path d="M-0.436114 111.52C-0.469884 111.491 -0.503649 111.463 -0.537418 111.434C-1.10727 110.941 -2.10349 110.825 -2.72399 111.312C-2.8042 111.333 -2.88017 111.36 -2.95615 111.391C-3.5239 111.501 -4.02831 111.909 -3.99876 112.488C-3.96922 113.076 -3.56189 113.456 -2.98782 113.578C-2.9055 113.615 -2.81895 113.646 -2.72819 113.671C-2.45171 113.876 -2.01904 114.011 -1.69823 113.999C-1.2529 113.982 -0.868778 113.839 -0.537418 113.559L-0.436114 113.474C0.152735 112.979 0.137961 112.017 -0.436114 111.52V111.52Z" fill="#F0903F"/>
<path d="M275.499 7C273.502 7 273.499 9 275.499 9C277.5 9 277.5 7 275.499 7Z" fill="#F0903F"/>
<path d="M801.982 231.913C801.935 231.482 801.792 231.198 801.57 230.858C801.466 230.698 801.362 230.541 801.256 230.381C801.103 230.148 800.742 229.988 800.505 230.001C800.242 230.016 799.926 230.117 799.754 230.381C799.65 230.541 799.547 230.698 799.441 230.858C799.273 231.114 799.138 231.355 799.055 231.67C798.951 232.058 799.005 232.502 799.131 232.867C799.353 233.511 799.91 234.031 800.507 233.999C801.032 233.971 801.536 233.654 801.806 233.088C801.976 232.73 802.03 232.322 801.984 231.916L801.982 231.913Z" fill="#F4F4F4"/>
<path d="M648.999 375C647.668 375 647.665 376 648.999 376C650.334 376 650.334 375 648.999 375Z" fill="#F4F4F4"/>
<path d="M589.579 346.389C589.268 346.211 588.917 346.133 588.557 346.041C587.789 345.846 587 346.374 587 347C587 347.626 587.789 348.154 588.557 347.959C588.917 347.867 589.266 347.79 589.579 347.611C590.14 347.291 590.14 346.709 589.579 346.389V346.389Z" fill="#F0903F"/>
<path d="M835 99C833.668 99 833.666 101 835 101C836.333 101 836.333 99 835 99Z" fill="#F0903F"/>
<path d="M832.5 26C830.501 26 830.499 29 832.5 29C834.5 29 834.5 26 832.5 26Z" fill="#F4F4F4"/>
<path d="M710.988 186.62C710.97 186.484 710.928 186.359 710.873 186.239C710.868 186.176 710.855 186.114 710.839 186.048C710.755 185.743 710.567 185.487 710.318 185.296C709.886 184.962 709.352 184.923 708.861 185.116C708.494 185.116 708.117 185.492 708.117 185.858C707.924 186.349 707.96 186.876 708.298 187.312C708.458 187.516 708.641 187.657 708.879 187.759C708.983 187.803 709.083 187.827 709.18 187.845C709.271 187.892 709.366 187.934 709.462 187.96C709.855 188.067 710.373 187.96 710.658 187.652C710.92 187.367 711.04 187.001 710.988 186.62V186.62Z" fill="#F4F4F4"/>
<path d="M749.996 6.78477C749.935 6.32381 749.682 6.06567 749.217 6.00509C748.959 5.97084 748.696 6.11572 748.459 6.25269C748.135 6.31064 747.88 6.51873 747.606 6.72156C747.262 6.97706 746.98 7.31685 747.001 7.77781C747.017 8.1018 747.125 8.40998 747.359 8.64177C747.58 8.86303 747.909 9 748.222 9C748.688 9 749.014 8.7524 749.277 8.39417C749.477 8.12286 749.685 7.86473 749.746 7.54074C749.885 7.30104 750.027 7.03763 749.996 6.7795V6.78477Z" fill="#F4F4F4"/>
<path d="M74.8483 184.341C74.681 184.102 74.5138 183.863 74.3465 183.624C74.0956 183.266 73.7228 182.98 73.2593 183.001C72.9247 183.015 72.6093 183.13 72.368 183.369C72.1386 183.598 72 183.937 72 184.26C72 184.733 72.2509 185.086 72.6237 185.346C72.8626 185.513 73.1016 185.681 73.3405 185.848C73.4289 185.886 73.5174 185.922 73.6034 185.96C73.7491 186.005 73.8973 186.013 74.043 185.979C74.2748 185.948 74.5138 185.853 74.6763 185.676C74.8053 185.535 74.9009 185.37 74.9606 185.189C75.0395 184.945 74.9988 184.553 74.8483 184.339V184.341Z" fill="#F0903F"/>
<path d="M800.5 168C799.833 168 799.833 169 800.5 169C801.167 169 801.167 168 800.5 168Z" fill="#F4F4F4"/>
<path d="M820.5 208C819.834 208 819.833 209 820.5 209C821.167 209 821.167 208 820.5 208Z" fill="#F4F4F4"/>
<path d="M663 102.817C663 102.352 662.778 101.862 662.414 101.533C662.068 101.22 661.498 100.982 661.001 101.001C660.485 101.022 659.947 101.177 659.588 101.533C659.237 101.879 658.978 102.333 659.001 102.817C659.022 103.226 659.153 103.591 659.431 103.915C659.494 103.992 659.562 104.057 659.632 104.119C659.697 104.297 659.796 104.458 659.961 104.609C660.216 104.84 660.634 105.014 661.001 104.999C661.381 104.984 661.774 104.87 662.04 104.609C662.117 104.52 662.194 104.429 662.269 104.339C662.313 104.272 662.346 104.2 662.376 104.127C662.388 104.117 662.402 104.11 662.414 104.1C662.78 103.794 663 103.262 663 102.817V102.817Z" fill="#F0903F"/>
<path d="M647.499 11C645.502 11 645.499 13 647.499 13C649.5 13 649.5 11 647.499 11Z" fill="#F0903F"/>
<path d="M601.95 38.5007V38.2382C601.95 36.5884 599.047 36.5861 599.047 38.2382V38.5007C598.963 38.7609 598.996 39.0031 599.111 39.2135C599.301 39.8268 599.895 40.0463 600.5 39.992C601.102 40.0463 601.699 39.8268 601.889 39.2135C602.004 39.0031 602.037 38.7632 601.953 38.5007H601.95Z" fill="#F0903F"/>
<path d="M1356.5 125C1354.5 125 1354.5 127 1356.5 127C1358.5 127 1358.5 125 1356.5 125Z" fill="#F0903F"/>
<path d="M935.716 104.219C935.519 104.085 935.275 104 935.002 104C934.743 104 934.47 104.083 934.287 104.219C934.018 104.418 933.957 104.679 934.027 104.947C934.08 105.144 934.133 105.343 934.186 105.54C934.256 105.797 934.652 106.011 934.999 106C935.353 105.989 935.739 105.816 935.813 105.54C935.866 105.343 935.919 105.144 935.972 104.947C936.042 104.69 935.989 104.407 935.711 104.219H935.716Z" fill="#F0903F"/>
<path d="M757.55 24.0151C757.133 24.152 756.761 24.3706 756.375 24.5759C755.936 24.8121 755.88 25.4413 756.22 25.7813C756.558 26.1191 757.189 26.064 757.425 25.6268C757.632 25.2404 757.848 24.8673 757.985 24.45C758.067 24.1983 757.802 23.9334 757.55 24.0151V24.0151Z" fill="#F0903F"/>
<path d="M130.933 193.208C130.768 192.9 130.423 192.755 130.116 192.584C129.824 192.423 129.532 192.263 129.24 192.102C128.816 191.868 128.256 192.058 128.069 192.457C127.862 192.9 128.145 193.295 128.604 193.462C128.918 193.576 129.232 193.691 129.546 193.805C129.906 193.936 130.19 194.048 130.586 193.979C130.983 193.91 131.083 193.489 130.935 193.208H130.933Z" fill="#F0903F"/>
<path d="M536.484 74.0388C536.288 74.0311 536.092 74.0234 535.895 74.0157C535.381 73.9649 534.831 74.0326 534.465 74.2864C534.179 74.4832 534 74.7262 534 75C534 75.2584 534.177 75.5306 534.465 75.7136C534.856 75.9612 535.372 76.0366 535.895 75.9843C536.092 75.9766 536.288 75.9689 536.484 75.9612C536.887 75.9459 537.265 75.8643 537.555 75.6798C537.817 75.5137 538.016 75.2399 537.999 75C537.96 74.4525 537.332 74.0726 536.484 74.0388Z" fill="#F4F4F4"/>
<path d="M523.526 25.4668C523.198 25.1937 522.831 25.0682 522.386 25.0387C521.997 25.0141 521.574 24.9501 521.199 25.0731C520.542 25.2897 519.966 25.8162 520.002 26.5003C520.015 26.7636 520.088 27.0146 520.224 27.2459C520.425 27.5929 520.811 27.7971 521.199 27.9251C521.577 28.0505 521.992 27.9866 522.386 27.9595C522.818 27.93 523.211 27.8168 523.526 27.5313C523.806 27.2779 524.018 26.862 523.999 26.4979C523.98 26.1189 523.844 25.7277 523.526 25.4644V25.4668Z" fill="#F0903F"/>
<path d="M1280.31 932.121C1280.1 932.221 1279.88 932.321 1279.66 932.421C1279.43 932.527 1279.2 932.604 1279.06 932.81C1278.98 932.917 1278.98 933.083 1279.06 933.19C1279.21 933.396 1279.43 933.473 1279.66 933.579C1279.88 933.679 1280.1 933.779 1280.31 933.879C1281.06 934.222 1282 933.806 1282 933C1282 932.194 1281.06 931.778 1280.31 932.121V932.121Z" fill="#F4F4F4"/>
<path d="M1210.44 977.568C1210.07 977.23 1209.58 976.977 1209.07 977.002L1208.56 977.072C1208.23 977.163 1207.94 977.33 1207.71 977.571C1207.5 977.729 1207.29 977.881 1207.1 978.049C1206.92 978.216 1206.75 978.42 1206.58 978.609C1206.23 979.001 1206 979.485 1206 980.021C1206 980.511 1206.22 981.098 1206.58 981.433C1207.41 982.194 1208.58 982.184 1209.4 981.433C1209.59 981.262 1209.79 981.101 1209.96 980.909C1210.13 980.718 1210.28 980.508 1210.44 980.307C1210.77 979.89 1211 979.494 1211 978.937C1211 978.462 1210.79 977.893 1210.44 977.568V977.568Z" fill="#F0903F"/>
<path d="M898.997 946.107L898.912 944.812C898.878 944.331 898.719 943.882 898.352 943.531C898.023 943.219 897.478 942.98 897 943.001C895.911 943.047 895.155 943.798 895.088 944.812L895.003 946.107C894.936 947.097 895.966 948.041 897 947.999C898.026 947.957 899.064 947.167 898.997 946.107V946.107Z" fill="#F0903F"/>
<path d="M1121.33 979.03C1120.7 979.304 1120.14 979.741 1119.56 980.152C1118.9 980.624 1118.82 981.883 1119.33 982.563C1119.84 983.238 1120.78 983.128 1121.14 982.254C1121.45 981.481 1121.77 980.735 1121.98 979.9C1122.1 979.397 1121.7 978.867 1121.33 979.03V979.03Z" fill="#F0903F"/>
<path d="M953.997 950.508L953.935 949.399C953.913 949.023 953.844 948.686 953.661 948.41C953.498 948.166 953.233 947.986 953 948.001C952.458 948.037 952.108 948.617 952.064 949.399L952.002 950.508C951.982 950.869 952.129 951.314 952.294 951.563C952.458 951.813 952.75 952.017 953 951.999C953.502 951.966 954.043 951.341 953.997 950.508V950.508Z" fill="#F0903F"/>
<path d="M1160 959.817C1160 959.352 1159.78 958.862 1159.41 958.533C1159.07 958.22 1158.5 957.982 1158 958.001C1157.48 958.022 1156.95 958.177 1156.59 958.533C1156.24 958.879 1155.98 959.333 1156 959.817C1156.02 960.226 1156.15 960.591 1156.43 960.915C1156.49 960.992 1156.56 961.057 1156.63 961.119C1156.7 961.297 1156.8 961.458 1156.96 961.609C1157.22 961.84 1157.63 962.014 1158 961.999C1158.38 961.984 1158.77 961.87 1159.04 961.609C1159.12 961.52 1159.19 961.429 1159.27 961.339C1159.31 961.272 1159.35 961.2 1159.38 961.127C1159.39 961.117 1159.4 961.11 1159.41 961.1C1159.78 960.794 1160 960.262 1160 959.817V959.817Z" fill="#F0903F"/>
<path d="M1098.95 895.501V895.238C1098.95 893.588 1096.05 893.586 1096.05 895.238V895.501C1095.96 895.761 1096 896.003 1096.11 896.214C1096.3 896.827 1096.9 897.046 1097.5 896.992C1098.1 897.046 1098.7 896.827 1098.89 896.214C1099 896.003 1099.04 895.763 1098.95 895.501H1098.95Z" fill="#F0903F"/>
<path d="M1254.55 881.015C1254.13 881.152 1253.76 881.371 1253.37 881.576C1252.94 881.812 1252.88 882.441 1253.22 882.781C1253.56 883.119 1254.19 883.064 1254.42 882.627C1254.63 882.24 1254.85 881.867 1254.98 881.45C1255.07 881.198 1254.8 880.933 1254.55 881.015V881.015Z" fill="#F0903F"/>
<path d="M1033.48 931.039C1033.29 931.031 1033.09 931.023 1032.9 931.016C1032.38 930.965 1031.83 931.033 1031.47 931.286C1031.18 931.483 1031 931.726 1031 932C1031 932.258 1031.18 932.531 1031.47 932.714C1031.86 932.961 1032.37 933.037 1032.9 932.984C1033.09 932.977 1033.29 932.969 1033.48 932.961C1033.89 932.946 1034.26 932.864 1034.56 932.68C1034.82 932.514 1035.02 932.24 1035 932C1034.96 931.452 1034.33 931.073 1033.48 931.039Z" fill="#F4F4F4"/>
<path d="M1020.53 882.467C1020.2 882.194 1019.83 882.068 1019.39 882.039C1019 882.014 1018.57 881.95 1018.2 882.073C1017.54 882.29 1016.97 882.816 1017 883.5C1017.02 883.764 1017.09 884.015 1017.22 884.246C1017.43 884.593 1017.81 884.797 1018.2 884.925C1018.58 885.051 1018.99 884.987 1019.39 884.96C1019.82 884.93 1020.21 884.817 1020.53 884.531C1020.81 884.278 1021.02 883.862 1021 883.498C1020.98 883.119 1020.84 882.728 1020.53 882.464V882.467Z" fill="#F0903F"/>
<path d="M406 10.001C405.463 10.0289 404.993 10.501 405 11.1364C405.002 11.3815 405.005 11.6265 405.007 11.8715C405.012 12.4612 405.46 13.0269 406 12.999C406.544 12.9711 406.988 12.503 406.993 11.8715C406.995 11.6265 406.998 11.3815 407 11.1364C407.005 10.5428 406.535 9.97309 406 10.001V10.001Z" fill="#F0903F"/>
<path d="M332.881 14.3723C332.802 14.1736 332.788 13.9395 332.746 13.7407C332.703 13.5331 332.486 13.3388 332.283 13.2173C332.065 13.0848 331.782 12.9898 331.5 13.0009C331.271 13.0097 331.051 13.0539 330.847 13.1378C330.596 13.2416 330.299 13.5155 330.254 13.7407C330.212 13.9417 330.198 14.1736 330.119 14.3723C329.946 14.7147 329.952 15.0857 330.201 15.417C330.469 15.7747 330.969 16 331.5 16C332.031 16 332.531 15.7747 332.799 15.417C333.048 15.0857 333.054 14.7147 332.881 14.3723V14.3723Z" fill="#F0903F"/>
<path d="M403.539 884.823C403.47 884.746 403.397 884.668 403.327 884.587C402.158 883.286 400 884.321 400 886.001C400 887.681 402.161 888.712 403.327 887.415C403.397 887.337 403.47 887.259 403.539 887.178C404.152 886.497 404.155 885.505 403.539 884.82V884.823Z" fill="#F0903F"/>
<path d="M567.82 850.489C567.563 850.196 567.302 849.901 567.045 849.608C566.736 849.255 566.225 848.981 565.636 849.001C565.204 849.017 564.792 849.124 564.48 849.361C564.185 849.582 564 849.913 564 850.227C564 850.677 564.322 851.044 564.809 851.283C565.2 851.476 565.594 851.671 565.985 851.864C566.462 852.098 567.223 852.021 567.607 851.707C567.995 851.391 568.152 850.872 567.816 850.492L567.82 850.489Z" fill="#F0903F"/>
<path d="M451.805 898.86C451.566 898.554 451.324 898.329 450.921 898.223C450.833 898.2 450.742 898.184 450.654 898.165C450.464 898.123 450.275 898.084 450.082 898.042C449.046 897.82 448 898.497 448 899.498C448 899.885 448.183 900.291 448.481 900.564C448.909 900.957 449.502 901.076 450.082 900.954C450.271 900.912 450.461 900.873 450.654 900.832C450.742 900.812 450.833 900.796 450.921 900.774C451.328 900.664 451.566 900.442 451.805 900.136C452.065 899.801 452.065 899.195 451.805 898.864V898.86Z" fill="#F0903F"/>
<path d="M811.999 961C810.669 961 810.665 962 811.999 962C813.334 962 813.334 961 811.999 961Z" fill="#F0903F"/>
<path d="M350 875C348.668 875 348.666 877 350 877C351.333 877 351.333 875 350 875Z" fill="#F0903F"/>
<path d="M301.876 837.06C301.732 837.11 301.586 837.16 301.442 837.21C301.285 837.264 301.136 837.302 301.038 837.405C300.987 837.458 300.987 837.542 301.038 837.595C301.139 837.698 301.285 837.736 301.442 837.79C301.586 837.84 301.732 837.89 301.876 837.94C302.372 838.111 303 837.903 303 837.5C303 837.097 302.372 836.889 301.876 837.06V837.06Z" fill="#F4F4F4"/>
<path d="M214.549 790.454C214.255 790.184 213.867 789.982 213.456 790.001L213.046 790.057C212.784 790.13 212.556 790.264 212.364 790.457C212.204 790.583 212.034 790.705 211.883 790.839C211.733 790.973 211.602 791.136 211.466 791.287C211.182 791.601 211 791.988 211 792.417C211 792.809 211.175 793.278 211.466 793.546C212.129 794.155 213.061 794.148 213.721 793.546C213.871 793.41 214.034 793.281 214.167 793.127C214.303 792.974 214.422 792.806 214.549 792.645C214.813 792.312 215 791.995 215 791.55C215 791.17 214.833 790.715 214.549 790.454V790.454Z" fill="#F0903F"/>
<path d="M78.9977 816.486L78.9338 815.45C78.9088 815.065 78.7893 814.706 78.5142 814.425C78.2669 814.175 77.8585 813.984 77.5 814.001C76.6831 814.038 76.1162 814.638 76.0662 815.45L76.0023 816.486C75.9523 817.277 76.7248 818.033 77.5 817.999C78.2697 817.965 79.0477 817.334 78.9977 816.486V816.486Z" fill="#F0903F"/>
<path d="M154.55 846.023C154.133 846.228 153.761 846.556 153.375 846.864C152.936 847.218 152.88 848.162 153.22 848.672C153.558 849.179 154.189 849.096 154.425 848.44C154.632 847.861 154.848 847.301 154.985 846.675C155.067 846.297 154.802 845.9 154.55 846.023V846.023Z" fill="#F0903F"/>
<path d="M3.85388 716.574C3.67486 716.37 3.49319 716.219 3.19043 716.149C3.12461 716.133 3.05616 716.123 2.99034 716.11C2.84817 716.082 2.70602 716.056 2.56122 716.028C1.78457 715.88 1 716.331 1 716.999C1 717.256 1.1369 717.527 1.36068 717.71C1.68188 717.971 2.12682 718.051 2.56122 717.969C2.70339 717.941 2.84554 717.916 2.99034 717.888C3.05616 717.875 3.12461 717.864 3.19043 717.849C3.49583 717.776 3.67486 717.628 3.85388 717.424C4.04871 717.201 4.04871 716.797 3.85388 716.576V716.574Z" fill="#F0903F"/>
<path d="M338 781C336.668 781 336.666 784 338 784C339.333 784 339.333 781 338 781Z" fill="#F0903F"/>
<path d="M498 932C496.668 932 496.666 935 498 935C499.333 935 499.333 932 498 932Z" fill="#F4F4F4"/>
<path d="M835.982 926.435C835.935 926.112 835.792 925.899 835.57 925.644C835.466 925.524 835.362 925.406 835.256 925.286C835.103 925.111 834.742 924.991 834.505 925.001C834.242 925.012 833.926 925.088 833.754 925.286C833.65 925.406 833.547 925.524 833.441 925.644C833.273 925.836 833.138 926.016 833.055 926.252C832.951 926.543 833.005 926.876 833.131 927.15C833.353 927.634 833.91 928.024 834.507 927.999C835.032 927.978 835.536 927.74 835.806 927.316C835.976 927.048 836.03 926.741 835.984 926.437L835.982 926.435Z" fill="#F4F4F4"/>
<path d="M671.228 930.277C670.921 930.145 670.578 930.069 670.253 930.017C669.919 929.966 669.559 930.042 669.225 930.074C668.589 930.136 667.969 930.686 668.001 931.5C668.034 932.325 668.54 932.861 669.225 932.926C669.561 932.958 669.919 933.034 670.253 932.983C670.576 932.931 670.921 932.858 671.228 932.723C672.256 932.274 672.259 930.726 671.228 930.274V930.277Z" fill="#F0903F"/>
<path d="M614 920C612.668 920 612.666 922 614 922C615.333 922 615.333 920 614 920Z" fill="#F0903F"/>
<path d="M744.988 881.08C744.97 880.99 744.928 880.906 744.873 880.826C744.868 880.784 744.855 880.742 744.839 880.699C744.755 880.495 744.567 880.325 744.318 880.198C743.886 879.975 743.352 879.949 742.861 880.078C742.494 880.078 742.117 880.328 742.117 880.572C741.924 880.899 741.96 881.251 742.298 881.541C742.458 881.677 742.641 881.771 742.879 881.839C742.983 881.869 743.083 881.884 743.18 881.897C743.271 881.928 743.366 881.956 743.462 881.973C743.855 882.044 744.373 881.973 744.658 881.768C744.92 881.578 745.04 881.334 744.988 881.08V881.08Z" fill="#F4F4F4"/>
<path d="M783.996 701.523C783.935 701.216 783.682 701.044 783.217 701.003C782.959 700.981 782.696 701.077 782.459 701.168C782.135 701.207 781.88 701.346 781.606 701.481C781.262 701.651 780.98 701.878 781.001 702.185C781.017 702.401 781.125 702.607 781.359 702.761C781.58 702.909 781.909 703 782.222 703C782.688 703 783.014 702.835 783.277 702.596C783.477 702.415 783.685 702.243 783.746 702.027C783.885 701.867 784.027 701.692 783.996 701.52V701.523Z" fill="#F4F4F4"/>
<path d="M108.848 878.341C108.681 878.102 108.514 877.863 108.347 877.624C108.096 877.266 107.723 876.98 107.259 877.001C106.925 877.015 106.609 877.13 106.368 877.369C106.139 877.598 106 877.937 106 878.26C106 878.733 106.251 879.086 106.624 879.346C106.863 879.513 107.102 879.681 107.341 879.848C107.429 879.886 107.517 879.922 107.603 879.96C107.749 880.005 107.897 880.013 108.043 879.979C108.275 879.948 108.514 879.853 108.676 879.676C108.805 879.535 108.901 879.37 108.961 879.189C109.039 878.945 108.999 878.553 108.848 878.339V878.341Z" fill="#F0903F"/>
<path d="M834.5 862C833.833 862 833.833 863 834.5 863C835.167 863 835.167 862 834.5 862Z" fill="#F4F4F4"/>
<path d="M18.742 928.56C18.594 928.479 18.4532 928.414 18.3052 928.356C17.9459 928.086 17.4082 927.917 16.8775 928.042C16.7507 928.071 16.7319 928.081 16.746 928.085C16.7272 928.086 16.7037 928.09 16.6732 928.093C16.5299 928.108 16.3843 928.116 16.2388 928.128C15.5977 928.179 14.9684 928.492 15.0012 929C15.0341 929.517 15.5484 929.818 16.2388 929.873C16.382 929.885 16.5323 929.89 16.6732 929.908C16.9385 929.941 16.6051 929.895 16.8775 929.958C17.4129 930.083 17.9459 929.915 18.3052 929.643C18.4532 929.585 18.594 929.52 18.742 929.439C19.0872 929.25 19.0848 928.749 18.742 928.562V928.56Z" fill="#F0903F"/>
<path d="M681.499 705C679.502 705 679.499 708 681.499 708C683.5 708 683.5 705 681.499 705Z" fill="#F0903F"/>
<path d="M98.8149 941.554C98.6762 941.382 98.3054 941.178 98.0069 941.148C97.5246 941.099 97.0181 941.017 96.5327 941.001C95.7308 940.975 94.9651 941.479 95.0012 942C95.0374 942.519 95.6765 943.025 96.5327 942.999C97.0181 942.983 97.5216 942.903 98.0069 942.852C98.2873 942.822 98.5466 942.673 98.7094 942.535C98.8872 942.385 99.0139 942.193 98.9988 942C98.9867 941.843 98.9264 941.693 98.8149 941.554V941.554Z" fill="#F0903F"/>
<path d="M720.499 737C718.502 737 718.499 739 720.499 739C722.5 739 722.5 737 720.499 737Z" fill="#F0903F"/>
<path d="M791.55 719.015C791.133 719.152 790.761 719.371 790.375 719.576C789.936 719.812 789.88 720.441 790.22 720.781C790.558 721.119 791.189 721.064 791.425 720.627C791.632 720.24 791.848 719.867 791.985 719.45C792.067 719.198 791.802 718.933 791.55 719.015V719.015Z" fill="#F0903F"/>
<path d="M186.997 955.881L186.935 955.049C186.913 954.767 186.844 954.515 186.661 954.307C186.498 954.125 186.233 953.989 186 954.001C185.458 954.028 185.108 954.463 185.064 955.049L185.002 955.881C184.982 956.151 185.129 956.485 185.294 956.672C185.458 956.859 185.75 957.013 186 956.999C186.502 956.974 187.043 956.505 186.997 955.881V955.881Z" fill="#F0903F"/>
<path d="M164.933 887.208C164.768 886.9 164.423 886.755 164.116 886.584C163.824 886.423 163.532 886.263 163.24 886.102C162.816 885.868 162.256 886.058 162.069 886.457C161.862 886.9 162.145 887.295 162.604 887.462C162.918 887.576 163.232 887.691 163.546 887.805C163.906 887.936 164.19 888.048 164.586 887.979C164.983 887.91 165.083 887.489 164.935 887.208H164.933Z" fill="#F0903F"/>
<path d="M255.996 881.57C255.988 881.425 255.979 881.283 255.968 881.138C255.932 880.545 255.319 879.971 254.5 880.001C253.673 880.029 253.071 880.502 253.032 881.138C253.023 881.283 253.015 881.425 253.004 881.57C252.985 881.885 253.032 882.152 253.23 882.443C253.734 883.186 255.266 883.186 255.77 882.443C255.968 882.15 256.015 881.889 255.996 881.57Z" fill="#F4F4F4"/>
<path d="M167.708 968.686C167.566 968.548 167.43 968.449 167.263 968.361C167.162 968.309 167.063 968.256 166.962 968.204C166.757 968.069 166.539 968 166.304 968C166.068 968 165.848 968.069 165.646 968.204C165.25 968.472 165 968.971 165 969.5C165 970.029 165.25 970.53 165.646 970.796C165.85 970.931 166.068 971 166.304 971C166.539 971 166.76 970.931 166.962 970.796C167.063 970.744 167.162 970.691 167.263 970.639C167.436 970.549 167.554 970.461 167.708 970.314C168.098 969.939 168.096 969.061 167.708 968.686V968.686Z" fill="#F0903F"/>
</svg>
