<svg width="256" height="256" viewBox="0 0 256 256" fill="none" xmlns="http://www.w3.org/2000/svg">
<g clip-path="url(#clip0_158_1845)">
<path d="M128 0C57.3013 0 0 57.3013 0 128C0 198.699 57.3013 256 128 256C198.699 256 256 198.699 256 128C256 57.3013 198.699 0 128 0ZM188.757 159.392C144.992 203.157 66.8053 189.195 66.8053 189.195C66.8053 189.195 52.6933 111.157 96.608 67.2427C120.939 42.912 161.259 43.9147 186.741 69.2587C212.224 94.6027 213.099 135.051 188.757 159.392ZM142.688 75.0187L130.165 100.789L104.395 113.312L130.165 125.835L142.688 151.605L155.211 125.835L180.981 113.312L155.211 100.789L142.688 75.0187Z" fill="white"/>
</g>
<defs>
<clipPath id="clip0_158_1845">
<rect width="256" height="256" fill="white"/>
</clipPath>
</defs>
</svg>
