<svg width="554" height="917" viewBox="0 0 554 917" fill="none" xmlns="http://www.w3.org/2000/svg">
<path d="M383.5 0C382.605 0 381.66 0.446101 381.026 1.17107C380.419 1.86562 379.963 3.00127 380.002 4C380.087 6.16476 381.541 8 383.5 8C384.395 8 385.34 7.55384 385.974 6.82887C386.581 6.13432 387.037 4.99873 386.998 4C386.913 1.83524 385.459 0 383.5 0Z" fill="#F4F4F4"/>
<path d="M228.387 113.464C227.309 112.567 225.991 112 224.5 112C223.09 112 221.609 112.558 220.613 113.464C219.658 114.333 218.942 115.755 219.004 117C219.065 118.292 219.535 119.635 220.613 120.536C221.69 121.433 223.008 122 224.5 122C225.91 122 227.391 121.442 228.387 120.536C229.383 119.63 230.057 118.245 229.996 117C229.935 115.708 229.465 114.365 228.387 113.464Z" fill="#F4F4F4"/>
<path d="M455.998 493C449.339 493 449.329 503 455.998 503C462.667 503 462.667 493 455.998 493Z" fill="#F4F4F4"/>
<path d="M476.422 895C474.114 893.709 471.164 893.192 468.672 892.34C467.334 891.882 466.001 891.424 464.682 890.907C464.116 890.685 463.575 890.429 463.023 890.222C462.642 887.439 462.128 884.203 460.997 881.489C460.767 878.982 460.757 876.479 460.809 873.972C460.87 873.48 460.936 872.987 460.988 872.495C461.002 872.337 460.95 872.209 460.861 872.115C460.861 872.002 460.866 871.884 460.87 871.77C460.903 870.711 459.452 870.775 459.334 871.77C459.235 872.608 459.137 873.435 459.038 874.268C457.629 877.859 457.53 881.907 457.266 885.74C457.252 885.932 457.233 886.119 457.219 886.306C457.158 886.641 457.097 886.976 457.026 887.311C456.79 888.493 456.333 889.784 455.985 891.064C455.118 891.35 454.256 891.518 453.398 891.626C452.456 891.655 451.5 891.715 450.543 891.803C449.2 891.833 447.839 891.833 446.435 891.985C446.166 892.015 445.945 892.192 445.818 892.414C445.427 892.478 445.036 892.547 444.649 892.616C444.612 892.621 444.579 892.641 444.55 892.665C444.31 892.641 444.065 892.631 443.83 892.65C443.151 892.695 442.694 893.581 443.245 894.123C444.202 895.059 445.29 895.335 446.496 895.906C447.867 896.556 449.196 897.3 450.534 898.024C451.905 898.763 453.304 899.556 454.774 900.068C455.066 901.374 455.542 902.714 455.777 903.689C456.451 906.467 457.045 909.299 457.888 912.023C457.94 912.191 458.02 912.333 458.109 912.461C458.241 913.018 458.378 913.58 458.51 914.136C458.595 914.496 458.774 914.732 458.99 914.87C458.976 915.442 458.99 915.998 459.056 916.54C459.108 916.954 459.641 917.21 459.871 916.771C461.337 914.003 461.563 910.122 462.199 907.043C462.764 904.314 463.372 901.586 463.918 898.847C467.15 898.714 470.491 897.975 473.558 897.024C474.33 897.226 475.094 897.345 475.819 897.31C476.94 897.261 477.501 895.606 476.417 895H476.422Z" fill="#F4F4F4"/>
<path d="M551.593 329.692C550.029 328.794 548.041 328.432 546.354 327.843C545.452 327.525 544.549 327.206 543.655 326.848C543.272 326.696 542.908 326.515 542.534 326.373C542.274 324.441 541.927 322.186 541.166 320.298C541.011 318.557 541.002 316.812 541.038 315.072C541.079 314.728 541.125 314.385 541.157 314.042C541.166 313.929 541.13 313.841 541.07 313.777C541.07 313.699 541.07 313.615 541.075 313.537C541.098 312.797 540.117 312.846 540.035 313.537C539.967 314.12 539.899 314.694 539.835 315.273C538.882 317.768 538.818 320.587 538.64 323.249C538.631 323.382 538.618 323.509 538.608 323.642C538.567 323.877 538.526 324.107 538.481 324.343C538.321 325.166 538.011 326.059 537.779 326.956C537.19 327.157 536.612 327.275 536.028 327.348C535.39 327.368 534.747 327.412 534.099 327.471C533.192 327.49 532.271 327.49 531.323 327.598C531.141 327.618 530.995 327.74 530.904 327.897C530.639 327.941 530.375 327.99 530.115 328.039C530.088 328.044 530.065 328.059 530.046 328.074C529.882 328.059 529.718 328.049 529.559 328.064C529.103 328.093 528.793 328.711 529.167 329.089C529.814 329.741 530.548 329.932 531.364 330.329C532.294 330.78 533.188 331.3 534.095 331.8C535.02 332.315 535.969 332.864 536.963 333.222C537.159 334.129 537.482 335.06 537.642 335.742C538.098 337.673 538.499 339.644 539.069 341.537C539.105 341.654 539.155 341.753 539.219 341.841C539.31 342.228 539.402 342.62 539.493 343.008C539.552 343.258 539.671 343.419 539.817 343.518C539.807 343.915 539.817 344.302 539.862 344.68C539.894 344.969 540.259 345.145 540.414 344.841C541.403 342.914 541.554 340.218 541.987 338.075C542.37 336.178 542.78 334.281 543.149 332.378C545.333 332.285 547.594 331.77 549.669 331.109C550.193 331.251 550.708 331.329 551.201 331.305C551.957 331.27 552.34 330.123 551.606 329.697L551.593 329.692Z" fill="#F4F4F4"/>
<path d="M282.309 522.235C282.204 522.118 282.095 522.002 281.991 521.88C280.237 519.929 277 521.481 277 524.001C277 526.521 280.242 528.068 281.991 526.122C282.095 526.005 282.204 525.889 282.309 525.767C283.228 524.745 283.233 523.257 282.309 522.23V522.235Z" fill="#F0903F"/>
<path d="M67.3086 150.235C67.2043 150.118 67.0953 150.002 66.991 149.88C65.2373 147.929 62 149.481 62 152.001C62 154.521 65.242 156.068 66.991 154.122C67.0953 154.005 67.2043 153.889 67.3086 153.767C68.2281 152.745 68.2328 151.257 67.3086 150.23V150.235Z" fill="#F0903F"/>
<path d="M468.089 198.644C467.692 198.221 467.214 197.898 466.765 197.545C466.165 197.182 465.523 197 464.832 197C464.141 197 463.493 197.187 462.899 197.545C461.734 198.256 461 199.588 461 201C461 202.412 461.734 203.744 462.899 204.455C463.498 204.818 464.141 205 464.832 205C465.523 205 466.17 204.813 466.765 204.455C467.214 204.102 467.692 203.774 468.089 203.356C469.301 202.059 469.306 199.956 468.089 198.654V198.644Z" fill="#F0903F"/>
<path d="M276.73 201.978C276.344 201.392 275.953 200.801 275.567 200.215C275.104 199.511 274.338 198.961 273.453 199.002C272.805 199.033 272.188 199.249 271.72 199.722C271.278 200.164 271 200.827 271 201.454C271 202.353 271.483 203.088 272.214 203.566C272.8 203.952 273.392 204.342 273.978 204.728C274.693 205.195 275.835 205.041 276.411 204.414C276.992 203.782 277.229 202.744 276.724 201.983L276.73 201.978Z" fill="#F0903F"/>
<path d="M102.128 278.388C102.06 278.311 101.993 278.233 101.925 278.156C100.785 276.842 98.793 276.533 97.552 277.832C97.3916 277.888 97.2397 277.96 97.0877 278.043C95.9522 278.336 94.9434 279.424 95.0025 280.969C95.0616 282.535 95.8762 283.55 97.0244 283.875C97.189 283.973 97.3621 284.055 97.5436 284.122C98.0966 284.668 98.9619 285.029 99.6035 284.998C100.494 284.952 101.262 284.571 101.925 283.823L102.128 283.597C103.305 282.278 103.276 279.712 102.128 278.388V278.388Z" fill="#F0903F"/>
<path d="M143.805 176.434C143.566 175.924 143.324 175.548 142.921 175.371C142.833 175.334 142.742 175.307 142.654 175.275C142.464 175.205 142.275 175.14 142.082 175.071C141.046 174.7 140 175.828 140 177.497C140 178.141 140.183 178.818 140.481 179.274C140.909 179.929 141.502 180.127 142.082 179.923C142.271 179.854 142.461 179.789 142.654 179.719C142.742 179.687 142.833 179.66 142.921 179.623C143.328 179.44 143.566 179.07 143.805 178.56C144.065 178.002 144.065 176.992 143.805 176.439V176.434Z" fill="#F0903F"/>
<path d="M151.974 52.1629C151.811 50.7978 151.677 49.6457 150.592 48.7501C149.586 47.9223 148.32 48.0046 147.277 47.3656C146.169 46.6927 145.247 45.2162 144.384 44.2432C143.443 43.1782 142.498 42.118 141.556 41.053C137.787 36.8027 134.046 32.5137 130.226 28.3118C122.581 19.9128 114.997 11.446 107.333 3.0664C107.153 2.86792 106.888 3.15838 107.051 3.3617C114.121 12.1286 121.311 20.789 128.367 29.5704C131.839 33.8933 135.432 38.1243 138.974 42.3843C140.694 44.4562 142.442 46.5039 144.125 48.6097C144.459 49.0599 144.806 49.4908 145.177 49.9119C145.145 50.183 145.108 50.4493 145.075 50.7203C145.2 51.2819 145.237 51.8047 145.441 52.3517C146.021 53.9153 146.99 54.5689 148.497 54.9319C150.045 55.3047 152.215 54.1138 151.983 52.1581L151.974 52.1629Z" fill="#F0903F"/>
<path d="M515.919 84.5623C514.837 80.927 511.207 78.0333 508.919 75.1787C506.32 71.9337 503.767 68.6497 501.153 65.4193C495.68 58.6561 491.002 51.0584 486.239 43.7389C476.988 29.5195 468.201 14.9536 459.743 0.202323C459.479 -0.261248 458.801 0.153523 459.056 0.626853C467.249 15.7344 476.046 30.4418 485.334 44.8271C489.887 51.8782 494.822 58.6951 499.199 65.8634C501.385 69.4402 503.595 72.9926 505.883 76.5011C507.025 78.2529 508.144 80.0145 509.244 81.7956C510.409 83.684 511.361 85.548 513.231 86.7435C514.573 87.5975 516.397 86.1775 515.923 84.5672L515.919 84.5623Z" fill="#F4F4F4"/>
<path d="M469.191 605.181C468.831 605.331 468.464 605.481 468.104 605.631C467.713 605.791 467.34 605.906 467.096 606.215C466.968 606.375 466.968 606.625 467.096 606.785C467.347 607.094 467.713 607.209 468.104 607.369C468.464 607.519 468.831 607.669 469.191 607.819C470.431 608.333 472 607.709 472 606.5C472 605.291 470.431 604.667 469.191 605.181V605.181Z" fill="#F4F4F4"/>
<path d="M340.753 603.181C340.464 603.331 340.171 603.481 339.883 603.631C339.57 603.791 339.272 603.906 339.077 604.215C338.974 604.375 338.974 604.625 339.077 604.785C339.277 605.094 339.57 605.209 339.883 605.369C340.171 605.519 340.464 605.669 340.753 605.819C341.744 606.333 343 605.709 343 604.5C343 603.291 341.744 602.667 340.753 603.181V603.181Z" fill="#F4F4F4"/>
<path d="M527.499 446C525.504 446 525.497 448 527.499 448C529.5 448 529.5 446 527.499 446Z" fill="#F0903F"/>
<path d="M442.5 311C441.835 311 441.832 313 442.5 313C443.167 313 443.167 311 442.5 311Z" fill="#F0903F"/>
<path d="M232.999 328C231.669 328 231.665 330 232.999 330C234.334 330 234.334 328 232.999 328Z" fill="#F0903F"/>
<path d="M525.21 843.908C524.696 843.368 524.016 842.964 523.299 843.003L522.581 843.115C522.122 843.261 521.723 843.528 521.387 843.913C521.107 844.166 520.809 844.41 520.546 844.678C520.283 844.945 520.053 845.272 519.816 845.574C519.319 846.202 519 846.976 519 847.833C519 848.617 519.306 849.557 519.816 850.092C520.975 851.31 522.606 851.295 523.762 850.092C524.025 849.82 524.309 849.562 524.543 849.255C524.781 848.948 524.989 848.612 525.21 848.291C525.673 847.624 526 846.991 526 846.1C526 845.34 525.707 844.429 525.21 843.908V843.908Z" fill="#F0903F"/>
<path d="M325.499 894C322.169 894 322.165 899 325.499 899C328.834 899 328.834 894 325.499 894Z" fill="#F4F4F4"/>
<path d="M219.999 497C216.003 497 215.998 503 219.999 503C224 503 224 497 219.999 497Z" fill="#F4F4F4"/>
<path d="M388.499 706C386.502 706 386.498 710 388.499 710C390.5 710 390.5 706 388.499 706Z" fill="#F0903F"/>
<path d="M17.9991 18C15.3361 18 15.3312 22 17.9991 22C20.667 22 20.667 18 17.9991 18Z" fill="#F0903F"/>
<path d="M552.117 693.429C551.519 693.244 550.952 692.959 550.377 692.703C550.136 692.598 549.882 692.453 549.633 692.373C548.99 692.363 548.817 692.323 549.112 692.258C548.944 692.203 548.772 692.143 548.604 692.088C547.625 691.758 546.533 692.388 546.161 693.414C545.749 694.549 546.161 695.565 547.009 696.27C547.485 696.665 547.852 697.04 548.423 697.435C548.65 697.595 548.881 697.75 549.107 697.91C549.185 697.965 549.851 698.441 549.592 698.216C550.88 699.341 552.752 699.346 553.658 697.635C554.497 696.05 553.721 693.934 552.112 693.439L552.117 693.429Z" fill="#F0903F"/>
<path d="M112.456 910.462C111.843 910.241 111.156 910.115 110.506 910.029C109.837 909.943 109.118 910.07 108.449 910.124C107.177 910.227 105.937 911.143 106.002 912.5C106.067 913.875 107.08 914.768 108.449 914.876C109.122 914.93 109.837 915.057 110.506 914.971C111.151 914.885 111.843 914.764 112.456 914.538C114.512 913.79 114.517 911.21 112.456 910.457V910.462Z" fill="#F0903F"/>
<path d="M2.49899 887C-0.830303 887 -0.83569 891 2.49899 891C5.83367 891 5.83367 887 2.49899 887Z" fill="#F0903F"/>
<path d="M25.3076 630.147C24.0469 629.023 22.2368 628.681 20.6327 629.318C19.9312 629.599 19.3867 629.986 18.9206 630.558C18.3614 631.235 17.9592 632.111 18.0033 632.996C18.072 634.398 18.8078 635.744 20.1225 636.468C21.7953 637.39 23.9291 637.072 25.3076 635.841C26.1955 635.048 27 634.26 27 632.996C27 631.733 26.1906 630.94 25.3076 630.152V630.147Z" fill="#F4F4F4"/>
<path d="M221.191 689.181C220.831 689.331 220.464 689.481 220.104 689.631C219.713 689.791 219.34 689.906 219.096 690.215C218.968 690.375 218.968 690.625 219.096 690.785C219.347 691.094 219.713 691.209 220.104 691.369C220.464 691.519 220.831 691.669 221.191 691.819C222.431 692.333 224 691.709 224 690.5C224 689.291 222.431 688.667 221.191 689.181V689.181Z" fill="#F4F4F4"/>
<path d="M61.4993 382C59.5021 382 59.4984 386 61.4993 386C63.5002 386 63.5002 382 61.4993 382Z" fill="#F0903F"/>
<path d="M68.8591 774.373L68.2324 772.645C67.9044 771.741 67.0575 770.955 66 771.002C64.9278 771.049 64.12 771.674 63.7675 772.645L63.1409 774.373C62.4947 776.153 64.1788 778 66 778C67.8212 778 69.5053 776.149 68.8591 774.373V774.373Z" fill="#F0903F"/>
<path d="M35.3196 220.372C34.9875 220.097 34.6698 219.897 34.2799 219.722C34.0441 219.617 33.8131 219.513 33.5772 219.408C33.1007 219.138 32.5905 219 32.0419 219C31.4932 219 30.9782 219.138 30.5065 219.408C29.5824 219.945 29 220.941 29 222C29 223.059 29.5824 224.06 30.5065 224.592C30.983 224.862 31.4932 225 32.0419 225C32.5905 225 33.1055 224.862 33.5772 224.592C33.8131 224.487 34.0441 224.383 34.2799 224.278C34.6842 224.098 34.9586 223.922 35.3196 223.628C36.2292 222.878 36.2244 221.122 35.3196 220.372V220.372Z" fill="#F0903F"/>
</svg>
