<svg width="64" height="64" viewBox="0 0 64 64" fill="none" xmlns="http://www.w3.org/2000/svg">
<path d="M61.5158 36.1411C61.4184 39.974 59.422 42.6314 57.2864 45.6295C55.1508 48.5999 53.356 52.3981 50.323 54.478C44.4171 58.5545 37.9407 59.6953 30.9565 60.231C26.9427 60.5371 25.4053 60.1614 21.9758 58.2693C19.4576 56.871 16.4733 56.4397 14.143 54.6589C9.77437 51.299 6.35879 46.4991 4.03536 41.5184C1.46151 36.0089 1.90671 29.0804 3.47189 23.2579C4.41796 19.738 5.14838 13.7137 7.84745 11.2512C10.477 8.85124 14.463 7.31388 17.5585 5.5887C17.8159 5.44957 17.9759 5.26175 18.0733 5.06697C20.2367 4.42003 22.421 4.14178 24.6679 3.52962C27.3392 2.79224 29.6418 3.03571 32.3478 2.74355C36.0834 2.34008 39.4641 1.96443 43.0884 3.52266C46.6709 5.0461 48.7439 7.72431 51.4082 10.3608C53.7664 12.6842 56.3194 14.3955 58.0098 17.3937C61.0428 22.7918 61.655 30.0264 61.5158 36.148V36.1411Z" fill="#D9D7D5"/>
<path d="M58.0445 22.0266C57.8914 21.9431 57.7454 21.8457 57.6271 21.7275C57.1819 21.2823 56.7436 20.8301 56.3263 20.364C56.361 20.6075 56.3819 20.851 56.4028 21.0944C56.3471 20.9831 56.2915 20.8718 56.2358 20.7536C56.208 21.2544 56.1732 21.7553 56.1524 22.2631C56.1315 22.7222 56.1245 23.1814 56.1106 23.6474C56.1245 23.7239 56.1384 23.7935 56.1524 23.877C56.1384 24.0996 56.1176 24.3222 56.0967 24.5448C56.0411 26.903 55.895 29.2821 54.6985 31.369C53.9263 32.7185 52.862 33.5881 51.6655 34.562C51.3733 34.7985 51.109 35.0628 50.8447 35.3272C49.8777 36.8158 49.2656 38.4714 48.0343 39.8836C45.2865 43.0348 41.4744 43.3548 37.5719 43.9113C33.8642 44.44 30.4486 46.7078 26.6852 45.6226C23.68 44.76 21.1479 42.5201 19.2419 40.0575C17.2454 37.4767 14.8246 35.3619 12.6472 32.9203C10.2195 30.1934 9.32209 26.7082 9.2734 23.1605C8.54993 20.2597 8.8908 17.0041 9.96903 14.2076C9.87164 14.0755 9.69078 13.9989 9.52383 14.1102C7.48561 15.4319 6.51867 18.1519 6.01781 20.3988C5.80217 21.3866 5.60043 22.3883 5.42652 23.4039C5.07175 24.6561 4.76567 25.9152 4.60567 27.1743C4.37611 28.976 4.39698 30.9725 4.5848 32.9759C4.27872 36.6141 4.80741 40.2523 6.84562 43.5009C11.1794 50.4155 18.1567 55.5076 26.2609 57.1562C31.6938 58.2623 38.0449 57.7127 43.6587 55.7163C49.8012 54.6937 54.1072 49.0242 56.9523 43.327C58.7262 39.7653 59.7836 35.7863 60.0479 31.8212C60.2357 29.0734 60.0549 24.3431 58.0375 22.0335L58.0445 22.0266Z" fill="#AFAEAE"/>
<path d="M41.7596 8.25302C40.3614 7.38348 38.8936 7.06349 37.3076 6.93132C35.6172 6.38872 33.7529 6.4374 32.0068 6.61131C31.2207 6.68783 30.3929 6.75045 29.5582 6.82001C26.3443 6.35394 23.2348 7.50869 20.7931 9.55386C20.8975 9.49125 21.0366 9.40777 21.2453 9.28255C21.134 9.35212 21.0436 9.42864 20.9392 9.50516C20.8488 9.55386 20.7723 9.5956 20.7166 9.62343C20.6401 9.68604 20.5705 9.7556 20.494 9.81821C20.1531 10.0965 19.8332 10.3886 19.5619 10.7156C15.9724 14.5555 14.4211 20.4406 17.3776 25.15C19.0401 27.8004 21.8366 29.5604 24.9113 29.9777C25.8782 30.1099 26.7061 30.103 27.6521 30.1169C25.5096 30.0821 28.6956 30.3673 29.7669 30.4508C29.9268 30.4647 31.1373 30.4995 31.2068 30.4856C32.2433 30.5899 33.2659 30.8403 34.3163 30.8543C36.6815 30.896 39.2066 30.2143 41.2657 29.0526C44.9039 27.0004 48.1595 23.1744 48.1595 18.8267C48.1595 14.479 45.3769 10.4999 41.7735 8.25302H41.7596Z" fill="#F4F4F4"/>
<path d="M20.7097 9.61644C20.7097 9.61644 20.7584 9.5747 20.7862 9.54688C20.5566 9.686 20.5566 9.69296 20.7097 9.61644Z" fill="#F4F4F4"/>
<path d="M63.9227 32.9481C63.7279 29.136 63.4983 25.1987 62.3923 21.5119C61.4114 18.2424 59.7628 15.105 57.4254 12.6008C54.789 9.7556 51.8395 6.6948 48.8065 4.29485C45.6344 1.79056 42.3023 0.336672 38.2606 0.0514613C36.4172 -0.0876661 34.6781 0.079285 32.8694 0.267107C30.9078 0.468842 28.793 0.260151 26.8522 0.614925C23.6731 1.19926 19.5271 2.13837 16.5915 3.41834C15.6455 3.82877 13.7394 4.58007 12.1256 5.51918C10.296 6.43046 8.52216 7.43912 6.99176 8.63562C3.61792 11.286 3.27706 14.3607 2.37968 18.3258C1.56579 21.8944 0.146695 25.1918 0.0145243 28.9274C-0.0967776 31.8003 0.452771 34.7081 0.939717 37.5185C1.41275 40.2175 2.6162 42.7914 4.09095 45.0522C5.96917 47.9321 6.37264 50.6382 9.00215 52.9825C11.8334 55.4937 13.9551 57.365 17.4333 58.9302C20.6262 60.3632 23.0123 62.5266 26.6087 62.9509C29.7043 63.3266 33.4886 62.9231 36.5633 62.4918C40.7858 61.9005 44.5144 60.4606 48.3195 58.638C50.8586 57.4137 53.5368 55.7511 55.1229 53.3859C57.5089 49.8382 60.3958 46.3183 62.4201 42.5549C64.0966 39.4176 64.1035 36.4541 63.9227 32.9551V32.9481ZM61.5158 36.1411C61.4184 39.9741 59.4219 42.6314 57.2863 45.6296C55.1507 48.5999 53.356 52.3981 50.323 54.4781C44.417 58.5545 37.9406 59.6954 30.9564 60.231C26.9426 60.5371 25.4053 60.1614 21.9758 58.2693C19.4576 56.8711 16.4733 56.4398 14.1429 54.6589C9.77431 51.299 6.35873 46.4991 4.0353 41.5184C1.46145 36.0089 1.90665 29.0804 3.47183 23.2579C4.4179 19.738 5.14832 13.7138 7.84739 11.2512C10.4769 8.85127 14.4629 7.3139 17.5585 5.58872C17.8159 5.4496 17.9759 5.26177 18.0733 5.067C20.2367 4.42005 22.421 4.14181 24.6679 3.52965C27.3391 2.79227 29.6417 3.03574 32.3477 2.74357C36.0833 2.3401 39.4641 1.96446 43.0883 3.52268C46.6709 5.04613 48.7439 7.72434 51.4082 10.3608C53.7664 12.6842 56.3194 14.3955 58.0098 17.3937C61.0427 22.7918 61.6549 30.0265 61.5158 36.1481V36.1411Z" fill="#252523"/>
<path d="M32.2015 9.26165C32.2015 8.67731 31.7494 7.93994 31.1303 7.84951C30.3094 7.73125 29.3146 7.86343 28.5773 8.27386C28.5147 8.30864 28.459 8.36428 28.3964 8.41297C27.6451 8.39906 27.0121 9.09469 27.0121 9.82511C27.0121 10.639 27.659 11.1886 28.4242 11.2373C29.1477 11.2859 29.9199 11.0633 30.6294 10.8268C30.9077 10.7642 31.172 10.6599 31.4711 10.5138L31.4572 10.4929C31.8955 10.2286 32.1946 9.78338 32.1946 9.24774L32.2015 9.26165Z" fill="#252523"/>
<path d="M13.9343 31.4664C13.5795 31.1951 13.183 31.0004 12.7795 30.896C12.7795 30.896 12.7795 30.896 12.7726 30.8891C12.1465 30.4925 11.2909 30.5969 10.7274 31.0352C10.1987 31.4456 9.79525 32.2943 10.0665 32.969C10.1848 33.2542 10.2822 33.5186 10.4561 33.769C10.5118 33.8525 10.5605 33.9429 10.6231 34.0264C10.6439 34.0542 10.6439 34.0542 10.6578 34.0681C10.7135 34.2003 10.7552 34.3533 10.8109 34.4716C10.9013 34.6525 11.0335 34.8403 11.1726 34.9794C11.2839 35.0977 11.4578 35.2368 11.5969 35.3133C11.6387 35.3411 11.6248 35.3203 11.59 35.2924C12.2369 35.7794 12.8769 36.0368 13.7117 35.8768C14.4491 35.7377 15.1238 35.1603 15.3186 34.4229C15.6595 33.1499 14.8804 32.176 13.9343 31.4595V31.4664Z" fill="#252523"/>
<path d="M56.2777 39.5775C56.0481 38.5689 55.1994 37.755 54.1142 37.9011C53.6621 37.9637 53.2864 38.1723 53.0012 38.4576C52.6534 38.5689 52.3334 38.7706 52.0691 38.9863C51.3525 39.5845 51.2412 40.7601 51.1021 41.6297C50.9699 42.4505 51.1299 43.2018 51.8186 43.7374C52.4934 44.2592 53.2934 44.2522 54.0447 43.8974C55.5403 43.1879 56.6463 41.2262 56.2777 39.5845V39.5775Z" fill="#252523"/>
<path d="M32.3129 49.2191C31.5825 48.5304 30.539 48.4608 29.6973 48.913C29.2869 49.0661 28.9182 49.3722 28.6817 49.713C28.6678 49.7269 28.6608 49.7408 28.6469 49.7547C28.2713 50.2904 28.3547 51.0556 28.6469 51.5982C28.6678 51.6399 28.6956 51.6677 28.7234 51.7095C28.7582 51.786 28.793 51.8695 28.8417 51.939C29.2799 52.6138 30.1356 53.1286 30.9564 53.1216C31.5895 53.1216 32.1807 52.8295 32.5286 52.3495C32.7442 52.1129 32.9181 51.8347 32.9877 51.5147C33.1755 50.6799 32.939 49.7965 32.3129 49.2052V49.2191Z" fill="#252523"/>
<path d="M47.1091 19.5223C47.0396 19.3554 46.963 19.1954 46.8517 19.0563C46.483 18.5763 46.0309 18.4163 45.4396 18.3467C44.6257 18.2563 43.6309 18.9658 43.2205 19.6197C42.8936 20.1275 42.7197 20.7397 42.7753 21.324C42.5805 21.651 42.4484 22.0197 42.4344 22.3814C42.4136 23.1675 42.9284 24.0022 43.7283 24.1831C44.4588 24.3501 45.1613 24.0857 45.69 23.5709C46.0378 23.237 46.1909 22.8127 46.4483 22.4231C46.4622 22.4092 46.49 22.3883 46.5387 22.3466C46.6361 22.2562 46.817 21.8875 46.9143 21.8805C46.8656 21.9432 46.817 22.0058 46.7683 22.0684C46.8726 21.9362 46.97 21.804 47.0743 21.6718C47.1717 21.5049 47.2622 21.2823 47.3039 21.0875C47.4222 20.5727 47.3387 19.9954 47.0952 19.5084L47.1091 19.5223Z" fill="#252523"/>
<path d="M27.9443 25.5326C27.8539 25.1013 27.6173 24.6909 27.4156 24.3014C26.873 23.2231 25.913 22.3675 24.6539 22.3744C23.4574 22.3814 22.5392 23.4457 22.6992 24.6283C22.7479 25.0109 22.894 25.317 23.0957 25.5744C23.1235 25.7135 23.1722 25.8457 23.2348 25.9709C23.2348 26.0057 23.2418 26.0404 23.2487 26.0822C23.2835 26.3535 23.3461 26.5622 23.4853 26.8126C23.5479 26.9239 23.6174 27.0213 23.687 27.1256C24.0278 27.6056 24.3409 27.9882 24.8904 28.2247C25.6835 28.5586 26.6782 28.3987 27.3043 27.7934C27.9234 27.1952 28.1251 26.3604 27.9443 25.5326V25.5326Z" fill="#252523"/>
<path d="M37.1476 36.6141C36.9807 36.7254 36.7998 36.8089 36.6468 36.9341C36.6398 36.9341 36.6468 36.9341 36.6329 36.948C36.5772 36.9619 36.5216 36.9828 36.4798 36.9967C35.7981 37.1915 35.0051 37.6089 34.8938 38.3949C34.7964 39.0975 34.9633 39.7445 35.6033 40.134C35.7494 40.2245 35.9372 40.294 36.1042 40.3427C36.4659 40.4471 36.6885 40.3288 36.9946 40.3288C36.8763 40.3427 36.7581 40.3636 36.9737 40.3427C37.1824 40.3219 37.3842 40.301 37.5928 40.2592C38.4137 40.1062 39.0189 39.6471 39.485 38.9584C40.431 37.5463 38.5528 35.6959 37.1476 36.6211V36.6141Z" fill="#252523"/>
<path d="M16.4872 47.8069C16.3411 47.5217 16.1254 47.2574 15.882 47.0348C15.8611 47.0069 15.8402 46.9791 15.8193 46.9582C15.8124 46.9443 15.8124 46.9374 15.7985 46.9165C15.7707 46.8678 15.7567 46.84 15.7428 46.8261C15.3881 45.873 14.3585 45.1496 13.3151 45.4905C12.202 45.8522 11.736 46.84 11.9238 47.9461C12.0907 48.906 12.849 49.4625 13.4472 50.1582C14.0733 50.8886 15.2768 50.8608 15.9863 50.3112C16.7724 49.706 16.9324 48.6834 16.4872 47.8139V47.8069Z" fill="#252523"/>
<path d="M13.9482 32.5517C13.169 31.7795 10.9569 31.1256 10.5326 32.6282C10.4421 32.9412 10.5326 33.2125 10.6995 33.449C10.7969 33.9499 11.0056 34.4438 11.4299 34.7429C11.9586 35.1116 12.7656 35.2646 13.3916 35.202C14.0177 35.1394 14.5951 34.7986 14.7273 34.1447C14.8733 33.4282 14.4003 33.0108 13.9412 32.5656L13.9482 32.5517Z" fill="#AFAEAE"/>
<path d="M15.9793 47.8417C15.3881 46.9373 14.9081 45.8104 13.649 45.9356C12.5568 46.04 11.889 47.2365 12.2507 48.2451C12.4664 48.8364 13.1272 49.3651 13.6003 49.7477C13.962 50.0399 14.2542 50.492 14.755 50.5059C14.9498 50.5059 15.0959 50.4086 15.1794 50.2694C16.3063 50.0886 16.5359 48.6903 15.9793 47.8417Z" fill="#AFAEAE"/>
<path d="M32.5007 50.3669C32.0068 49.5252 30.5877 49.1426 29.7251 49.6156C28.4034 50.346 28.8069 52.6347 30.4068 52.6416C30.4277 52.6416 30.4486 52.6347 30.4695 52.6347C30.5181 52.6486 30.5599 52.6694 30.6086 52.6834C31.1721 52.8155 31.826 52.7181 32.2503 52.2938C32.7442 51.7999 32.8555 50.986 32.5007 50.3738V50.3669Z" fill="#AFAEAE"/>
<path d="M24.9113 23.4736C24.7166 23.3275 24.4592 23.2649 24.1809 23.3414C23.1375 23.6336 22.8175 24.8788 23.3392 25.7762C23.367 25.8248 23.5479 26.1101 23.6661 26.2074C23.7148 26.3466 23.7775 26.4857 23.847 26.6179C24.0696 27.07 24.4035 27.3691 24.8626 27.5639C24.9809 27.6126 25.0992 27.6405 25.2105 27.6683C25.9687 28.0161 26.8869 27.7796 27.2417 26.9379C27.8539 25.4909 26.4974 23.411 24.9183 23.4736H24.9113Z" fill="#AFAEAE"/>
<path d="M39.2901 38.4089C39.2206 37.6158 38.6501 37.3654 37.9893 37.3654C37.398 37.275 36.751 37.3654 36.3615 37.5741C35.9441 37.7967 35.3389 38.228 35.2206 38.7219C35.1232 39.1393 35.3528 39.5775 35.7285 39.7375C35.9511 39.9532 36.2641 40.0714 36.6119 40.0575C37.3284 40.0297 38.8727 39.6193 39.151 38.7984C39.2484 38.701 39.304 38.5689 39.2901 38.4089V38.4089Z" fill="#AFAEAE"/>
<path d="M55.2411 38.9932C54.8167 38.708 54.2881 38.5897 53.7802 38.708C53.2585 38.8332 52.9316 39.2019 52.6464 39.5497C52.0481 40.2871 51.589 41.1844 51.582 42.2766C51.582 42.8053 51.7142 43.3131 52.1594 43.64C52.7577 44.0783 53.4116 43.9461 54.0446 43.6609C54.1907 43.5913 54.3228 43.4592 54.4272 43.3061C55.1437 42.9583 55.7698 42.2627 55.9924 41.5462C56.2637 40.6697 56.0271 39.5288 55.2411 38.9932V38.9932Z" fill="#AFAEAE"/>
<path d="M47.1231 20.4128C47.0466 19.6128 46.3162 19.112 45.551 19.1259C44.6327 19.1398 44.1597 19.7381 43.6658 20.4059C43.4015 20.7676 43.2554 21.0528 43.1441 21.4911C43.0467 21.8806 42.7476 22.1797 42.7476 22.5762C42.7476 22.7154 42.8032 22.8336 42.8867 22.9241C42.9076 23.2371 43.0884 23.5501 43.3875 23.6893C43.9719 23.9606 44.911 23.7449 45.4327 23.4249C45.7736 23.2162 45.9405 22.8823 46.1631 22.5693C46.3857 22.2493 46.664 21.9641 46.7823 21.5815C46.7962 21.5467 46.8031 21.505 46.8101 21.4702C47.0257 21.1641 47.1579 20.7884 47.1231 20.4128V20.4128Z" fill="#AFAEAE"/>
<path d="M31.353 8.95559C31.2695 8.82342 31.1234 8.71213 30.9982 8.69126C30.9704 8.69126 30.9425 8.69126 30.9147 8.69126C30.3095 8.49648 29.4817 8.73996 28.9182 8.88604C28.2643 9.05995 27.5896 9.25471 27.4713 9.97817C27.3392 10.1243 27.367 10.3747 27.5409 10.4999C27.5965 10.5416 27.6591 10.5764 27.7218 10.6112C27.7983 10.8338 27.9861 11.0216 28.2783 11.0425C28.793 11.0842 29.2313 10.9173 29.7182 10.7851C30.1356 10.6669 30.6713 10.6947 31.0539 10.5138C31.6799 10.2147 31.7912 9.42863 31.346 8.96951L31.353 8.95559Z" fill="#AFAEAE"/>
</svg>
