<svg width="256" height="256" viewBox="0 0 256 256" fill="none" xmlns="http://www.w3.org/2000/svg">
<path d="M128 240C124.978 240.001 122.009 239.207 119.392 237.696L92.0002 221.48C87.9122 219.192 89.9042 218.384 91.2562 217.912C95.604 216.569 99.7669 214.688 103.648 212.312C103.973 212.162 104.331 212.097 104.688 212.123C105.045 212.15 105.389 212.267 105.688 212.464L126.736 224.968C127.128 225.175 127.565 225.284 128.008 225.284C128.452 225.284 128.888 225.175 129.28 224.968L211.36 177.592C211.744 177.362 212.062 177.036 212.282 176.646C212.502 176.256 212.618 175.816 212.616 175.368V80.6001C212.616 80.1452 212.5 79.698 212.277 79.3014C212.054 78.9049 211.733 78.5724 211.344 78.3361L129.264 31.0001C128.877 30.7821 128.44 30.6676 127.996 30.6676C127.552 30.6676 127.115 30.7821 126.728 31.0001L44.6962 78.3521C44.3049 78.5835 43.98 78.912 43.753 79.3058C43.5259 79.6997 43.4044 80.1455 43.4002 80.6001V175.328C43.4014 175.775 43.5212 176.213 43.7475 176.598C43.9739 176.984 44.2985 177.302 44.6882 177.52L67.2002 190.512C79.4002 196.608 86.8722 189.424 86.8722 182.208V88.6801C86.8722 88.0435 87.1251 87.4331 87.5752 86.983C88.0253 86.5329 88.6357 86.2801 89.2722 86.2801H99.6722C100.309 86.2801 100.919 86.5329 101.369 86.983C101.819 87.4331 102.072 88.0435 102.072 88.6801V182.216C102.072 198.496 93.2082 207.816 77.7682 207.816C71.1073 207.932 64.5507 206.151 58.8642 202.68L37.2882 190.304C34.6689 188.779 32.4956 186.593 30.9851 183.965C29.4746 181.337 28.6799 178.359 28.6802 175.328V80.6001C28.6724 77.5643 29.4638 74.58 30.9748 71.9469C32.4858 69.3139 34.6632 67.125 37.2882 65.6001L119.376 18.2081C122.02 16.7614 124.986 16.0032 128 16.0032C131.014 16.0032 133.98 16.7614 136.624 18.2081L218.704 65.6001C221.323 67.1224 223.497 69.305 225.009 71.9301C226.521 74.5551 227.318 77.5308 227.32 80.5601V175.328C227.316 178.359 226.518 181.336 225.007 183.963C223.495 186.591 221.322 188.777 218.704 190.304L136.624 237.696C134.002 239.209 131.027 240.004 128 240V240Z" fill="#83CD29"/>
<path d="M112.432 143.624C112.432 142.987 112.685 142.377 113.135 141.927C113.585 141.477 114.196 141.224 114.832 141.224H125.448C126.015 141.226 126.564 141.428 126.996 141.796C127.428 142.164 127.715 142.672 127.808 143.232C129.408 154.04 134.208 159.488 155.912 159.488C173.2 159.488 180.568 155.576 180.568 146.4C180.568 141.112 178.48 137.184 151.608 134.552C129.144 132.328 115.256 127.352 115.256 109.4C115.256 92.84 129.216 82.96 152.616 82.96C178.912 82.96 191.928 92.088 193.576 111.672C193.601 111.999 193.559 112.328 193.452 112.638C193.346 112.948 193.176 113.233 192.955 113.475C192.734 113.717 192.466 113.911 192.167 114.045C191.868 114.18 191.544 114.251 191.216 114.256H180.528C179.992 114.248 179.474 114.062 179.056 113.725C178.639 113.389 178.346 112.922 178.224 112.4C175.672 101.032 169.424 97.4 152.624 97.4C133.744 97.4 131.552 103.976 131.552 108.904C131.552 114.872 134.144 116.616 159.632 119.984C184.856 123.32 196.84 128.04 196.84 145.768C196.84 163.656 181.928 173.896 155.92 173.896C119.96 173.944 112.432 157.456 112.432 143.624Z" fill="#83CD29"/>
</svg>
