<svg width="125" height="138" viewBox="0 0 125 138" fill="none" xmlns="http://www.w3.org/2000/svg">
<path d="M67.2829 111.104C61.2129 110.524 55.5029 109.044 49.6229 106.754C43.6929 104.454 39.6429 101.014 35.1629 96.6741C24.3329 86.1641 18.7229 71.2141 20.4329 55.9341C22.7429 58.9041 24.7329 62.0241 26.7929 65.3041C31.4029 72.6141 37.1429 79.8841 43.0929 86.1241C48.7529 92.0641 53.3329 98.9741 59.2029 104.694C61.6829 107.104 64.5329 109.034 67.2729 111.104H67.2829Z" fill="#D9D7D5"/>
<path d="M115.423 77.8841C114.343 81.8041 111.483 85.3241 109.593 88.8841C108.573 90.8141 107.723 93.1441 106.243 94.8241C105.803 95.3241 105.323 95.7841 104.833 96.2141C99.9232 100.024 95.0432 103.734 89.6432 106.884C89.3132 107.064 89.1932 107.384 89.2032 107.694C88.4832 107.284 87.8132 106.834 87.2832 106.314C85.2832 104.844 83.3732 103.194 81.7032 101.564C78.4032 98.3541 75.6732 94.6641 72.3432 91.4341C63.9032 83.2641 56.5532 73.1441 49.4432 63.7741C45.8332 59.0041 41.6232 54.7941 38.0932 49.9241C34.8532 45.4241 32.0232 40.6441 29.2632 35.8541C29.3232 35.7841 29.3832 35.6841 29.4232 35.5741C31.0932 30.8041 39.2032 25.2841 43.3832 22.4941C49.3232 18.5441 55.1232 16.8741 62.1032 15.9841C72.2032 14.7241 81.8232 15.1141 91.0132 19.7641C97.8532 23.2241 102.603 28.2141 107.413 34.1441C116.873 45.8241 119.413 63.4641 115.433 77.8741L115.423 77.8841Z" fill="#D9D7D5"/>
<path d="M58.5431 106.514C58.3631 106.394 58.1831 106.294 58.0031 106.184C58.0031 106.184 58.0031 106.184 57.9931 106.174C57.9031 106.104 57.8131 106.044 57.7231 105.974C56.8131 103.324 53.2031 100.984 51.3031 99.114C46.9831 94.884 42.9031 89.9541 38.9931 85.3141C35.5031 81.1841 32.6531 76.694 29.8331 72.104C29.6631 71.824 29.5031 71.5241 29.3331 71.2241C29.1931 70.9641 29.0531 70.7141 28.9131 70.4641C28.6231 69.9141 28.3531 69.354 28.0731 68.774C28.0131 68.684 27.9631 68.5941 27.9031 68.5041C27.8731 68.4641 27.8431 68.424 27.8231 68.384C25.9231 65.454 23.2231 62.7241 21.7031 59.5341C21.6031 59.6241 21.5231 59.7541 21.5231 59.9141C21.4731 61.6441 21.5831 63.404 21.8131 65.174C21.7931 65.244 21.7831 65.314 21.8131 65.384C21.8331 65.434 21.8431 65.494 21.8531 65.544C21.9331 66.144 22.0531 66.754 22.1631 67.354C22.3031 68.814 22.3131 70.4741 22.6831 71.7841C23.5531 74.8741 24.7231 77.834 26.1631 80.704C27.0731 82.514 28.1631 84.144 29.3431 85.704C30.3531 87.394 31.4731 89.044 32.7231 90.644C34.8131 93.494 37.3131 96.4141 40.0431 98.4041C41.6731 100.224 43.4531 101.884 45.4131 103.244C48.5331 105.404 54.4931 108.644 58.3831 107.744C58.9931 107.604 59.0031 106.814 58.5431 106.494V106.514Z" fill="#AFAEAE"/>
<path d="M63.7729 58.3241C63.6929 58.3241 63.6929 58.4441 63.7729 58.4441C63.8529 58.4441 63.8529 58.3241 63.7729 58.3241Z" fill="#AFAEAE"/>
<path d="M100.583 30.7842C99.7431 29.9442 98.8631 29.1742 97.9531 28.4442C90.4431 20.6042 80.733 16.5642 69.723 16.5942C58.973 16.6142 46.4931 21.3542 38.1531 28.7742C37.5731 29.1142 37.0031 29.4742 36.4531 29.8742C34.7031 31.1342 31.6231 33.6242 32.3831 36.1242C32.3531 36.3342 32.4431 36.5041 32.5931 36.6141C32.6331 36.6841 32.7031 36.7241 32.7631 36.7641C33.0931 38.6041 35.1131 41.3241 36.4831 43.0441C42.5231 53.7741 55.4031 69.7042 57.0731 71.9342C62.0931 78.5942 68.4731 84.3042 73.8931 90.6542C76.8031 94.0542 80.143 96.5541 83.383 99.6041C84.823 100.954 86.0231 102.554 87.8331 103.214C88.1331 103.374 88.4431 103.454 88.7431 103.454C88.8131 103.464 88.8631 103.484 88.9331 103.494C89.8631 103.604 90.1331 102.564 89.7431 101.914C89.7431 101.884 89.7531 101.854 89.7431 101.814C89.6231 100.954 89.1531 100.624 88.5531 100.214C87.2031 98.3942 85.8031 96.6142 84.1731 95.0042C83.3131 94.1542 82.5431 93.1842 81.7931 92.1942C81.5331 91.8442 81.2731 91.4942 81.0031 91.1542C80.2731 90.1842 79.5331 89.2342 78.7131 88.3742C77.4731 86.9242 76.1831 85.5142 74.8731 84.1242C72.4831 80.8342 70.0431 77.5641 68.7131 73.6741C66.5331 67.2641 65.253 61.3641 61.413 55.6141C60.163 53.7441 58.1731 51.8742 56.3031 49.9142C54.2431 46.1342 52.0631 42.4442 54.1531 38.2142C57.0431 32.3742 63.2731 32.5642 68.3731 29.9942C68.7431 29.8042 69.083 29.6042 69.443 29.4142C69.963 29.2642 70.4731 29.1042 70.9831 28.9142C76.0631 27.0042 81.3431 24.2942 86.9231 24.9042C86.9831 24.9042 87.043 24.9041 87.1031 24.8941C88.5131 25.2841 89.9131 25.7342 91.2731 26.2742C93.2831 27.3442 95.2931 28.4541 97.3631 29.6041C97.5031 29.6841 97.6331 29.6941 97.7631 29.6741C98.5331 30.1941 99.2931 30.7442 100.013 31.3442C100.383 31.6542 100.913 31.1542 100.553 30.8042L100.583 30.7842Z" fill="#AFAEAE"/>
<path d="M112.093 60.5041C111.963 53.7741 109.603 46.8341 104.733 42.0141C99.203 36.5441 90.3131 35.3241 83.5531 39.2741C75.8331 43.7941 74.7131 53.5741 77.7831 61.2141C78.2931 62.4941 78.963 63.804 79.763 65.104C80.743 67.414 80.9731 67.9541 80.4331 66.7141C80.1631 66.0541 80.1931 66.2141 80.5331 67.1841C80.7531 68.1341 80.913 69.0941 81.103 70.0441C82.663 77.7041 87.1231 82.4541 94.2531 85.3441C99.3131 87.3941 106.773 84.0341 109.163 79.2741C112.083 73.4641 112.213 66.9041 112.093 60.4941V60.5041Z" fill="#F4F4F4"/>
<path d="M111.663 90.9041C112.573 89.0141 113.423 87.0641 114.513 85.1541C120.743 74.2941 122.013 60.6741 118.243 48.6741C114.953 38.2141 108.113 26.9341 98.323 21.3141C92.463 17.9441 85.353 14.6041 78.673 13.2541C71.633 11.8341 62.143 12.6841 55.113 14.2241C52.113 14.8841 49.233 16.0941 46.483 17.5941C44.693 16.5541 43.323 14.7241 41.493 13.6241C38.593 11.8841 35.683 10.0241 32.753 8.36407C28.193 5.79407 23.203 3.04409 18.283 1.19409C12.783 -0.86591 2.01297 -0.915908 0.292973 6.41409C-0.817027 11.1041 1.48298 16.2841 2.92298 20.5741C4.71298 25.9541 7.08297 30.8941 9.07297 36.1941C10.333 39.5941 11.563 42.9841 13.013 46.2441C13.213 46.3541 13.393 46.5041 13.583 46.6741C14.483 48.8641 15.953 50.7441 17.633 52.5841C18.153 53.1541 18.643 53.7241 19.123 54.3041C15.883 70.8441 21.513 86.6041 32.953 98.3041C38.133 103.624 42.553 106.684 49.513 109.434C55.683 111.874 64.163 116.214 71.103 114.274C72.013 115.084 72.843 115.794 73.693 116.424C74.953 117.604 76.263 118.704 77.633 119.664C80.913 121.964 84.583 123.644 87.963 125.804C91.943 128.374 95.983 130.844 100.183 133.054C104.333 135.254 109.553 138.484 114.493 137.704C137.253 134.154 114.923 101.814 111.673 90.9041H111.663ZM62.093 15.9841C72.193 14.7241 81.813 15.1141 91.003 19.7641C97.843 23.2241 102.593 28.2141 107.403 34.1441C116.863 45.8241 119.403 63.4641 115.423 77.8741C114.343 81.7941 111.483 85.3141 109.593 88.8741C108.573 90.8041 107.723 93.1341 106.243 94.8141C105.803 95.3141 105.323 95.7741 104.833 96.2041C99.923 100.014 95.043 103.724 89.643 106.874C89.313 107.054 89.193 107.374 89.203 107.684C88.483 107.274 87.813 106.824 87.283 106.304C85.283 104.834 83.373 103.184 81.703 101.554C78.403 98.3441 75.673 94.6541 72.343 91.4241C63.903 83.2541 56.553 73.1341 49.443 63.7641C45.833 58.9941 41.623 54.7841 38.093 49.9141C34.853 45.4141 32.023 40.6341 29.263 35.8441C29.323 35.7741 29.383 35.6741 29.423 35.5641C31.093 30.7941 39.203 25.2741 43.383 22.4841C49.323 18.5341 55.123 16.8641 62.103 15.9741L62.093 15.9841ZM98.443 112.144C98.283 112.074 98.153 111.984 98.013 111.874C95.843 111.234 93.333 110.004 92.203 109.444C91.653 109.164 91.093 108.844 90.543 108.514C95.823 106.964 101.193 103.624 105.123 99.4341C105.283 99.3241 105.453 99.2141 105.613 99.0741C105.663 99.1941 105.723 99.3241 105.783 99.4441C106.713 101.544 107.363 103.814 107.993 106.024C108.403 107.424 108.913 108.974 108.843 110.444C108.693 113.224 106.203 113.304 103.793 113.094C103.573 113.084 103.363 113.054 103.143 113.024C103.143 113.014 103.133 112.984 103.133 112.964C101.793 113.174 100.343 112.924 99.183 112.464C98.933 112.364 98.693 112.254 98.443 112.144ZM28.143 33.9841C25.843 30.1141 21.003 22.1241 22.543 18.7541C25.503 12.2341 34.433 19.2341 39.733 21.9841C39.183 22.4041 38.623 22.8241 38.083 23.2441C34.763 25.8841 29.693 29.6941 28.133 33.9741L28.143 33.9841ZM49.613 106.754C43.683 104.454 39.633 101.014 35.153 96.6741C24.323 86.1641 18.713 71.2141 20.423 55.9341C22.733 58.9041 24.723 62.0241 26.783 65.3041C31.393 72.6141 37.133 79.8841 43.083 86.1241C48.743 92.0641 53.323 98.9741 59.193 104.694C61.673 107.104 64.523 109.034 67.263 111.104C61.193 110.524 55.483 109.044 49.603 106.754H49.613ZM110.573 134.114C102.243 132.324 94.623 125.754 87.473 121.414C85.153 120.004 82.513 119.064 80.203 117.654C79.933 117.494 79.673 117.294 79.403 117.124C77.243 115.034 74.563 113.514 72.333 111.404C69.143 108.394 65.243 106.054 61.903 103.134C56.393 98.3341 52.093 91.9341 46.763 86.8141C40.733 81.0141 35.103 73.6041 30.463 66.5841C28.043 62.9341 26.283 58.9341 23.633 55.4041C21.963 53.2041 19.633 51.1541 17.603 48.9441C17.493 48.7941 17.393 48.6341 17.293 48.4741C12.883 41.1541 8.53298 32.1841 5.92298 24.0741C4.43298 19.4441 2.15297 14.1841 2.32297 9.23407C2.58297 1.27407 11.783 2.01406 17.273 4.07406C22.853 6.16406 28.163 9.33407 33.283 12.2941C35.523 13.5841 37.853 14.6841 40.123 15.9341C41.613 16.7541 42.763 17.9941 44.093 18.9541C43.113 19.5641 42.153 20.2341 41.223 20.8941C35.633 18.8041 31.253 12.3841 24.443 13.8941C19.483 15.0041 19.263 20.3141 20.733 24.3041C26.133 39.0041 36.093 51.5041 45.893 63.4841C50.113 68.6541 54.133 74.0141 58.213 79.2941C63.683 86.3541 69.733 92.5341 75.693 99.1141C80.303 104.194 85.553 108.764 91.633 112.034C93.893 113.254 97.193 115.404 99.943 115.244C104.513 116.524 110.723 117.484 111.623 111.704C112.043 109.064 110.753 106.034 109.793 103.614C109.073 101.794 108.343 99.5041 107.253 97.6441C108.403 96.4941 109.313 95.2241 110.103 93.8741C112.903 101.184 117.283 107.874 119.643 115.494C120.483 118.164 121.513 120.674 121.843 123.464C122.653 130.104 117.583 135.624 110.573 134.114Z" fill="#252523"/>
<path d="M110.583 134.124C102.253 132.334 94.6332 125.764 87.4832 121.424C85.1632 120.014 82.5232 119.074 80.2132 117.664C79.9432 117.504 79.6832 117.304 79.4132 117.134C77.2532 115.044 74.5732 113.524 72.3432 111.414C69.1532 108.404 65.2532 106.064 61.9132 103.144C56.4032 98.344 52.1032 91.944 46.7732 86.824C40.7432 81.024 35.1132 73.614 30.4732 66.594C28.0532 62.944 26.2932 58.9441 23.6432 55.4141C21.9732 53.2141 19.6432 51.164 17.6132 48.954C17.5032 48.804 17.4032 48.644 17.3032 48.484C12.8932 41.164 8.54321 32.194 5.93321 24.084C4.44321 19.454 2.16321 14.194 2.33321 9.24404C2.59321 1.28404 11.7932 2.02404 17.2832 4.08404C22.8632 6.17404 28.1732 9.34404 33.2932 12.304C35.5332 13.594 37.8632 14.6941 40.1332 15.9441C41.6232 16.7641 42.7732 18.004 44.1032 18.964C43.1232 19.574 42.1632 20.244 41.2332 20.904C35.6432 18.814 31.2632 12.394 24.4532 13.904C19.4932 15.014 19.2732 20.324 20.7432 24.314C26.1432 39.014 36.1032 51.514 45.9032 63.494C50.1232 68.664 54.1432 74.024 58.2232 79.304C63.6932 86.364 69.7432 92.544 75.7032 99.124C80.3132 104.204 85.5632 108.774 91.6432 112.044C93.9032 113.264 97.2032 115.414 99.9532 115.254C104.523 116.534 110.733 117.494 111.633 111.714C112.053 109.074 110.763 106.044 109.803 103.624C109.083 101.804 108.353 99.514 107.263 97.654C108.413 96.504 109.323 95.234 110.113 93.884C112.913 101.194 117.293 107.884 119.653 115.504C120.493 118.174 121.523 120.684 121.853 123.474C122.663 130.114 117.593 135.634 110.583 134.124Z" fill="#252523"/>
<path d="M65.7829 25.5841C65.6629 24.8241 64.8929 24.2041 64.2029 24.0041C63.0429 23.6741 61.3929 23.7641 60.0429 24.3141C58.3429 24.0941 56.4929 25.4541 57.1029 27.5341C57.4429 28.6741 58.3329 29.3841 59.4729 29.6241C60.1629 29.7741 60.7729 29.7741 61.4629 29.6441C61.6029 29.6141 61.7329 29.5841 61.8729 29.5541C61.9429 29.5341 61.9629 29.5341 61.9529 29.5241C62.0229 29.5241 62.1029 29.5041 62.1729 29.4941C64.3229 29.2141 66.1729 28.0241 65.7829 25.5941V25.5841Z" fill="#252523"/>
<path d="M108.063 62.234C107.793 61.734 107.443 61.284 107.093 60.844C107.093 60.844 107.083 60.824 107.073 60.824C107.073 60.824 107.043 60.784 107.033 60.764C107.053 60.784 107.063 60.804 107.073 60.814C107.013 60.164 106.753 59.544 106.253 59.044C105.173 57.964 103.113 57.834 102.043 59.044C99.4831 61.944 100.943 69.154 105.703 68.554C108.803 68.164 109.303 64.564 108.063 62.234Z" fill="#252523"/>
<path d="M107.073 60.8041C107.073 60.8041 107.093 60.8341 107.073 60.8041V60.8041Z" fill="#252523"/>
<path d="M46.8232 42.484C45.6432 42.694 44.7832 44.024 44.7832 45.154C44.7832 46.064 45.2532 46.874 45.9632 47.394C46.2232 48.374 46.5632 49.414 47.0432 50.284C48.3032 52.544 51.7332 53.664 52.9932 50.734C54.6232 46.904 51.0032 41.734 46.8232 42.494V42.484Z" fill="#252523"/>
<path d="M85.7831 83.274C84.7831 81.494 82.3831 81.054 80.4931 80.884C79.4531 80.794 77.9831 80.674 76.9831 80.984C75.0031 81.604 73.9731 84.134 75.2131 85.894C75.7731 86.694 76.5931 87.234 77.4931 87.344C77.7031 87.454 77.9231 87.574 78.1431 87.714C79.2131 88.404 80.353 88.974 81.633 89.114C84.683 89.454 87.413 86.154 85.793 83.264L85.7831 83.274Z" fill="#252523"/>
<path d="M85.8431 41.2441C85.8931 40.8441 85.9031 40.4441 85.7731 40.0541C85.5431 39.3241 85.0431 38.6941 84.3831 38.3141C84.1231 38.1641 83.8231 38.0541 83.5131 37.9941C82.8431 37.7741 82.0631 37.8041 81.2931 38.2141C79.4531 39.1741 77.5331 40.3041 77.0531 42.5241C76.7131 44.0941 77.2631 45.8141 78.6831 46.6841C79.9131 47.4341 81.3731 47.1741 82.5731 46.5341C83.4831 46.0441 84.4031 45.3741 84.9531 44.4841C85.3131 43.9141 85.4631 43.3441 85.5531 42.6841C85.5531 42.6841 85.6331 42.1741 85.6431 41.9441C85.6031 42.0941 85.4331 42.3441 85.4531 42.3941C85.4031 42.2941 85.8131 41.4341 85.8431 41.2541V41.2441Z" fill="#252523"/>
<path d="M85.6331 41.8241C85.6331 41.8241 85.6531 41.8841 85.6431 41.9341C85.6431 41.8741 85.6431 41.8341 85.6331 41.8241Z" fill="#252523"/>
<path d="M66.1328 64.7641C66.1828 64.7141 66.2428 64.6941 66.2928 64.6441C66.3328 64.6141 66.3628 64.5741 66.4128 64.5441C66.3228 64.6141 66.2228 64.6941 66.1328 64.7641Z" fill="#252523"/>
<path d="M70.323 65.5941C69.623 63.9341 67.643 63.5941 66.293 64.6441C65.533 65.2041 65.103 66.0341 65.233 67.0041C65.353 67.9241 66.053 68.8441 67.003 69.0641C67.313 69.1341 67.643 69.1841 67.963 69.1841C69.803 69.1641 71.043 67.2841 70.333 65.5941H70.323Z" fill="#252523"/>
<path d="M52.3931 47.7541C52.3631 47.1641 52.2631 46.6041 52.1031 46.1741C51.8031 45.3541 51.2331 44.8641 50.5631 44.4741C50.0731 44.1241 49.4831 43.8041 48.8931 43.6241C47.8031 43.1241 46.7331 42.8841 46.0231 44.1841C45.4131 45.2841 46.1231 46.0741 46.8131 46.8841C46.9331 47.1141 47.0631 47.3441 47.1831 47.5841C47.4931 48.2241 47.6731 48.9041 47.9631 49.5541C48.4231 50.5741 49.4131 51.3241 50.5831 51.1341C51.1631 51.0441 51.5731 50.7241 51.8631 50.2941C52.0331 50.1041 52.1831 49.8941 52.2731 49.6241C52.4531 49.0841 52.4931 48.4241 52.4131 47.7541H52.3931Z" fill="#AFAEAE"/>
<path d="M64.0432 24.5141C63.1632 24.3241 62.3832 24.5741 61.5132 24.7041C61.1132 24.7641 60.7232 24.8641 60.3432 24.9941C60.1432 25.0641 59.9432 25.1341 59.7432 25.2241C59.7432 25.2241 59.7332 25.2241 59.7232 25.2241C59.0732 25.1741 58.3732 25.5341 58.0532 26.0741C57.5432 26.9441 57.9132 27.8841 58.6732 28.4241C59.3532 28.9141 59.9832 28.7941 60.6332 28.5541C60.7632 28.5641 60.8932 28.5741 61.0132 28.5741C61.6432 28.5441 62.1832 28.2341 62.7732 28.1541C63.6132 28.0441 64.1232 27.9441 64.8132 27.3941C65.8232 26.5941 65.2332 24.7641 64.0532 24.5141H64.0432Z" fill="#AFAEAE"/>
<path d="M82.4332 38.9341C80.9932 38.9741 80.0732 39.7241 79.0532 40.6541C78.4932 41.1641 78.0232 41.7941 77.8532 42.5541C77.6532 43.4441 78.0332 44.2141 78.3932 44.9941C78.5532 45.3541 78.9232 45.6141 79.3332 45.7541C79.9432 46.0541 80.6932 46.114 81.3832 45.924C82.3732 45.644 83.5532 45.0341 84.2532 44.2541C85.9432 42.3741 85.3932 38.834 82.4332 38.924V38.9341Z" fill="#AFAEAE"/>
<path d="M107.843 63.9741C107.683 63.6141 107.453 63.2741 107.293 62.9141C107.103 62.4741 106.993 61.9941 106.763 61.5641C105.723 59.5941 103.023 59.4241 102.043 61.5341C101.323 63.0841 101.493 65.6341 103.193 66.4441C103.473 66.8541 103.833 67.2141 104.323 67.5141C105.323 68.1041 106.613 68.1641 107.483 67.3041C108.413 66.3941 108.333 65.0841 107.833 63.9841L107.843 63.9741Z" fill="#AFAEAE"/>
<path d="M84.5831 83.804C83.9531 82.784 83.0631 82.414 81.9631 82.144C80.8231 81.864 79.9131 81.564 78.7031 81.784C77.0331 82.084 74.8731 83.284 76.1631 85.294C76.2231 85.384 76.2931 85.434 76.3531 85.514C76.4231 85.744 76.5331 85.964 76.7131 86.114C77.4031 86.674 77.9631 86.784 78.8031 86.934C78.9031 86.954 79.0031 86.994 79.1031 87.014C79.9531 87.394 80.8431 87.694 81.5731 88.014C82.7031 88.504 84.1231 88.294 84.8231 87.174C85.4531 86.164 85.1731 84.784 84.5831 83.804Z" fill="#AFAEAE"/>
<path d="M69.9831 66.0241C69.4031 65.1741 67.8231 65.2241 66.9431 65.3941C66.8431 65.4141 66.7431 65.4741 66.6531 65.5441C65.8831 65.7141 65.7031 66.4041 65.8831 67.0441C65.8131 67.6541 65.9631 68.2341 66.6631 68.5241C67.1231 68.7141 67.8031 68.7341 68.2831 68.6041C68.5231 68.5441 68.7731 68.4041 68.9531 68.2241C69.8431 67.9241 70.6131 66.9441 69.9831 66.0341V66.0241Z" fill="#AFAEAE"/>
<path d="M58.6232 84.8441C56.2832 81.7041 54.6532 78.074 52.1632 74.984C46.3432 67.734 40.6132 60.3441 35.1232 52.8741C29.6032 45.3541 22.2832 38.604 17.9932 30.274C16.3632 27.104 6.55321 12.1841 12.5632 9.25406C13.5332 8.78406 13.0232 7.28406 12.0332 7.28406C7.29321 7.28406 6.9132 15.734 8.0232 18.894C9.6132 23.424 11.3232 27.5741 13.4332 31.9641C15.7832 36.864 19.0532 40.7841 22.2932 45.1641C28.4532 53.4941 34.7732 61.704 41.2632 69.744C44.7632 74.094 48.1132 79.5041 52.0632 83.4041C53.4032 84.7341 55.0532 86.2041 56.5032 87.4041C57.1032 87.9041 58.6932 88.654 59.0432 89.304C59.5032 90.164 61.0932 89.8241 60.9732 88.7841C60.7432 86.7741 59.7732 86.384 58.6232 84.854V84.8441Z" fill="#F4F4F4"/>
<path d="M111.223 114.854C104.523 119.694 98.8931 118.324 92.0431 115.034C89.3331 113.734 86.5831 112.564 84.0231 110.964C81.6631 109.484 76.9831 106.874 75.4031 104.314C74.9231 103.534 73.5331 104.034 73.8631 104.964C74.9631 108.074 78.4531 110.054 81.0131 111.974C83.1831 113.604 85.4931 114.954 87.8931 116.214C90.2831 117.464 92.6631 119.444 95.0331 120.514C101.033 123.224 109.073 123.014 113.403 117.674C114.573 116.224 113.023 113.534 111.213 114.844L111.223 114.854Z" fill="#F4F4F4"/>
</svg>
