<svg width="256" height="256" viewBox="0 0 256 256" fill="none" xmlns="http://www.w3.org/2000/svg">
<path d="M236.056 150.184C235.381 148.218 234.163 146.483 232.544 145.179C230.924 143.875 228.969 143.056 226.904 142.816C224.464 142.523 221.992 142.661 219.6 143.224C215.901 144.041 212.137 144.536 208.352 144.704C218.474 127.627 226.205 109.242 231.328 90.0639C238.952 60.5519 234.88 47.1119 230.12 41.0239C223.799 33.0267 215.709 26.6047 206.486 22.2626C197.264 17.9205 187.159 15.7768 176.968 15.9999C167.619 15.9123 158.309 17.2173 149.344 19.8719C144.005 18.9565 138.601 18.4643 133.184 18.3999C123.338 18.0261 113.585 20.4296 105.04 25.3359C98.5598 23.1449 91.9146 21.4755 85.1681 20.3439C77.3035 18.4572 69.1442 18.139 61.1565 19.4073C53.1688 20.6757 45.5094 23.5058 38.6161 27.7359C24.7441 37.5279 18.3121 54.5519 19.5041 78.3359C21.6384 96.0792 25.4036 113.588 30.7521 130.64C33.8324 141.291 37.8869 151.636 42.8641 161.544C46.5399 170.582 53.5277 177.876 62.4001 181.936C65.6523 183.007 69.1319 183.19 72.4783 182.464C75.8247 181.738 78.9161 180.131 81.4321 177.808C82.574 179.16 83.9243 180.321 85.4321 181.248C87.7691 182.698 90.3166 183.778 92.9841 184.448C101.716 186.88 111.01 186.317 119.384 182.848C119.432 184.216 119.472 185.528 119.496 186.664C119.544 188.496 119.6 190.296 119.664 191.984C119.569 200.908 120.757 209.798 123.192 218.384C123.32 218.728 123.488 219.24 123.664 219.792C125.069 225.047 127.799 229.853 131.592 233.752C136.14 237.928 142.141 240.159 148.312 239.968C150.941 239.951 153.56 239.659 156.128 239.096C160.996 238.485 165.691 236.905 169.938 234.45C174.185 231.994 177.898 228.713 180.856 224.8C187.344 215.56 190.504 201.648 191.072 179.72C191.144 179.096 191.216 178.504 191.28 177.944L191.416 176.784L192.944 176.92H193.336C201.987 177.286 210.616 175.791 218.64 172.536C223.688 170.192 239.872 161.648 236.056 150.136" fill="black"/>
<path d="M221.512 152.424C196.208 157.64 194.472 149.08 194.472 149.08C221.184 109.44 232.352 59.1201 222.712 46.8081C196.424 13.2081 150.912 29.1041 150.152 29.5121L149.904 29.5601C144.345 28.4444 138.693 27.8552 133.024 27.8001C123.463 27.3204 114.028 30.1452 106.304 35.8001C106.304 35.8001 25.1198 2.35209 28.8958 77.8641C29.6958 93.9281 51.9198 199.416 78.4238 167.552C88.1118 155.904 97.4718 146.048 97.4718 146.048C102.186 149.23 107.858 150.677 113.52 150.144L113.976 149.76C113.842 151.274 113.904 152.798 114.16 154.296C107.328 161.928 109.36 163.264 95.6878 166.072C81.8798 168.92 89.9918 173.984 95.2878 175.312C100.915 177.132 106.973 177.128 112.597 175.301C118.222 173.474 123.125 169.916 126.608 165.136L126.208 166.736C128.88 168.88 130.76 180.672 130.448 191.368C129.575 199.323 130.117 207.37 132.048 215.136C134.16 220.872 136.256 233.768 154.2 229.928C160.581 229.298 166.515 226.372 170.901 221.694C175.286 217.016 177.823 210.904 178.04 204.496C178.84 194.624 180.544 196.08 180.648 187.256L182.04 183.08C183.64 169.696 182.296 165.376 191.528 167.384L193.776 167.584C200.918 167.884 208.045 166.685 214.696 164.064C225.944 158.848 232.608 150.128 221.52 152.424" fill="#336791"/>
<path d="M111.056 85.048C109.221 84.6619 107.308 84.9457 105.664 85.848C105.45 86.0022 105.268 86.1977 105.131 86.4231C104.994 86.6484 104.903 86.899 104.864 87.16C104.864 88.0826 105.196 88.9743 105.8 89.672C106.873 91.1461 108.476 92.1469 110.272 92.464C110.51 92.497 110.751 92.513 110.992 92.512C112.18 92.5275 113.345 92.1774 114.328 91.5092C115.311 90.841 116.065 89.8869 116.488 88.776C116.768 86.792 113.88 85.464 111.08 85.072M186.616 85.136C186.4 83.576 183.624 83.136 181.016 83.536C178.408 83.936 175.84 85.088 176.056 86.648C176.463 87.6267 177.152 88.4621 178.035 89.0476C178.918 89.6332 179.956 89.9425 181.016 89.936C181.238 89.9356 181.46 89.9196 181.68 89.888C183.067 89.6443 184.335 88.9498 185.288 87.912C186.084 87.2126 186.57 86.2257 186.64 85.168" fill="white"/>
<path d="M229.928 151.832C228.96 148.912 225.856 147.976 220.696 149.04C205.376 152.24 199.896 150.008 198.088 148.688C210.22 130.065 219.327 109.639 225.072 88.1681C227.397 79.6752 228.74 70.9433 229.072 62.1441C229.689 55.9892 228.257 49.8028 225 44.5441C219.234 37.2876 211.862 31.4692 203.465 27.5474C195.067 23.6256 185.873 21.7074 176.608 21.9441C167.091 21.7952 157.619 23.2863 148.608 26.3521C143.454 25.0804 138.172 24.4013 132.864 24.3281C123.314 23.9085 113.875 26.509 105.888 31.7601C98.7783 29.1606 91.4391 27.2374 83.9681 26.0161C69.6867 22.56 54.6185 24.874 42.0321 32.4561C30.0321 40.9681 24.4321 56.1841 25.5441 77.6801C27.6455 94.9082 31.3222 111.907 36.5281 128.464C45.0881 156.504 54.3921 172.384 64.1841 175.664C65.4499 176.09 66.7764 176.309 68.1121 176.312C70.5978 176.158 73.0158 175.44 75.1824 174.212C77.349 172.983 79.2073 171.278 80.6161 169.224C86.1734 162.557 91.9201 156.056 97.8561 149.72C101.672 151.785 105.919 152.928 110.256 153.056V153.392C109.509 154.277 108.781 155.179 108.072 156.096C105.072 159.896 104.456 160.688 94.8081 162.68C92.0641 163.248 84.7761 164.752 84.6721 169.88C84.5601 175.48 93.2881 177.808 94.2721 178.056C97.5371 178.896 100.893 179.331 104.264 179.352C111.637 179.488 118.786 176.817 124.264 171.88C123.446 187.105 124.469 202.373 127.312 217.352C128.626 222.148 131.468 226.383 135.409 229.416C139.35 232.448 144.172 234.111 149.144 234.152C151.611 234.144 154.07 233.876 156.48 233.352C163.061 232.784 169.223 229.882 173.853 225.17C178.482 220.458 181.276 214.246 181.728 207.656C183.144 199.448 185.576 179.856 186.72 169.344C189.611 170.139 192.603 170.508 195.6 170.44C202.504 170.49 209.35 169.185 215.752 166.6C221.448 163.952 231.752 157.472 229.856 151.832H229.928ZM192.408 80.8001C192.306 83.7701 191.995 86.7293 191.48 89.6561C190.885 93.0953 190.511 96.5691 190.36 100.056C190.333 103.991 190.6 107.922 191.16 111.816C192.888 119.787 192.251 128.09 189.328 135.704C188.707 134.603 188.154 133.465 187.672 132.296C187.208 131.168 186.192 129.352 184.8 126.848C179.36 117.088 166.608 94.2241 173.136 84.8961C175.08 82.1201 180.016 79.2961 192.4 80.8001H192.408ZM177.392 28.2481C185.581 28.0807 193.697 29.8157 201.101 33.3167C208.506 36.8177 214.997 41.9891 220.064 48.4241C227.864 58.3841 219.264 103.72 194.424 142.824L193.672 141.872L193.36 141.48C198.295 132.155 199.731 121.372 197.408 111.08C196.873 107.5 196.606 103.884 196.608 100.264C196.753 97.0292 197.103 93.8067 197.656 90.6161C198.376 86.6768 198.706 82.6761 198.64 78.6721C198.77 78.1221 198.806 77.5539 198.744 76.9921C196.093 66.2796 190.839 56.387 183.448 48.1921C176.807 40.3661 168.5 34.1232 159.136 29.9201C165.133 28.6696 171.251 28.0954 177.376 28.2081L177.392 28.2481ZM75.8321 165.232C70.8161 171.264 67.3441 170.112 66.2321 169.728C58.8081 167.248 50.1841 151.552 42.5921 126.656C37.5512 110.586 33.9634 94.0959 31.8721 77.3841C30.9121 58.1841 35.5681 44.7921 45.7121 37.5921C62.2161 25.8881 89.3601 32.8961 100.264 36.4481C100.104 36.6001 99.9441 36.7441 99.7921 36.9041C81.8961 54.9761 82.3201 85.8561 82.3681 87.7441C82.3681 88.4721 82.4241 89.5041 82.5121 90.9441C83.1681 99.5466 82.951 108.193 81.8641 116.752C81.1204 121.653 81.5025 126.658 82.9815 131.389C84.4605 136.12 86.9975 140.452 90.4001 144.056C91.1094 144.792 91.8508 145.491 92.6241 146.152C89.5601 149.432 82.8961 156.696 75.8241 165.232H75.8321ZM94.9521 139.712C92.1932 136.795 90.1359 133.287 88.9367 129.456C87.7376 125.624 87.4282 121.569 88.0321 117.6C89.1788 108.631 89.412 99.5684 88.7281 90.5521C88.6801 89.7921 88.6401 89.1281 88.6161 88.6081C95.3175 83.5574 103.634 81.1304 112 81.7841C113.925 82.2203 115.666 83.245 116.982 84.7158C118.298 86.1867 119.124 88.0308 119.344 89.9921C124.512 113.904 120.024 123.864 116.424 131.872C115.68 133.52 114.976 135.072 114.384 136.672L113.92 137.92C112.77 140.819 111.787 143.781 110.976 146.792C107.968 146.749 105.001 146.099 102.251 144.879C99.5013 143.66 97.0268 141.897 94.9761 139.696L94.9521 139.712ZM95.8561 171.952C94.3717 171.587 92.958 170.979 91.6721 170.152C93.102 169.541 94.5971 169.096 96.1281 168.824C107.472 166.488 109.224 164.824 113.056 159.984C113.936 158.872 114.928 157.584 116.304 156.072C118.352 153.776 119.296 154.168 120.992 154.872C121.797 155.309 122.502 155.908 123.064 156.631C123.625 157.353 124.031 158.185 124.256 159.072C124.48 159.716 124.56 160.402 124.491 161.08C124.422 161.759 124.205 162.414 123.856 163C120.755 167.282 116.366 170.462 111.33 172.073C106.295 173.685 100.876 173.646 95.8641 171.96L95.8561 171.952ZM155.248 227.2C153.003 227.981 150.618 228.279 148.25 228.076C145.882 227.872 143.583 227.171 141.504 226.019C139.425 224.867 137.612 223.29 136.184 221.39C134.756 219.49 133.745 217.31 133.216 214.992C130.399 196.862 129.594 178.475 130.816 160.168C130.824 159.832 130.778 159.497 130.68 159.176C130.596 158.554 130.468 157.939 130.296 157.336C129.822 155.537 128.959 153.863 127.767 152.434C126.576 151.004 125.085 149.854 123.4 149.064C121.436 148.09 119.201 147.808 117.056 148.264C117.814 145.49 118.728 142.76 119.792 140.088L120.256 138.832C120.784 137.416 121.44 135.952 122.136 134.4C125.904 126.024 131.072 114.544 125.464 88.6241C125.109 86.4193 124.306 84.3105 123.105 82.4278C121.904 80.5452 120.33 78.9285 118.48 77.6775C116.63 76.4265 114.544 75.5676 112.349 75.1539C110.155 74.7402 107.899 74.7805 105.72 75.2721C100.451 75.9556 95.3418 77.5557 90.6241 80.0001C90.0001 80.3201 89.4241 80.6241 88.8961 80.9201C89.5012 66.3838 94.8958 52.4555 104.24 41.3041C107.993 37.6311 112.473 34.7831 117.391 32.9425C122.309 31.102 127.558 30.3095 132.8 30.6161C141.657 30.693 150.388 32.7123 158.379 36.5315C166.37 40.3507 173.426 45.8769 179.048 52.7201C184.535 59.1275 188.822 66.4716 191.704 74.4001C180 73.2081 172.04 75.5201 168.008 81.2881C159.208 93.8321 172.808 118.184 179.336 129.888C180.536 132.032 181.568 133.888 181.888 134.688C183.612 138.713 185.934 142.454 188.776 145.784C189.392 146.584 189.992 147.296 190.44 147.952C186.896 148.976 180.528 151.336 181.112 163.152C180.648 169.072 177.32 196.792 175.624 206.592C173.392 219.528 168.632 224.352 155.24 227.224L155.248 227.2ZM213.184 160.896C208.259 162.85 203.032 163.933 197.736 164.096C194.213 164.615 190.614 164.153 187.336 162.76C186.976 155.408 189.736 154.64 192.616 153.824C193.072 153.696 193.512 153.568 193.944 153.424C194.227 153.652 194.52 153.866 194.824 154.064C199.936 157.44 209.064 157.8 221.944 155.144H222.088C219.426 157.511 216.414 159.454 213.16 160.904L213.184 160.896Z" fill="white"/>
</svg>
