<svg width="256" height="230" viewBox="0 0 256 230" fill="none" xmlns="http://www.w3.org/2000/svg">
<g clip-path="url(#clip0_158_1884)">
<path d="M157.98 142.487L153.07 151.014C151.591 153.583 148.852 155.166 145.888 155.166H108.271C105.307 155.166 102.568 153.583 101.089 151.014L96.1779 142.487H157.98ZM171.727 118.617L163.069 133.651H91.0892L82.4313 118.617H171.727ZM163.387 95.2749L171.741 109.781H82.4175L90.7716 95.2749H163.387ZM145.888 73.2087C148.852 73.2087 151.591 74.7918 153.07 77.3604L158.298 86.4388H95.8602L101.089 77.3604C102.568 74.7918 105.307 73.2087 108.271 73.2087H145.888Z" fill="#00435B"/>
<path d="M53.5228 69.252C49.3558 49.046 48.4615 33.5482 51.155 22.2947C52.757 15.6017 55.6858 10.1417 60.1393 6.20238C64.8409 2.04349 70.7854 0.00271401 77.4646 0.00271401C88.4833 0.00271401 100.067 5.02739 112.446 14.5729C117.495 18.4664 122.735 23.1593 128.177 28.6544C128.611 28.0968 129.1 27.5708 129.646 27.0846C145.032 13.3733 157.986 4.85421 169.066 1.56952C175.654 -0.383548 181.839 -0.56962 187.471 1.32591C193.417 3.32676 198.154 7.46281 201.497 13.2561C207.013 22.8171 208.467 35.3803 206.411 50.8927C205.573 57.2157 204.14 64.1033 202.115 71.5661C202.879 71.6583 203.645 71.8277 204.403 72.0789C223.924 78.5482 237.748 85.5051 246.117 93.4556C251.096 98.186 254.348 103.452 255.524 109.282C256.764 115.435 255.554 121.606 252.216 127.395C246.71 136.943 236.587 144.472 222.164 150.436C216.373 152.831 209.821 155 202.5 156.951C202.834 157.705 203.094 158.506 203.267 159.346C207.434 179.552 208.328 195.05 205.635 206.303C204.033 212.996 201.104 218.456 196.65 222.396C191.949 226.555 186.004 228.595 179.325 228.595C168.306 228.595 156.723 223.571 144.344 214.025C139.241 210.09 133.943 205.339 128.438 199.768C127.872 200.654 127.177 201.477 126.354 202.21C110.968 215.922 98.014 224.441 86.9344 227.725C80.3464 229.679 74.1611 229.865 68.5286 227.969C62.5831 225.968 57.8457 221.832 54.5033 216.039C48.9872 206.478 47.5326 193.915 49.5891 178.402C50.4577 171.851 51.9648 164.693 54.1071 156.917C53.2697 156.832 52.4289 156.655 51.5974 156.38C32.0755 149.911 18.252 142.954 9.88292 135.003C4.90352 130.273 1.65191 125.007 0.476477 119.177C-0.764196 113.024 0.445557 106.852 3.78402 101.063C9.28982 91.5163 19.4134 83.9865 33.8357 78.0224C39.7993 75.5562 46.5701 73.3296 54.156 71.3343C53.8858 70.6726 53.6723 69.9769 53.5228 69.252Z" fill="#002B3B"/>
<path d="M189.647 161.332C191.588 160.988 193.448 162.233 193.881 164.142L193.905 164.255L194.112 165.33C200.822 200.606 196.095 218.245 179.932 218.245C164.119 218.245 143.988 203.194 119.54 173.092C119 172.427 118.708 171.594 118.715 170.738C118.733 168.742 120.335 167.131 122.317 167.087L122.431 167.087L123.719 167.096C134.007 167.152 144.008 166.793 153.723 166.02C165.19 165.107 177.165 163.545 189.647 161.332ZM78.6458 134.667L78.7078 134.771L79.3537 135.899C84.5306 144.899 89.9242 153.441 95.5345 161.525C102.142 171.046 109.572 180.684 117.825 190.44C119.101 191.949 118.956 194.189 117.515 195.522L117.422 195.605L116.591 196.32C89.2852 219.717 71.5374 224.388 63.3477 210.332C55.3313 196.574 58.2377 171.559 72.0669 135.285C72.3708 134.488 72.9419 133.821 73.6828 133.398C75.4143 132.41 77.6095 132.981 78.6458 134.667ZM203.503 82.6131L203.615 82.6495L204.643 83.0044C238.348 94.7289 251.153 107.614 243.059 121.659C235.143 135.395 212.129 145.397 174.018 151.663C173.168 151.803 172.296 151.64 171.553 151.204C169.8 150.173 169.214 147.915 170.245 146.161C175.703 136.876 180.62 127.637 184.993 118.445C189.954 108.02 194.609 96.8293 198.959 84.8743C199.619 83.0618 201.556 82.0773 203.391 82.5804L203.503 82.6131ZM84.4464 76.7099C86.2001 77.7409 86.786 79.9983 85.755 81.752C80.2965 91.0372 75.3802 100.276 71.0063 109.469C66.0458 119.894 61.3906 131.084 57.0407 143.039C56.3678 144.889 54.3643 145.876 52.4965 145.3L52.3846 145.264L51.3569 144.909C17.6521 133.185 4.84679 120.3 12.9409 106.255C20.8572 92.5182 43.8709 82.5168 81.982 76.2506C82.8319 76.1109 83.7039 76.2734 84.4464 76.7099ZM192.652 18.9624C200.669 32.7203 197.762 57.7361 183.933 94.0096C183.629 94.8067 183.058 95.4736 182.317 95.8965C180.586 96.8847 178.39 96.3141 177.354 94.628L177.292 94.5234L176.646 93.396C171.469 84.3958 166.076 75.8536 160.465 67.7693C153.858 58.2487 146.428 48.6105 138.175 38.8549C136.898 37.3457 137.044 35.1055 138.485 33.7732L138.578 33.6895L139.409 32.9747C166.715 9.57793 184.462 4.90714 192.652 18.9624ZM77.4487 10.5898C93.2626 10.5898 113.393 25.6406 137.841 55.7423C138.381 56.4073 138.673 57.2399 138.666 58.0967C138.648 60.0926 137.046 61.7038 135.065 61.747L134.95 61.7478L133.662 61.7386C123.375 61.6829 113.373 62.0416 103.659 62.8147C92.1909 63.7274 80.2161 65.2898 67.7341 67.5019C65.7931 67.8459 63.9331 66.6015 63.4997 64.6923L63.4759 64.5792L63.269 63.5048C56.5592 28.2282 61.2857 10.5898 77.4487 10.5898Z" fill="#FF4154"/>
<path d="M111.295 73.6689H142.871C147.488 73.6689 151.754 76.1388 154.052 80.1439L169.907 107.77C172.188 111.744 172.188 116.63 169.907 120.604L154.052 148.23C151.754 152.235 147.488 154.705 142.871 154.705H111.295C106.677 154.705 102.412 152.235 100.113 148.23L84.2585 120.604C81.9777 116.63 81.9777 111.744 84.2585 107.77L100.113 80.1439C102.412 76.1388 106.677 73.6689 111.295 73.6689ZM138.058 82.0071C142.678 82.0071 146.945 84.4795 149.243 88.4879L160.299 107.776C162.575 111.747 162.575 116.627 160.299 120.598L149.243 139.886C146.945 143.894 142.678 146.367 138.058 146.367H116.107C111.487 146.367 107.22 143.894 104.922 139.886L93.8664 120.598C91.5902 116.627 91.5902 111.747 93.8664 107.776L104.922 88.4879C107.22 84.4795 111.487 82.0071 116.107 82.0071H138.058ZM132.871 91.1269H121.294C116.679 91.1269 112.415 93.5943 110.116 97.5962L104.274 107.764C101.989 111.741 101.989 116.633 104.274 120.61L110.116 130.778C112.415 134.78 116.679 137.247 121.294 137.247H132.871C137.487 137.247 141.75 134.78 144.049 130.778L149.892 120.61C152.177 116.633 152.177 111.741 149.892 107.764L144.049 97.5962C141.75 93.5943 137.487 91.1269 132.871 91.1269ZM127.876 99.8558C132.488 99.8558 136.749 102.32 139.05 106.317L139.878 107.756C142.17 111.737 142.17 116.637 139.878 120.618L139.05 122.057C136.749 126.054 132.488 128.518 127.876 128.518H126.289C121.677 128.518 117.416 126.054 115.115 122.057L114.287 120.618C111.996 116.637 111.996 111.737 114.287 107.756L115.115 106.317C117.416 102.32 121.677 99.8558 126.289 99.8558H127.876ZM127.085 108.454C125.032 108.454 123.139 109.547 122.114 111.321C121.089 113.094 121.089 115.28 122.114 117.053C123.139 118.827 125.032 119.919 127.081 119.919C129.133 119.919 131.026 118.827 132.051 117.053C133.076 115.28 133.076 113.094 132.051 111.321C131.026 109.547 129.133 108.454 127.085 108.454ZM80.5757 114.187H90.8965Z" fill="#FFD94C"/>
</g>
<defs>
<clipPath id="clip0_158_1884">
<rect width="256" height="230" fill="white"/>
</clipPath>
</defs>
</svg>
