<svg width="256" height="256" viewBox="0 0 256 256" fill="none" xmlns="http://www.w3.org/2000/svg">
<g clip-path="url(#clip0_158_1847)">
<path d="M245.97 186.943C232.308 194.065 161.536 223.163 146.469 231.018C131.402 238.874 123.032 238.798 111.129 233.108C99.2271 227.418 23.9127 196.996 10.3463 190.511C3.56511 187.27 0 184.535 0 181.951V156.075C0 156.075 98.0491 134.73 113.879 129.052C129.707 123.372 135.199 123.167 148.67 128.101C162.141 133.037 242.687 147.569 256 152.445C256 152.445 255.994 175.556 255.994 177.955C255.996 180.513 252.924 183.319 245.97 186.943Z" fill="#912626"/>
<path d="M245.965 161.22C232.304 168.338 161.534 197.438 146.467 205.292C131.401 213.149 123.031 213.072 111.129 207.382C99.2261 201.696 23.9151 171.269 10.3491 164.788C-3.21684 158.303 -3.50184 153.84 9.82515 148.622C23.1511 143.402 98.0491 114.017 113.88 108.338C129.708 102.661 135.199 102.454 148.669 107.39C162.14 112.324 232.488 140.325 245.8 145.2C259.115 150.081 259.626 154.099 245.965 161.22Z" fill="#C6302B"/>
<path d="M245.97 145.074C232.308 152.196 161.536 181.294 146.469 189.152C131.402 197.005 123.032 196.929 111.129 191.239C99.2261 185.552 23.9127 155.127 10.3463 148.642C3.56511 145.401 0 142.669 0 140.085V114.206C0 114.206 98.0491 92.8617 113.879 87.1825C129.707 81.5043 135.199 81.2983 148.67 86.2325C162.141 91.1676 242.687 105.697 256 110.574C256 110.574 255.994 133.685 255.994 136.087C255.996 138.644 252.924 141.45 245.97 145.074Z" fill="#912626"/>
<path d="M245.965 119.351C232.304 126.471 161.534 155.569 146.467 163.426C131.401 171.28 123.031 171.203 111.129 165.513C99.2261 159.827 23.9151 129.401 10.3491 122.919C-3.21684 116.436 -3.50184 111.972 9.82515 106.752C23.1511 101.535 98.0491 72.1483 113.88 66.4703C129.708 60.7923 135.199 60.5863 148.669 65.5213C162.14 70.4553 232.488 98.4543 245.8 103.331C259.115 108.21 259.626 112.23 245.965 119.35V119.351Z" fill="#C6302B"/>
<path d="M245.97 101.652C232.308 108.774 161.536 137.874 146.469 145.731C131.402 153.585 123.032 153.508 111.129 147.818C99.2261 142.131 23.9127 111.705 10.3463 105.223C3.56511 101.981 0 99.2474 0 96.6653V70.7855C0 70.7855 98.0491 49.4419 113.879 43.7637C129.707 38.0845 135.199 37.8795 148.67 42.8137C162.141 47.7488 242.687 62.2783 256 67.1554C256 67.1554 255.994 90.2661 255.994 92.6672C255.996 95.2223 252.924 98.0284 245.97 101.652Z" fill="#912626"/>
<path d="M245.965 75.9294C232.304 83.0494 161.534 112.149 146.467 120.004C131.401 127.858 123.031 127.781 111.129 122.093C99.2271 116.405 23.9151 85.9814 10.3491 79.4984C-3.21684 73.0154 -3.50184 68.5504 9.82515 63.3314C23.1511 58.1134 98.0491 28.7295 113.88 23.0495C129.708 17.3705 135.199 17.1665 148.669 22.1015C162.14 27.0365 232.488 55.0354 245.8 59.9124C259.115 64.7884 259.626 68.8094 245.965 75.9294Z" fill="#C6302B"/>
<path d="M159.283 50.7572L137.274 53.0423L132.346 64.8977L124.388 51.6681L98.9731 49.3839L117.937 42.5453L112.247 32.0474L130.002 38.9911L146.74 33.5109L142.216 44.3661L159.283 50.7572Z" fill="white"/>
<path d="M131.032 108.275L89.9546 91.2378L148.816 82.2034L131.032 108.275Z" fill="white"/>
<path d="M74.0818 57.3467C91.4571 57.3467 105.542 62.807 105.542 69.5414C105.542 76.2768 91.4571 81.7361 74.0818 81.7361C56.7075 81.7361 42.6216 76.2768 42.6216 69.5414C42.6216 62.807 56.7075 57.3467 74.0818 57.3467Z" fill="white"/>
<path d="M185.295 53.9978L220.131 67.7643L185.325 81.5168L185.295 53.9978Z" fill="#621B1C"/>
<path d="M146.755 69.2427L185.295 53.9978L185.325 81.5168L181.546 82.9953L146.755 69.2427Z" fill="#9A2928"/>
</g>
<defs>
<clipPath id="clip0_158_1847">
<rect width="256" height="256" fill="white"/>
</clipPath>
</defs>
</svg>
