<svg width="256" height="256" viewBox="0 0 256 256" fill="none" xmlns="http://www.w3.org/2000/svg">
<path d="M177.381 175.733C186.828 174.755 193.995 166.611 193.669 156.837C193.344 147.064 185.199 139.245 175.426 139.245H174.775C164.676 139.571 156.857 148.041 157.183 158.14C157.509 163.027 159.464 167.262 162.395 170.194C151.319 192.022 134.379 207.985 108.969 221.342C91.7032 230.464 73.7859 233.722 55.8685 231.442C41.2088 229.487 29.8068 222.971 22.6398 212.22C12.2152 196.257 11.2379 178.991 20.0337 161.724C26.2233 149.344 35.9964 140.222 42.1861 135.661C40.883 131.426 38.9284 124.259 37.9511 119.047C-9.28569 153.254 -4.39913 199.515 9.93478 221.342C20.6852 237.631 42.5119 247.731 66.6189 247.731C73.1343 247.731 79.6497 247.079 86.1651 245.45C127.864 237.306 159.464 212.546 177.381 175.733ZM234.717 135.336C209.958 106.341 173.472 90.3777 131.773 90.3777H126.561C123.629 84.5136 117.439 80.6042 110.598 80.6042H109.946C99.8475 80.93 92.029 89.4004 92.3548 99.4996C92.6805 109.273 100.825 117.092 110.598 117.092H111.249C118.416 116.766 124.606 112.205 127.212 106.015H133.076C157.835 106.015 181.29 113.182 202.465 127.191C218.754 137.942 230.482 151.951 236.997 168.891C242.535 182.574 242.209 195.931 236.345 207.334C227.224 224.6 211.913 234.048 191.715 234.048C178.684 234.048 166.305 230.138 159.789 227.206C156.206 230.464 149.69 235.677 145.13 238.935C159.138 245.45 173.472 249.034 187.154 249.034C218.428 249.034 241.558 231.767 250.354 214.501C259.801 195.605 259.149 163.027 234.717 135.336ZM69.2251 181.271C69.5508 191.045 77.6951 198.863 87.4682 198.863H88.1198C98.2187 198.538 106.037 190.067 105.711 179.968C105.386 170.194 97.2413 162.376 87.4682 162.376H86.8167C86.1651 162.376 85.1878 162.376 84.5363 162.701C71.1797 140.548 65.6416 116.44 67.5962 90.3777C68.8993 70.8307 75.4147 53.89 86.8167 39.8814C96.264 27.8274 114.507 21.9633 126.886 21.6376C161.418 20.986 176.078 63.9893 177.055 81.2558C181.29 82.2331 188.457 84.5136 193.344 86.1425C189.434 33.3657 156.857 6 125.583 6C96.264 6 69.2251 27.1759 58.4746 58.451C43.4892 100.151 53.2623 140.222 71.5055 171.823C69.8766 174.104 68.8993 177.687 69.2251 181.271Z" fill="#764ABC"/>
</svg>
