<svg width="256" height="256" viewBox="0 0 256 256" fill="none" xmlns="http://www.w3.org/2000/svg">
<path d="M39.3283 44.3342L22.2969 52.8516V202.339L39.3283 210.807L39.4307 210.684V44.4515L39.3283 44.3342Z" fill="#8C3123"/>
<path d="M130.477 189.11L39.3281 210.807V44.3342L130.477 65.5583V189.11Z" fill="#E05243"/>
<path d="M89.334 155.141L127.997 160.063L128.239 159.503L128.457 96.1056L127.997 95.6101L89.334 100.461V155.141" fill="#8C3123"/>
<path d="M127.997 189.353L216.664 210.853L216.804 210.631L216.801 44.4829L216.661 44.3342L127.997 65.8019V189.353" fill="#8C3123"/>
<path d="M166.67 155.141L127.997 160.063V95.6101L166.67 100.461V155.141Z" fill="#E05243"/>
<path d="M166.67 74.0178L127.997 81.0661L89.334 74.0178L127.948 63.8967L166.67 74.0178Z" fill="#5E1F18"/>
<path d="M166.67 181.513L127.997 174.418L89.334 181.513L127.95 192.292L166.67 181.513Z" fill="#F2B0A9"/>
<path d="M89.334 74.0179L127.997 64.4501L128.31 64.3534V0.258477L127.997 0L89.334 19.3346V74.0179Z" fill="#8C3123"/>
<path d="M166.67 74.0179L127.997 64.4501V0L166.67 19.3346V74.0179Z" fill="#E05243"/>
<path d="M127.997 255.528L89.3301 236.2V181.517L127.997 191.082L128.566 191.728L128.411 254.412L127.997 255.528Z" fill="#8C3123"/>
<path d="M127.997 255.528L166.667 236.2V181.517L127.997 191.082V255.528M216.664 44.3342L233.703 52.8516V202.339L216.664 210.853V44.3342Z" fill="#E05243"/>
</svg>
