<svg width="256" height="256" viewBox="0 0 256 256" fill="none" xmlns="http://www.w3.org/2000/svg">
<path d="M17.9911 116.242C17.9911 113.469 20.2667 112.402 24.0356 112.402C29.44 112.402 36.2667 114.038 41.6711 116.953V100.242C35.7689 97.8956 29.9378 96.9711 24.0356 96.9711C9.6 96.9711 0 104.509 0 117.096C0 136.722 27.0222 133.593 27.0222 142.056C27.0222 145.327 24.1778 146.393 20.1956 146.393C14.2933 146.393 6.75556 143.976 0.782222 140.704V157.629C7.39556 160.473 14.08 161.682 20.1956 161.682C34.9867 161.682 45.1556 154.358 45.1556 141.629C45.0844 120.438 17.9911 124.207 17.9911 116.242ZM66.0622 82.7489L48.7111 86.4467L48.64 143.407C48.64 153.931 56.5333 161.682 67.0578 161.682C72.8889 161.682 77.1556 160.616 79.5022 159.336V144.9C77.2267 145.824 65.9911 149.096 65.9911 138.571V113.327H79.5022V98.18H65.9911L66.0622 82.7489ZM101.618 103.442L100.48 98.18H85.12V160.402H102.898V118.233C107.093 112.758 114.204 113.753 116.409 114.536V98.18C114.133 97.3267 105.813 95.7622 101.618 103.442ZM120.747 98.18H138.596V160.402H120.747V98.18ZM120.747 92.7756L138.596 88.9356V74.5L120.747 78.2689V92.7756ZM175.716 96.9711C168.747 96.9711 164.267 100.242 161.778 102.518L160.853 98.1089H145.209V181.024L162.987 177.256L163.058 157.131C165.618 158.98 169.387 161.611 175.644 161.611C188.373 161.611 199.964 151.371 199.964 128.829C199.893 108.207 188.16 96.9711 175.716 96.9711ZM171.449 145.967C167.253 145.967 164.764 144.473 163.058 142.624L162.987 116.242C164.836 114.18 167.396 112.758 171.449 112.758C177.92 112.758 182.4 120.011 182.4 129.327C182.4 138.856 177.991 145.967 171.449 145.967ZM256 129.54C256 111.336 247.182 96.9711 230.329 96.9711C213.404 96.9711 203.164 111.336 203.164 129.398C203.164 150.802 215.253 161.611 232.604 161.611C241.067 161.611 247.467 159.691 252.302 156.989V142.767C247.467 145.184 241.92 146.678 234.88 146.678C227.982 146.678 221.867 144.26 221.084 135.869H255.858C255.858 134.944 256 131.247 256 129.54ZM220.871 122.784C220.871 114.749 225.778 111.407 230.258 111.407C234.596 111.407 239.218 114.749 239.218 122.784H220.871Z" fill="#6772E5"/>
</svg>
