<svg width="256" height="256" viewBox="0 0 256 256" fill="none" xmlns="http://www.w3.org/2000/svg">
<g clip-path="url(#clip0_26_844)">
<path d="M255.925 0H0.075C0.0335786 0 0 0.0335786 0 0.075V255.925C0 255.966 0.0335786 256 0.075 256H255.925C255.966 256 256 255.966 256 255.925V0.075C256 0.0335786 255.966 0 255.925 0Z" fill="#3178C6"/>
<path d="M116.5 142H148.5V121.5H59V142H91V233.5H116.5V142ZM158.5 228.5C162.55 230.6 167.5 232.15 173 233.2C178.5 234.25 184.5 234.75 190.5 234.75C196.5 234.75 202 234.2 207.5 233.05C213 231.9 217.5 230 221.5 227.55C225.55 224.9 229 221.55 231 217.05C233 212.55 234.55 207.55 234.55 201.05C234.55 196.5 233.85 192.55 232.5 189.05C231.15 185.55 229.2 182.55 226.5 180.05C223.95 177.4 221 175.05 217.5 173.05C214 171.05 210 168.95 205.5 167.05C202.2 165.7 199.5 164.4 196.5 163.1C193.9 161.8 191.65 160.5 190 159.2C188.15 157.85 186.75 156.45 185.75 155C184.75 153.5 184.25 151.85 184.25 150C184.25 148.3 184.695 146.75 185.6 145.35C186.505 143.95 187.75 142.8 189.35 141.8C190.95 140.8 192.95 140.05 195.35 139.5C197.7 138.95 200.3 138.7 203.35 138.7C205.45 138.7 207.65 138.855 209.85 139.17C212.15 139.485 214.5 139.97 216.85 140.62C219.2 141.27 221.5 142.07 223.85 143.07C226.05 144.07 228.1 145.22 229.85 146.52V123.02C226.05 121.57 221.85 120.47 217.35 119.77C212.85 119.07 207.85 118.72 201.85 118.72C195.85 118.72 190.35 119.37 184.85 120.62C179.35 121.87 174.85 123.87 170.85 126.62C166.8 129.32 163.85 132.62 161.35 137.12C159 141.32 157.85 146.12 157.85 152.12C157.85 159.62 160 166.12 164.35 171.12C168.65 176.62 175.35 180.62 183.85 184.62C187.3 186.02 190.35 187.42 193.35 188.77C196.35 190.12 198.85 191.52 200.85 192.97C203 194.42 204.7 196.02 205.85 197.72C207.1 199.42 207.75 201.42 207.75 203.72C207.75 205.32 207.36 206.82 206.6 208.22C205.84 209.62 204.65 210.82 203.05 211.82C201.45 212.82 199.5 213.62 197.05 214.22C194.7 214.77 192.05 215.07 188.55 215.07C183.05 215.07 177.55 214.12 172.55 212.22C167.05 210.32 162.05 207.47 158.5 204.5V228.5Z" fill="white"/>
</g>
<defs>
<clipPath id="clip0_26_844">
<rect width="256" height="256" fill="white"/>
</clipPath>
</defs>
</svg>
